<svg width="641" height="911" viewBox="0 0 641 911" fill="none" xmlns="http://www.w3.org/2000/svg">
<mask id="path-1-outside-1_47_110" maskUnits="userSpaceOnUse" x="-510" y="-162" width="1153" height="1075" fill="black">
<rect fill="white" x="-510" y="-162" width="1153" height="1075"/>
<path d="M-508 911V896H-449.5C-431.5 896 -415.5 893 -401.5 887C-386.5 881 -373.5 870.5 -362.5 855.5C-350.5 839.5 -339.5 817.5 -329.5 789.5L-6.99999 -160H183.5L518 792.5C528 817.5 538.5 837.5 549.5 852.5C561.5 867.5 574.5 878.5 588.5 885.5C602.5 892.5 619 896 638 896H641V911H120.5V896H191C214 896 230.5 892 240.5 884C250.5 876 255.5 864 255.5 848C255.5 841 254.5 834 252.5 827C251.5 819 250 811 248 803C246 794 243 784.5 239 774.5L156.5 518H-221.5L-301 750.5C-305 763.5 -309 776 -313 788C-316 799 -318.5 809.5 -320.5 819.5C-322.5 828.5 -323.5 837.5 -323.5 846.5C-323.5 863.5 -318.5 876 -308.5 884C-297.5 892 -280.5 896 -257.5 896H-151V911H-508ZM-217 503H152L53 195.5C46 174.5 37.5 148.5 27.5 117.5C18.5 86.5 9.00001 54.5 -0.999982 21.4999C-9.99999 -11.5001 -18 -41.0001 -25 -67C-30 -49 -36 -29 -43 -7.00007C-50 14 -57.5 36 -65.5 59C-73.5 82 -81.5 104.5 -89.5 126.5C-96.5 148.5 -103.5 169.5 -110.5 189.5L-217 503Z"/>
</mask>
<path d="M-508 911H-510V913H-508V911ZM-508 896V894H-510V896H-508ZM-401.5 887L-402.243 885.143L-402.265 885.152L-402.288 885.162L-401.5 887ZM-362.5 855.5L-364.1 854.3L-364.106 854.309L-364.113 854.317L-362.5 855.5ZM-329.5 789.5L-327.617 790.173L-327.611 790.158L-327.606 790.143L-329.5 789.5ZM-7 -160V-162H-8.43289L-8.89374 -160.643L-7 -160ZM183.5 -160L185.387 -160.663L184.917 -162H183.5V-160ZM518 792.5L516.113 793.163L516.127 793.203L516.143 793.243L518 792.5ZM549.5 852.5L547.887 853.683L547.912 853.717L547.938 853.749L549.5 852.5ZM588.5 885.5L589.395 883.711L588.5 885.5ZM641 896H643V894H641V896ZM641 911V913H643V911H641ZM120.5 911H118.5V913H120.5V911ZM120.5 896V894H118.5V896H120.5ZM240.5 884L239.251 882.438L240.5 884ZM252.5 827L250.515 827.248L250.535 827.401L250.577 827.549L252.5 827ZM248 803L246.048 803.434L246.053 803.46L246.06 803.485L248 803ZM239 774.5L237.096 775.112L237.117 775.178L237.143 775.243L239 774.5ZM156.5 518L158.404 517.388L157.958 516H156.5V518ZM-221.5 518V516H-222.93L-223.392 517.353L-221.5 518ZM-301 750.5L-302.892 749.853L-302.902 749.882L-302.912 749.912L-301 750.5ZM-313 788L-314.897 787.368L-314.915 787.42L-314.93 787.474L-313 788ZM-320.5 819.5L-318.548 819.934L-318.543 819.913L-318.539 819.892L-320.5 819.5ZM-308.5 884L-309.749 885.562L-309.713 885.59L-309.676 885.617L-308.5 884ZM-151 896H-149V894H-151V896ZM-151 911V913H-149V911H-151ZM-217 503L-218.894 502.357L-219.792 505H-217V503ZM152 503V505H154.745L153.904 502.387L152 503ZM53.0001 195.5L54.9038 194.887L54.9006 194.877L54.8974 194.867L53.0001 195.5ZM27.5 117.5L25.5793 118.058L25.5875 118.086L25.5966 118.114L27.5 117.5ZM-1 21.4999L-2.9295 22.0262L-2.92212 22.0532L-2.914 22.0799L-1 21.4999ZM-25 -67L-23.0688 -67.52L-24.9698 -74.5811L-26.927 -67.5353L-25 -67ZM-43 -7.00006L-41.1026 -6.36761L-41.0983 -6.38062L-41.0941 -6.39368L-43 -7.00006ZM-65.5 59L-63.611 59.657L-65.5 59ZM-89.5 126.5L-91.3795 125.816L-91.3935 125.855L-91.4058 125.894L-89.5 126.5ZM-110.5 189.5L-112.388 188.839L-112.391 188.848L-112.394 188.857L-110.5 189.5ZM-506 911V896H-510V911H-506ZM-508 898H-449.5V894H-508V898ZM-449.5 898C-431.278 898 -415.002 894.963 -400.712 888.838L-402.288 885.162C-415.998 891.037 -431.722 894 -449.5 894V898ZM-400.757 888.857C-385.36 882.698 -372.074 871.938 -360.887 856.683L-364.113 854.317C-374.926 869.062 -387.64 879.302 -402.243 885.143L-400.757 888.857ZM-360.9 856.7C-348.736 840.482 -337.655 818.279 -327.617 790.173L-331.383 788.827C-341.345 816.721 -352.264 838.518 -364.1 854.3L-360.9 856.7ZM-327.606 790.143L-5.10626 -159.357L-8.89374 -160.643L-331.394 788.857L-327.606 790.143ZM-7 -158H183.5V-162H-7V-158ZM181.613 -159.337L516.113 793.163L519.887 791.837L185.387 -160.663L181.613 -159.337ZM516.143 793.243C526.18 818.336 536.754 838.501 547.887 853.683L551.113 851.317C540.246 836.499 529.82 816.664 519.857 791.757L516.143 793.243ZM547.938 853.749C560.079 868.925 573.295 880.133 587.606 887.289L589.395 883.711C575.705 876.867 562.921 866.075 551.062 851.251L547.938 853.749ZM587.606 887.289C601.937 894.454 618.755 898 638 898V894C619.245 894 603.064 890.546 589.395 883.711L587.606 887.289ZM638 898H641V894H638V898ZM639 896V911H643V896H639ZM641 909H120.5V913H641V909ZM122.5 911V896H118.5V911H122.5ZM120.5 898H191V894H120.5V898ZM191 898C214.133 898 231.207 893.996 241.749 885.562L239.251 882.438C229.793 890.004 213.867 894 191 894V898ZM241.749 885.562C252.34 877.089 257.5 864.441 257.5 848H253.5C253.5 863.559 248.66 874.911 239.251 882.438L241.749 885.562ZM257.5 848C257.5 840.807 256.472 833.622 254.423 826.451L250.577 827.549C252.528 834.378 253.5 841.193 253.5 848H257.5ZM254.485 826.752C253.474 818.67 251.959 810.591 249.94 802.515L246.06 803.485C248.041 811.409 249.526 819.33 250.515 827.248L254.485 826.752ZM249.952 802.566C247.925 793.445 244.891 783.841 240.857 773.757L237.143 775.243C241.109 785.159 244.075 794.555 246.048 803.434L249.952 802.566ZM240.904 773.888L158.404 517.388L154.596 518.612L237.096 775.112L240.904 773.888ZM156.5 516H-221.5V520H156.5V516ZM-223.392 517.353L-302.892 749.853L-299.108 751.147L-219.608 518.647L-223.392 517.353ZM-302.912 749.912C-306.907 762.898 -310.903 775.383 -314.897 787.368L-311.103 788.632C-307.097 776.617 -303.093 764.102 -299.088 751.088L-302.912 749.912ZM-314.93 787.474C-317.94 798.513 -320.451 809.058 -322.461 819.108L-318.539 819.892C-316.549 809.942 -314.06 799.487 -311.07 788.526L-314.93 787.474ZM-322.452 819.066C-324.483 828.205 -325.5 837.351 -325.5 846.5H-321.5C-321.5 837.649 -320.517 828.795 -318.548 819.934L-322.452 819.066ZM-325.5 846.5C-325.5 863.894 -320.369 877.066 -309.749 885.562L-307.251 882.438C-316.631 874.934 -321.5 863.106 -321.5 846.5H-325.5ZM-309.676 885.617C-298.17 893.986 -280.659 898 -257.5 898V894C-280.341 894 -296.83 890.014 -307.324 882.383L-309.676 885.617ZM-257.5 898H-151V894H-257.5V898ZM-153 896V911H-149V896H-153ZM-151 909H-508V913H-151V909ZM-217 505H152V501H-217V505ZM153.904 502.387L54.9038 194.887L51.0963 196.113L150.096 503.613L153.904 502.387ZM54.8974 194.867C47.9001 173.876 39.4023 147.882 29.4034 116.886L25.5966 118.114C35.5978 149.118 44.0999 175.124 51.1027 196.132L54.8974 194.867ZM29.4207 116.942C20.4184 85.9344 10.9161 53.9269 0.914062 20.9199L-2.914 22.0799C7.08386 55.073 16.5816 87.0656 25.5793 118.058L29.4207 116.942ZM0.929565 20.9737C-8.07004 -12.0247 -16.0695 -41.5226 -23.0688 -67.52L-26.9312 -66.4801C-19.9305 -40.4775 -11.9299 -10.9754 -2.9295 22.0262L0.929565 20.9737ZM-26.927 -67.5353C-31.9191 -49.5639 -37.9117 -29.5881 -44.9058 -7.60648L-41.0941 -6.39368C-34.0883 -28.412 -28.0809 -48.4361 -23.0729 -66.4647L-26.927 -67.5353ZM-44.8973 -7.63254C-51.8943 13.3585 -59.3915 35.3503 -67.3889 58.3429L-63.611 59.657C-55.6084 36.6496 -48.1056 14.6414 -41.1026 -6.36761L-44.8973 -7.63254ZM-67.3889 58.3429C-75.386 81.3344 -83.3829 103.826 -91.3795 125.816L-87.6204 127.183C-79.6171 105.174 -71.6139 82.6655 -63.611 59.657L-67.3889 58.3429ZM-91.4058 125.894C-98.4005 147.877 -105.395 168.859 -112.388 188.839L-108.612 190.161C-101.605 170.141 -94.5994 149.123 -87.5941 127.106L-91.4058 125.894ZM-112.394 188.857L-218.894 502.357L-215.106 503.643L-108.606 190.143L-112.394 188.857Z" fill="white" mask="url(#path-1-outside-1_47_110)"/>
</svg>
