<svg width="276" height="55" viewBox="0 0 276 55" fill="none" xmlns="http://www.w3.org/2000/svg">
<path d="M15.9 1.21V2.98H9.24V22H7.2V2.98H0.54V1.21H15.9ZM32.4555 1.21H34.4955V22H32.4555V12.01H21.1755V22H19.1355V1.21H21.1755V10.24H32.4555V1.21ZM39.907 22V1.21H51.907V2.98H41.947V10.21H50.827V11.95H41.947V20.23H52.687V22H39.907ZM63.3738 22V1.21H75.3738V2.98H65.4138V10.21H74.2938V11.95H65.4138V20.23H76.1538V22H63.3738ZM91.8345 20.23V22H80.0145V1.21H82.0545V20.23H91.8345ZM95.073 22V1.21H107.073V2.98H97.113V10.21H105.993V11.95H97.113V20.23H107.853V22H95.073ZM124.176 12.16H126.216V21.43C125.836 21.59 125.086 21.79 123.966 22.03C122.866 22.29 121.506 22.42 119.886 22.42C118.526 22.42 117.266 22.18 116.106 21.7C114.946 21.22 113.936 20.53 113.076 19.63C112.236 18.71 111.576 17.58 111.096 16.24C110.616 14.88 110.376 13.33 110.376 11.59C110.376 9.85 110.636 8.31 111.156 6.97C111.676 5.61 112.376 4.48 113.256 3.58C114.156 2.66 115.196 1.96 116.376 1.48C117.556 1 118.816 0.76 120.156 0.76C121.696 0.76 122.966 0.929999 123.966 1.27C124.966 1.59 125.696 1.9 126.156 2.2L125.466 3.94C124.906 3.54 124.146 3.22 123.186 2.98C122.226 2.72 121.186 2.59 120.066 2.59C119.026 2.59 118.046 2.78 117.126 3.16C116.206 3.54 115.406 4.11 114.726 4.87C114.046 5.63 113.506 6.57 113.106 7.69C112.726 8.81 112.536 10.11 112.536 11.59C112.536 12.97 112.696 14.22 113.016 15.34C113.336 16.44 113.816 17.39 114.456 18.19C115.116 18.97 115.926 19.57 116.886 19.99C117.846 20.41 118.956 20.62 120.216 20.62C121.236 20.62 122.086 20.57 122.766 20.47C123.466 20.35 123.936 20.24 124.176 20.14V12.16ZM144.942 22C144.562 20.98 144.202 20 143.862 19.06C143.522 18.12 143.192 17.2 142.872 16.3H132.762C132.422 17.2 132.082 18.12 131.742 19.06C131.402 20 131.052 20.98 130.692 22H128.562C129.362 19.84 130.112 17.83 130.812 15.97C131.512 14.09 132.192 12.32 132.852 10.66C133.532 8.98 134.202 7.37 134.862 5.83C135.522 4.29 136.222 2.75 136.962 1.21H138.762C139.502 2.75 140.202 4.29 140.862 5.83C141.522 7.37 142.182 8.98 142.842 10.66C143.522 12.32 144.212 14.09 144.912 15.97C145.612 17.83 146.372 19.84 147.192 22H144.942ZM137.802 3.55C137.042 5.27 136.302 7.02 135.582 8.8C134.882 10.58 134.152 12.5 133.392 14.56H142.242C141.482 12.5 140.742 10.58 140.022 8.8C139.302 7.02 138.562 5.27 137.802 3.55ZM164.34 22C163.96 21.3 163.47 20.48 162.87 19.54C162.29 18.6 161.65 17.6 160.95 16.54C160.25 15.46 159.51 14.36 158.73 13.24C157.95 12.1 157.17 11 156.39 9.94C155.63 8.86 154.88 7.85 154.14 6.91C153.42 5.97 152.77 5.16 152.19 4.48V22H150.18V1.21H151.8C152.82 2.35 153.91 3.67 155.07 5.17C156.25 6.65 157.4 8.17 158.52 9.73C159.64 11.27 160.68 12.78 161.64 14.26C162.62 15.74 163.42 17.03 164.04 18.13V1.21H166.05V22H164.34ZM184.65 1.21V2.98H177.99V22H175.95V2.98H169.29V1.21H184.65ZM207.912 1.21V2.98H201.252V22H199.212V2.98H192.552V1.21H207.912ZM223.575 22C223.195 20.98 222.835 20 222.495 19.06C222.155 18.12 221.825 17.2 221.505 16.3H211.395C211.055 17.2 210.715 18.12 210.375 19.06C210.035 20 209.685 20.98 209.325 22H207.195C207.995 19.84 208.745 17.83 209.445 15.97C210.145 14.09 210.825 12.32 211.485 10.66C212.165 8.98 212.835 7.37 213.495 5.83C214.155 4.29 214.855 2.75 215.595 1.21H217.395C218.135 2.75 218.835 4.29 219.495 5.83C220.155 7.37 220.815 8.98 221.475 10.66C222.155 12.32 222.845 14.09 223.545 15.97C224.245 17.83 225.005 19.84 225.825 22H223.575ZM216.435 3.55C215.675 5.27 214.935 7.02 214.215 8.8C213.515 10.58 212.785 12.5 212.025 14.56H220.875C220.115 12.5 219.375 10.58 218.655 8.8C217.935 7.02 217.195 5.27 216.435 3.55ZM233.793 22.18C233.453 22.18 233.053 22.16 232.593 22.12C232.153 22.1 231.693 22.06 231.213 22C230.753 21.96 230.313 21.91 229.893 21.85C229.473 21.77 229.113 21.69 228.813 21.61V1.6C229.173 1.5 229.573 1.42 230.013 1.36C230.453 1.28 230.903 1.22 231.363 1.18C231.843 1.12 232.303 1.08 232.743 1.06C233.203 1.04 233.623 1.03 234.003 1.03C235.123 1.03 236.183 1.12 237.183 1.3C238.203 1.48 239.093 1.78 239.853 2.2C240.613 2.62 241.213 3.18 241.653 3.88C242.113 4.56 242.343 5.41 242.343 6.43C242.343 7.55 242.053 8.51 241.473 9.31C240.913 10.09 240.153 10.63 239.193 10.93C239.793 11.07 240.343 11.27 240.843 11.53C241.343 11.79 241.783 12.13 242.163 12.55C242.543 12.95 242.833 13.45 243.033 14.05C243.253 14.63 243.363 15.33 243.363 16.15C243.363 18.11 242.583 19.61 241.023 20.65C239.463 21.67 237.053 22.18 233.793 22.18ZM230.853 12.04V20.23C231.153 20.27 231.603 20.32 232.203 20.38C232.803 20.42 233.413 20.44 234.033 20.44C234.953 20.44 235.843 20.38 236.703 20.26C237.583 20.14 238.353 19.92 239.013 19.6C239.673 19.28 240.203 18.84 240.603 18.28C241.003 17.72 241.203 17 241.203 16.12C241.203 15.32 241.063 14.66 240.783 14.14C240.503 13.6 240.103 13.18 239.583 12.88C239.063 12.56 238.423 12.34 237.663 12.22C236.923 12.1 236.093 12.04 235.173 12.04H230.853ZM230.853 10.3H234.813C235.553 10.3 236.253 10.25 236.913 10.15C237.573 10.03 238.143 9.83 238.623 9.55C239.123 9.25 239.513 8.86 239.793 8.38C240.073 7.88 240.213 7.25 240.213 6.49C240.213 5.81 240.063 5.24 239.763 4.78C239.463 4.3 239.033 3.91 238.473 3.61C237.933 3.31 237.283 3.1 236.523 2.98C235.763 2.84 234.923 2.77 234.003 2.77C233.263 2.77 232.633 2.79 232.113 2.83C231.613 2.87 231.193 2.92 230.853 2.98V10.3ZM259.53 20.23V22H247.71V1.21H249.75V20.23H259.53ZM262.768 22V1.21H274.768V2.98H264.808V10.21H273.688V11.95H264.808V20.23H275.548V22H262.768ZM11.27 48.002C11.27 48.1327 11.2047 48.198 11.074 48.198H10.5C10.3693 48.198 10.304 48.1327 10.304 48.002V41.632C10.304 41.5013 10.3693 41.436 10.5 41.436H11.074C11.2047 41.436 11.27 41.5013 11.27 41.632V48.002ZM7.798 44.796C7.798 45.2347 7.70933 45.6407 7.532 46.014C7.364 46.378 7.13067 46.6953 6.832 46.966C6.53333 47.2367 6.18333 47.4513 5.782 47.61C5.38067 47.7593 4.95133 47.834 4.494 47.834C4.046 47.834 3.626 47.7593 3.234 47.61C2.85133 47.4607 2.51067 47.2553 2.212 46.994C1.92267 46.7233 1.694 46.4013 1.526 46.028C1.358 45.6547 1.274 45.244 1.274 44.796C1.274 44.32 1.358 43.8953 1.526 43.522C1.694 43.1393 1.92267 42.8173 2.212 42.556C2.51067 42.2947 2.85133 42.094 3.234 41.954C3.626 41.814 4.046 41.744 4.494 41.744C4.914 41.744 5.32 41.814 5.712 41.954C6.11333 42.094 6.468 42.2947 6.776 42.556C7.084 42.8173 7.33133 43.1393 7.518 43.522C7.70467 43.8953 7.798 44.32 7.798 44.796ZM6.818 44.782C6.818 44.4367 6.75267 44.1287 6.622 43.858C6.49133 43.5873 6.31867 43.3633 6.104 43.186C5.88933 43.0087 5.642 42.8733 5.362 42.78C5.082 42.6867 4.79267 42.64 4.494 42.64C4.186 42.64 3.892 42.6867 3.612 42.78C3.34133 42.864 3.10333 42.9947 2.898 43.172C2.702 43.3493 2.54333 43.5733 2.422 43.844C2.31 44.1147 2.254 44.4273 2.254 44.782C2.254 45.118 2.31 45.4213 2.422 45.692C2.534 45.9533 2.688 46.182 2.884 46.378C3.08933 46.5647 3.32733 46.7093 3.598 46.812C3.86867 46.9053 4.16733 46.952 4.494 46.952C4.79267 46.952 5.082 46.9053 5.362 46.812C5.642 46.7093 5.88933 46.5647 6.104 46.378C6.31867 46.1913 6.49133 45.9627 6.622 45.692C6.75267 45.4213 6.818 45.118 6.818 44.782ZM11.564 54.218C11.564 54.2647 11.5407 54.302 11.494 54.33C11.4567 54.3673 11.4193 54.386 11.382 54.386H4.34C3.90133 54.386 3.612 54.302 3.472 54.134C3.34133 53.9753 3.276 53.7 3.276 53.308V52.258C3.276 51.866 3.35533 51.6047 3.514 51.474C3.682 51.334 3.976 51.264 4.396 51.264H9.996C10.1267 51.264 10.2107 51.2453 10.248 51.208C10.2853 51.1707 10.304 51.082 10.304 50.942V50.144C10.304 50.004 10.2853 49.9153 10.248 49.878C10.22 49.8407 10.1407 49.822 10.01 49.822H3.444C3.39733 49.822 3.35067 49.808 3.304 49.78C3.26667 49.752 3.248 49.7147 3.248 49.668V49.164C3.248 49.1173 3.26667 49.08 3.304 49.052C3.35067 49.024 3.39733 49.01 3.444 49.01H10.164C10.388 49.01 10.57 49.0287 10.71 49.066C10.85 49.094 10.962 49.1453 11.046 49.22C11.13 49.2947 11.186 49.402 11.214 49.542C11.2513 49.6727 11.27 49.836 11.27 50.032V51.082C11.27 51.474 11.186 51.74 11.018 51.88C10.8593 52.0107 10.57 52.076 10.15 52.076H4.536C4.40533 52.076 4.32133 52.0947 4.284 52.132C4.256 52.1693 4.242 52.258 4.242 52.398V53.252C4.242 53.3827 4.26067 53.4667 4.298 53.504C4.33533 53.5507 4.41933 53.574 4.55 53.574H11.368C11.4147 53.574 11.4567 53.588 11.494 53.616C11.5407 53.644 11.564 53.6813 11.564 53.728V54.218ZM15.588 51.838C15.588 51.446 15.686 51.096 15.882 50.788C16.078 50.4707 16.3533 50.2047 16.708 49.99C17.0627 49.766 17.4873 49.598 17.982 49.486C18.4767 49.3647 19.0273 49.304 19.634 49.304C20.194 49.304 20.7167 49.3647 21.202 49.486C21.6967 49.598 22.126 49.7613 22.49 49.976C22.8633 50.1907 23.1573 50.4567 23.372 50.774C23.5867 51.082 23.694 51.4367 23.694 51.838C23.694 52.2393 23.5867 52.5987 23.372 52.916C23.1573 53.2333 22.8633 53.4993 22.49 53.714C22.126 53.938 21.6967 54.106 21.202 54.218C20.7167 54.3393 20.194 54.4 19.634 54.4C19.0273 54.4 18.4767 54.3393 17.982 54.218C17.4873 54.106 17.0627 53.938 16.708 53.714C16.3533 53.4993 16.078 53.2333 15.882 52.916C15.686 52.5987 15.588 52.2393 15.588 51.838ZM16.582 51.88C16.582 52.1507 16.6567 52.3933 16.806 52.608C16.9553 52.8133 17.1607 52.986 17.422 53.126C17.6927 53.266 18.0147 53.3733 18.388 53.448C18.7613 53.5227 19.172 53.56 19.62 53.56C20.0213 53.56 20.4087 53.5227 20.782 53.448C21.1553 53.3733 21.482 53.266 21.762 53.126C22.0513 52.986 22.28 52.8133 22.448 52.608C22.616 52.3933 22.7 52.1507 22.7 51.88C22.7 51.6 22.616 51.3527 22.448 51.138C22.28 50.9233 22.0513 50.746 21.762 50.606C21.482 50.4567 21.1553 50.3447 20.782 50.27C20.4087 50.186 20.0213 50.144 19.62 50.144C19.172 50.144 18.7613 50.186 18.388 50.27C18.0147 50.3447 17.6927 50.4567 17.422 50.606C17.1607 50.746 16.9553 50.9233 16.806 51.138C16.6567 51.3527 16.582 51.6 16.582 51.88ZM17.87 41.94C17.87 42.6213 17.8 43.256 17.66 43.844C17.772 44.236 17.926 44.6093 18.122 44.964C18.3273 45.3187 18.5653 45.65 18.836 45.958C19.1067 46.266 19.4007 46.546 19.718 46.798C20.0447 47.0407 20.3853 47.246 20.74 47.414C20.796 47.442 20.8193 47.484 20.81 47.54C20.81 47.5867 20.8007 47.6287 20.782 47.666L20.488 48.128C20.46 48.1747 20.4273 48.2073 20.39 48.226C20.3527 48.2447 20.292 48.2307 20.208 48.184C19.9933 48.072 19.746 47.9227 19.466 47.736C19.1953 47.54 18.92 47.3113 18.64 47.05C18.36 46.7887 18.094 46.504 17.842 46.196C17.59 45.8787 17.38 45.552 17.212 45.216C16.904 45.9253 16.4887 46.5693 15.966 47.148C15.4433 47.7267 14.832 48.2447 14.132 48.702C14.0853 48.73 14.034 48.7487 13.978 48.758C13.922 48.7673 13.8753 48.7487 13.838 48.702L13.488 48.24C13.46 48.2027 13.4553 48.156 13.474 48.1C13.4927 48.044 13.5253 48.002 13.572 47.974C14.6827 47.2927 15.518 46.434 16.078 45.398C16.638 44.362 16.9087 43.2047 16.89 41.926C16.89 41.7767 16.946 41.702 17.058 41.702L17.716 41.744C17.8187 41.744 17.87 41.8093 17.87 41.94ZM23.526 49.038C23.526 49.1687 23.4607 49.234 23.33 49.234H22.756C22.6253 49.234 22.56 49.1687 22.56 49.038V41.632C22.56 41.5013 22.6253 41.436 22.756 41.436H23.33C23.4607 41.436 23.526 41.5013 23.526 41.632V45.006H25.458C25.514 45.006 25.5607 45.0247 25.598 45.062C25.6447 45.09 25.668 45.132 25.668 45.188V45.664C25.668 45.7107 25.6447 45.7527 25.598 45.79C25.5607 45.8273 25.514 45.846 25.458 45.846H23.526V49.038ZM41.5259 47.834C41.5725 47.834 41.6192 47.8527 41.6659 47.89C41.7125 47.918 41.7359 47.96 41.7359 48.016V48.492C41.7359 48.5387 41.7125 48.5807 41.6659 48.618C41.6192 48.6553 41.5725 48.674 41.5259 48.674H29.6259C29.5699 48.674 29.5185 48.6553 29.4719 48.618C29.4345 48.5807 29.4159 48.5387 29.4159 48.492V48.002C29.4159 47.946 29.4345 47.904 29.4719 47.876C29.5185 47.848 29.5699 47.834 29.6259 47.834H35.0439V45.916C35.0439 45.7853 35.1092 45.72 35.2399 45.72H35.8139C35.9445 45.72 36.0099 45.7853 36.0099 45.916V47.834H41.5259ZM36.0659 41.73C36.0472 41.8047 36.0285 41.884 36.0099 41.968C36.0005 42.0427 35.9865 42.1173 35.9679 42.192C36.0145 42.332 36.0705 42.4533 36.1359 42.556C36.3039 42.8547 36.5325 43.1487 36.8219 43.438C37.1112 43.7273 37.4425 43.998 37.8159 44.25C38.1985 44.4927 38.6139 44.712 39.0619 44.908C39.5192 45.0947 39.9952 45.244 40.4899 45.356C40.5459 45.3747 40.5785 45.4073 40.5879 45.454C40.5972 45.5007 40.5925 45.5473 40.5739 45.594L40.3359 46.07C40.3172 46.1167 40.2892 46.154 40.2519 46.182C40.2239 46.2007 40.1632 46.2007 40.0699 46.182C39.5752 46.0607 39.0992 45.8973 38.6419 45.692C38.1845 45.4867 37.7599 45.2533 37.3679 44.992C36.9759 44.7307 36.6165 44.446 36.2899 44.138C35.9725 43.83 35.7112 43.5127 35.5059 43.186C35.0952 43.858 34.5025 44.4693 33.7279 45.02C32.9625 45.5707 32.0665 45.9953 31.0399 46.294C30.8905 46.3313 30.7972 46.308 30.7599 46.224L30.5499 45.72C30.5312 45.6733 30.5265 45.622 30.5359 45.566C30.5545 45.51 30.5965 45.4727 30.6619 45.454C31.2872 45.286 31.8612 45.0667 32.3839 44.796C32.9065 44.516 33.3592 44.208 33.7419 43.872C34.1339 43.5267 34.4465 43.1627 34.6799 42.78C34.9132 42.3973 35.0532 42.0147 35.0999 41.632C35.1185 41.5013 35.1792 41.4453 35.2819 41.464L35.9119 41.534C36.0239 41.5527 36.0752 41.618 36.0659 41.73ZM31.0679 50.396C31.0679 50.34 31.0912 50.298 31.1379 50.27C31.1845 50.242 31.2312 50.228 31.2779 50.228H38.7119C39.1505 50.228 39.4352 50.312 39.5659 50.48C39.7059 50.6387 39.7759 50.9093 39.7759 51.292V54.288C39.7759 54.4187 39.7105 54.484 39.5799 54.484H39.0059C38.8752 54.484 38.8099 54.4187 38.8099 54.288V51.362C38.8099 51.2313 38.7865 51.152 38.7399 51.124C38.7025 51.0867 38.6185 51.068 38.4879 51.068H31.2779C31.2312 51.068 31.1845 51.054 31.1379 51.026C31.0912 50.9887 31.0679 50.9467 31.0679 50.9V50.396ZM56.5157 54.148C56.5157 54.2787 56.4504 54.344 56.3197 54.344H55.7457C55.615 54.344 55.5497 54.2787 55.5497 54.148V49.22H52.5817C52.451 49.5093 52.297 49.78 52.1197 50.032C51.9424 50.284 51.7324 50.5033 51.4897 50.69C51.2564 50.8673 50.9904 51.0073 50.6917 51.11C50.393 51.2127 50.0617 51.264 49.6977 51.264C49.0817 51.264 48.559 51.1287 48.1297 50.858C47.7097 50.5873 47.369 50.2373 47.1077 49.808C46.8557 49.3693 46.6737 48.884 46.5617 48.352C46.4497 47.82 46.3937 47.2927 46.3937 46.77C46.3937 46.2193 46.4497 45.678 46.5617 45.146C46.6737 44.6047 46.8557 44.1193 47.1077 43.69C47.369 43.2607 47.7097 42.9153 48.1297 42.654C48.559 42.3927 49.0817 42.262 49.6977 42.262C50.0617 42.262 50.3884 42.3133 50.6777 42.416C50.9764 42.5093 51.2424 42.6447 51.4757 42.822C51.7184 42.9993 51.9284 43.2093 52.1057 43.452C52.283 43.6947 52.437 43.9607 52.5677 44.25H55.5497V41.632C55.5497 41.5013 55.615 41.436 55.7457 41.436H56.3197C56.4504 41.436 56.5157 41.5013 56.5157 41.632V54.148ZM52.0637 46.756C52.0637 46.336 52.017 45.9113 51.9237 45.482C51.8397 45.0527 51.7044 44.6653 51.5177 44.32C51.331 43.9747 51.0884 43.6947 50.7897 43.48C50.491 43.2653 50.127 43.158 49.6977 43.158C49.2497 43.158 48.8764 43.2653 48.5777 43.48C48.2884 43.6947 48.055 43.9747 47.8777 44.32C47.7004 44.6653 47.5744 45.0527 47.4997 45.482C47.425 45.9113 47.3877 46.336 47.3877 46.756C47.3877 47.1573 47.4204 47.5727 47.4857 48.002C47.5604 48.4313 47.6864 48.8233 47.8637 49.178C48.041 49.5233 48.279 49.808 48.5777 50.032C48.8764 50.256 49.2497 50.368 49.6977 50.368C50.127 50.368 50.491 50.256 50.7897 50.032C51.0884 49.808 51.331 49.5233 51.5177 49.178C51.7044 48.8233 51.8397 48.4313 51.9237 48.002C52.017 47.5727 52.0637 47.1573 52.0637 46.756ZM53.0577 46.77C53.0577 47.3207 52.9877 47.862 52.8477 48.394H55.5497V45.076H52.8477C52.9877 45.6267 53.0577 46.1913 53.0577 46.77ZM64.5437 47.162C64.0677 47.162 63.5637 47.1107 63.0317 47.008C62.5091 46.9053 62.0237 46.7467 61.5757 46.532C61.1371 46.308 60.7731 46.0187 60.4837 45.664C60.2037 45.3093 60.0637 44.88 60.0637 44.376C60.0637 43.872 60.2037 43.4427 60.4837 43.088C60.7731 42.7333 61.1371 42.4487 61.5757 42.234C62.0237 42.01 62.5091 41.8513 63.0317 41.758C63.5637 41.6553 64.0677 41.604 64.5437 41.604C65.0291 41.604 65.5377 41.6553 66.0697 41.758C66.6017 41.8513 67.0824 42.01 67.5117 42.234C67.9504 42.4487 68.3097 42.7333 68.5897 43.088C68.8791 43.4427 69.0237 43.872 69.0237 44.376C69.0237 44.88 68.8791 45.3093 68.5897 45.664C68.3097 46.0187 67.9504 46.308 67.5117 46.532C67.0824 46.7467 66.6017 46.9053 66.0697 47.008C65.5377 47.1107 65.0291 47.162 64.5437 47.162ZM64.5437 42.486C64.2171 42.486 63.8531 42.514 63.4517 42.57C63.0597 42.6167 62.6864 42.71 62.3317 42.85C61.9864 42.99 61.6924 43.186 61.4497 43.438C61.2164 43.6807 61.0997 43.998 61.0997 44.39C61.0997 44.782 61.2164 45.0993 61.4497 45.342C61.6924 45.5847 61.9864 45.776 62.3317 45.916C62.6864 46.056 63.0597 46.154 63.4517 46.21C63.8531 46.2567 64.2171 46.28 64.5437 46.28C64.8611 46.28 65.2157 46.2567 65.6077 46.21C66.0091 46.154 66.3824 46.056 66.7277 45.916C67.0824 45.776 67.3811 45.5847 67.6237 45.342C67.8664 45.0993 67.9877 44.782 67.9877 44.39C67.9877 43.998 67.8664 43.6807 67.6237 43.438C67.3811 43.186 67.0824 42.99 66.7277 42.85C66.3824 42.71 66.0091 42.6167 65.6077 42.57C65.2157 42.514 64.8611 42.486 64.5437 42.486ZM62.0377 54.26C61.9911 54.26 61.9491 54.2367 61.9117 54.19C61.8744 54.1527 61.8557 54.106 61.8557 54.05V49.514H58.6217C58.5657 49.514 58.5144 49.4953 58.4677 49.458C58.4304 49.4207 58.4117 49.3787 58.4117 49.332V48.856C58.4117 48.8 58.4304 48.758 58.4677 48.73C58.5144 48.6927 58.5657 48.674 58.6217 48.674H70.5217C70.5684 48.674 70.6151 48.6927 70.6617 48.73C70.7084 48.758 70.7317 48.8 70.7317 48.856V49.332C70.7317 49.3787 70.7084 49.4207 70.6617 49.458C70.6151 49.4953 70.5684 49.514 70.5217 49.514H67.1617V54.05C67.1617 54.106 67.1431 54.1527 67.1057 54.19C67.0777 54.2367 67.0357 54.26 66.9797 54.26H66.3777C66.3311 54.26 66.2891 54.2367 66.2517 54.19C66.2144 54.1527 66.1957 54.106 66.1957 54.05V49.514H62.8217V54.05C62.8217 54.106 62.8031 54.1527 62.7657 54.19C62.7377 54.2367 62.6957 54.26 62.6397 54.26H62.0377ZM79.6837 50.438C79.8331 50.41 79.9124 50.4427 79.9217 50.536L80.0057 51.026C80.0244 51.138 79.9637 51.2033 79.8237 51.222C79.5064 51.278 79.1657 51.3293 78.8017 51.376C78.4377 51.4227 78.0691 51.4693 77.6957 51.516C77.3224 51.5533 76.9491 51.5907 76.5757 51.628C76.2024 51.656 75.8477 51.6793 75.5117 51.698C75.2504 51.7167 74.9424 51.7307 74.5877 51.74C74.2331 51.7493 73.8644 51.7587 73.4817 51.768C73.0991 51.768 72.7257 51.768 72.3617 51.768C71.9977 51.768 71.6804 51.7633 71.4097 51.754C71.3537 51.754 71.3024 51.7353 71.2557 51.698C71.2184 51.6607 71.1997 51.6187 71.1997 51.572V51.096C71.1997 51.04 71.2184 50.998 71.2557 50.97C71.3024 50.9327 71.3537 50.914 71.4097 50.914C71.6057 50.9233 71.8391 50.9327 72.1097 50.942C72.3897 50.942 72.6837 50.942 72.9917 50.942C73.2997 50.942 73.6124 50.9373 73.9297 50.928C74.2564 50.9187 74.5644 50.9093 74.8537 50.9V48.464C74.4337 48.4173 74.0464 48.31 73.6917 48.142C73.3464 47.9647 73.0431 47.7407 72.7817 47.47C72.5297 47.1993 72.3291 46.8913 72.1797 46.546C72.0397 46.1913 71.9697 45.8133 71.9697 45.412C71.9697 44.9267 72.0537 44.4927 72.2217 44.11C72.3897 43.7273 72.6184 43.4053 72.9077 43.144C73.2064 42.8827 73.5564 42.682 73.9577 42.542C74.3684 42.402 74.8071 42.332 75.2737 42.332C75.7217 42.332 76.1464 42.402 76.5477 42.542C76.9584 42.682 77.3177 42.8873 77.6257 43.158C77.9337 43.4193 78.1764 43.7413 78.3537 44.124C78.5404 44.5067 78.6337 44.936 78.6337 45.412C78.6337 45.804 78.5637 46.1727 78.4237 46.518C78.2837 46.854 78.0877 47.1573 77.8357 47.428C77.5931 47.6893 77.2991 47.9087 76.9537 48.086C76.6084 48.2633 76.2304 48.38 75.8197 48.436V50.858C76.1277 50.8393 76.4497 50.816 76.7857 50.788C77.1311 50.76 77.4717 50.732 77.8077 50.704C78.1437 50.6667 78.4704 50.6247 78.7877 50.578C79.1144 50.5313 79.4131 50.4847 79.6837 50.438ZM77.6537 45.398C77.6537 45.0433 77.5884 44.7353 77.4577 44.474C77.3271 44.2033 77.1497 43.9793 76.9257 43.802C76.7111 43.6153 76.4591 43.4753 76.1697 43.382C75.8804 43.2887 75.5817 43.242 75.2737 43.242C74.9471 43.242 74.6437 43.2887 74.3637 43.382C74.0837 43.4753 73.8364 43.6153 73.6217 43.802C73.4164 43.9793 73.2531 44.2033 73.1317 44.474C73.0104 44.7447 72.9497 45.0527 72.9497 45.398C72.9497 45.734 73.0057 46.0373 73.1177 46.308C73.2391 46.5693 73.4024 46.798 73.6077 46.994C73.8131 47.1807 74.0557 47.3253 74.3357 47.428C74.6251 47.5307 74.9377 47.582 75.2737 47.582C75.5817 47.582 75.8804 47.5307 76.1697 47.428C76.4591 47.316 76.7111 47.162 76.9257 46.966C77.1497 46.77 77.3271 46.5413 77.4577 46.28C77.5884 46.0093 77.6537 45.7153 77.6537 45.398ZM81.5177 54.148C81.5177 54.2787 81.4524 54.344 81.3217 54.344H80.7477C80.6171 54.344 80.5517 54.2787 80.5517 54.148V41.632C80.5517 41.5013 80.6171 41.436 80.7477 41.436H81.3217C81.4524 41.436 81.5177 41.5013 81.5177 41.632V47.106H83.4497C83.5057 47.106 83.5524 47.1247 83.5897 47.162C83.6364 47.19 83.6597 47.232 83.6597 47.288V47.764C83.6597 47.8107 83.6364 47.8527 83.5897 47.89C83.5524 47.9273 83.5057 47.946 83.4497 47.946H81.5177V54.148ZM98.2856 48.17C98.2856 48.2913 98.2156 48.352 98.0756 48.352H94.0156V51.292H99.5176C99.5642 51.292 99.6109 51.3107 99.6576 51.348C99.7042 51.376 99.7276 51.418 99.7276 51.474V51.95C99.7276 51.9967 99.7042 52.0387 99.6576 52.076C99.6109 52.1133 99.5642 52.132 99.5176 52.132H87.6176C87.5616 52.132 87.5102 52.1133 87.4636 52.076C87.4262 52.0387 87.4076 51.9967 87.4076 51.95V51.474C87.4076 51.418 87.4262 51.376 87.4636 51.348C87.5102 51.3107 87.5616 51.292 87.6176 51.292H93.0496V48.352H88.8916C88.8449 48.352 88.7982 48.3333 88.7516 48.296C88.7142 48.2587 88.6956 48.212 88.6956 48.156V47.722C88.6956 47.666 88.7142 47.6193 88.7516 47.582C88.7982 47.5447 88.8449 47.526 88.8916 47.526H90.7536V43.172H89.1716C89.1249 43.172 89.0782 43.1533 89.0316 43.116C88.9942 43.0787 88.9756 43.032 88.9756 42.976V42.542C88.9756 42.486 88.9942 42.4393 89.0316 42.402C89.0782 42.3647 89.1249 42.346 89.1716 42.346H97.7956C97.9356 42.346 98.0056 42.4067 98.0056 42.528V42.99C98.0056 43.1113 97.9356 43.172 97.7956 43.172H96.2836V47.526H98.0756C98.2156 47.526 98.2856 47.5867 98.2856 47.708V48.17ZM91.7056 47.526H95.3316V43.172H91.7056V47.526ZM109.59 43.158C109.58 43.018 109.552 42.9247 109.506 42.878C109.468 42.822 109.384 42.794 109.254 42.794H102.226C102.104 42.794 102.044 42.7333 102.044 42.612V42.136C102.044 42.0147 102.104 41.954 102.226 41.954H109.464C109.902 41.954 110.192 42.0333 110.332 42.192C110.472 42.3413 110.542 42.6167 110.542 43.018C110.542 43.2607 110.528 43.578 110.5 43.97C110.481 44.362 110.448 44.7727 110.402 45.202C110.364 45.6313 110.318 46.0513 110.262 46.462C110.206 46.8727 110.15 47.218 110.094 47.498H112.264C112.31 47.498 112.357 47.5167 112.404 47.554C112.45 47.582 112.474 47.624 112.474 47.68V48.156C112.474 48.2027 112.45 48.2447 112.404 48.282C112.357 48.3193 112.31 48.338 112.264 48.338H100.364C100.308 48.338 100.256 48.3193 100.21 48.282C100.172 48.2447 100.154 48.2027 100.154 48.156V47.68C100.154 47.624 100.172 47.582 100.21 47.554C100.256 47.5167 100.308 47.498 100.364 47.498H109.198C109.263 47.1807 109.319 46.8213 109.366 46.42C109.422 46.0187 109.468 45.6173 109.506 45.216C109.543 44.8053 109.566 44.418 109.576 44.054C109.594 43.69 109.599 43.3913 109.59 43.158ZM110.906 53.924C110.906 53.98 110.882 54.022 110.836 54.05C110.789 54.078 110.742 54.092 110.696 54.092H103.108C102.669 54.092 102.38 53.9987 102.24 53.812C102.109 53.6347 102.044 53.3547 102.044 52.972V49.976C102.044 49.8453 102.109 49.78 102.24 49.78H102.8C102.93 49.78 102.996 49.8453 102.996 49.976V52.958C102.996 53.0887 103.014 53.168 103.052 53.196C103.098 53.2333 103.187 53.252 103.318 53.252H110.696C110.742 53.252 110.789 53.266 110.836 53.294C110.882 53.3313 110.906 53.3733 110.906 53.42V53.924ZM115.28 51.292C115.28 50.9 115.354 50.6387 115.504 50.508C115.653 50.368 115.933 50.298 116.344 50.298H122.21C122.434 50.298 122.611 50.312 122.742 50.34C122.882 50.368 122.989 50.4193 123.064 50.494C123.148 50.5687 123.204 50.6713 123.232 50.802C123.26 50.9327 123.274 51.096 123.274 51.292V53.238C123.274 53.63 123.199 53.8913 123.05 54.022C122.9 54.162 122.62 54.232 122.21 54.232H116.344C116.12 54.232 115.938 54.218 115.798 54.19C115.667 54.162 115.56 54.106 115.476 54.022C115.401 53.9473 115.35 53.8447 115.322 53.714C115.294 53.5927 115.28 53.434 115.28 53.238V51.292ZM120.208 47.106C120.208 47.442 120.128 47.75 119.97 48.03C119.82 48.3007 119.61 48.5387 119.34 48.744C119.078 48.9493 118.761 49.108 118.388 49.22C118.024 49.332 117.627 49.388 117.198 49.388C116.759 49.388 116.358 49.332 115.994 49.22C115.63 49.108 115.312 48.9493 115.042 48.744C114.771 48.5387 114.561 48.296 114.412 48.016C114.262 47.736 114.188 47.4327 114.188 47.106C114.188 46.77 114.262 46.462 114.412 46.182C114.561 45.902 114.771 45.664 115.042 45.468C115.312 45.272 115.63 45.118 115.994 45.006C116.358 44.894 116.759 44.838 117.198 44.838C117.627 44.838 118.024 44.894 118.388 45.006C118.761 45.118 119.078 45.2767 119.34 45.482C119.61 45.678 119.82 45.916 119.97 46.196C120.128 46.476 120.208 46.7793 120.208 47.106ZM116.582 51.138C116.451 51.138 116.362 51.166 116.316 51.222C116.269 51.2687 116.246 51.362 116.246 51.502V53.028C116.246 53.168 116.269 53.2613 116.316 53.308C116.362 53.364 116.451 53.392 116.582 53.392H121.972C122.102 53.392 122.191 53.364 122.238 53.308C122.284 53.2613 122.308 53.168 122.308 53.028V51.502C122.308 51.362 122.284 51.2687 122.238 51.222C122.191 51.166 122.102 51.138 121.972 51.138H116.582ZM119.27 47.106C119.27 46.882 119.218 46.6813 119.116 46.504C119.013 46.3173 118.868 46.1633 118.682 46.042C118.495 45.9113 118.276 45.8133 118.024 45.748C117.772 45.6733 117.496 45.636 117.198 45.636C116.899 45.636 116.624 45.6733 116.372 45.748C116.12 45.8133 115.9 45.9113 115.714 46.042C115.527 46.1633 115.378 46.3173 115.266 46.504C115.163 46.6813 115.112 46.882 115.112 47.106C115.112 47.33 115.163 47.5353 115.266 47.722C115.378 47.8993 115.527 48.0533 115.714 48.184C115.9 48.3147 116.12 48.4173 116.372 48.492C116.624 48.5573 116.899 48.59 117.198 48.59C117.496 48.59 117.772 48.5573 118.024 48.492C118.276 48.4173 118.495 48.3147 118.682 48.184C118.868 48.0533 119.013 47.8993 119.116 47.722C119.218 47.5353 119.27 47.33 119.27 47.106ZM123.26 49.374C123.26 49.5047 123.194 49.57 123.064 49.57H122.49C122.359 49.57 122.294 49.5047 122.294 49.374V41.632C122.294 41.5013 122.359 41.436 122.49 41.436H123.064C123.194 41.436 123.26 41.5013 123.26 41.632V45.426H125.192C125.248 45.426 125.294 45.4447 125.332 45.482C125.378 45.51 125.402 45.552 125.402 45.608V46.084C125.402 46.1307 125.378 46.1727 125.332 46.21C125.294 46.2473 125.248 46.266 125.192 46.266H123.26V49.374ZM121.286 44.026C121.286 44.1473 121.216 44.208 121.076 44.208H113.348C113.301 44.208 113.254 44.1893 113.208 44.152C113.17 44.1147 113.152 44.068 113.152 44.012V43.564C113.152 43.508 113.17 43.4613 113.208 43.424C113.254 43.3867 113.301 43.368 113.348 43.368H121.076C121.216 43.368 121.286 43.4287 121.286 43.55V44.026ZM119.242 42.304C119.242 42.4347 119.172 42.5 119.032 42.5H115.196C115.149 42.5 115.102 42.486 115.056 42.458C115.018 42.4207 115 42.374 115 42.318V41.842C115 41.786 115.018 41.7393 115.056 41.702C115.093 41.6647 115.135 41.646 115.182 41.646H119.032C119.172 41.646 119.242 41.7113 119.242 41.842V42.304ZM131.792 46.098C131.353 46.098 130.882 46.0653 130.378 46C129.874 45.9347 129.407 45.8133 128.978 45.636C128.548 45.4493 128.194 45.202 127.914 44.894C127.634 44.586 127.494 44.1847 127.494 43.69C127.494 43.2047 127.634 42.808 127.914 42.5C128.194 42.192 128.548 41.9493 128.978 41.772C129.407 41.5947 129.874 41.4733 130.378 41.408C130.882 41.3333 131.353 41.296 131.792 41.296C132.249 41.296 132.73 41.3287 133.234 41.394C133.738 41.4593 134.2 41.5807 134.62 41.758C135.049 41.9353 135.399 42.1827 135.67 42.5C135.95 42.808 136.09 43.2047 136.09 43.69C136.09 44.1847 135.95 44.586 135.67 44.894C135.39 45.202 135.035 45.4493 134.606 45.636C134.186 45.8133 133.724 45.9347 133.22 46C132.716 46.0653 132.24 46.098 131.792 46.098ZM131.792 42.15C131.493 42.15 131.152 42.1687 130.77 42.206C130.396 42.2433 130.042 42.318 129.706 42.43C129.37 42.542 129.085 42.7007 128.852 42.906C128.628 43.1113 128.516 43.3773 128.516 43.704C128.516 44.0307 128.628 44.2967 128.852 44.502C129.085 44.698 129.37 44.852 129.706 44.964C130.042 45.076 130.396 45.1507 130.77 45.188C131.152 45.2253 131.493 45.244 131.792 45.244C132.09 45.244 132.426 45.2253 132.8 45.188C133.182 45.1507 133.542 45.076 133.878 44.964C134.214 44.852 134.494 44.698 134.718 44.502C134.951 44.2967 135.068 44.0307 135.068 43.704C135.068 43.3773 134.951 43.1113 134.718 42.906C134.484 42.7007 134.2 42.542 133.864 42.43C133.528 42.318 133.168 42.2433 132.786 42.206C132.412 42.1687 132.081 42.15 131.792 42.15ZM137.756 46.952C137.802 46.952 137.849 46.9707 137.896 47.008C137.942 47.036 137.966 47.078 137.966 47.134V47.61C137.966 47.6567 137.942 47.6987 137.896 47.736C137.849 47.7733 137.802 47.792 137.756 47.792H125.856C125.8 47.792 125.748 47.7733 125.702 47.736C125.664 47.6987 125.646 47.6567 125.646 47.61V47.134C125.646 47.078 125.664 47.036 125.702 47.008C125.748 46.9707 125.8 46.952 125.856 46.952H137.756ZM136.286 54.092C136.286 54.1387 136.262 54.176 136.216 54.204C136.178 54.2413 136.141 54.26 136.104 54.26H128.656C128.217 54.26 127.928 54.176 127.788 54.008C127.657 53.8493 127.592 53.574 127.592 53.182V52.174C127.592 51.782 127.671 51.5207 127.83 51.39C127.998 51.25 128.292 51.18 128.712 51.18H134.732C134.862 51.18 134.946 51.1613 134.984 51.124C135.021 51.0867 135.04 50.998 135.04 50.858V50.074C135.04 49.934 135.021 49.8453 134.984 49.808C134.956 49.7707 134.876 49.752 134.746 49.752H127.76C127.713 49.752 127.666 49.738 127.62 49.71C127.582 49.682 127.564 49.6447 127.564 49.598V49.108C127.564 49.0613 127.582 49.024 127.62 48.996C127.666 48.968 127.713 48.954 127.76 48.954H134.886C135.11 48.954 135.292 48.9727 135.432 49.01C135.572 49.038 135.684 49.0893 135.768 49.164C135.852 49.2387 135.908 49.346 135.936 49.486C135.973 49.6167 135.992 49.78 135.992 49.976V50.984C135.992 51.376 135.908 51.642 135.74 51.782C135.581 51.9127 135.292 51.978 134.872 51.978H128.838C128.707 51.978 128.623 51.9967 128.586 52.034C128.558 52.0713 128.544 52.16 128.544 52.3V53.126C128.544 53.2567 128.562 53.3407 128.6 53.378C128.637 53.4247 128.721 53.448 128.852 53.448H136.09C136.136 53.448 136.178 53.462 136.216 53.49C136.262 53.518 136.286 53.5553 136.286 53.602V54.092ZM150.575 49.864C150.594 49.9947 150.533 50.074 150.393 50.102C150.076 50.1767 149.656 50.256 149.133 50.34C148.611 50.4147 148.055 50.48 147.467 50.536C146.879 50.592 146.287 50.6387 145.689 50.676C145.092 50.704 144.565 50.7133 144.107 50.704C143.687 50.6947 143.398 50.5967 143.239 50.41C143.09 50.2233 143.015 49.934 143.015 49.542V43.466C143.015 43.074 143.09 42.8127 143.239 42.682C143.389 42.5513 143.669 42.486 144.079 42.486H148.895C149.017 42.486 149.077 42.542 149.077 42.654V43.158C149.077 43.27 149.017 43.326 148.895 43.326H144.261C144.131 43.326 144.051 43.3447 144.023 43.382C143.995 43.41 143.981 43.494 143.981 43.634V49.472C143.981 49.612 144.005 49.71 144.051 49.766C144.098 49.8127 144.187 49.836 144.317 49.836C144.831 49.836 145.353 49.8267 145.885 49.808C146.427 49.78 146.954 49.7427 147.467 49.696C147.981 49.64 148.471 49.5793 148.937 49.514C149.413 49.4487 149.847 49.374 150.239 49.29C150.389 49.262 150.477 49.3133 150.505 49.444L150.575 49.864ZM151.779 45.93V41.632C151.779 41.5013 151.845 41.436 151.975 41.436H152.549C152.68 41.436 152.745 41.5013 152.745 41.632V54.148C152.745 54.2787 152.68 54.344 152.549 54.344H151.975C151.845 54.344 151.779 54.2787 151.779 54.148V46.77H148.041C147.92 46.77 147.859 46.714 147.859 46.602V46.098C147.859 45.986 147.92 45.93 148.041 45.93H151.779ZM161.977 49.01C161.977 49.3927 161.898 49.7473 161.739 50.074C161.59 50.4007 161.38 50.69 161.109 50.942C160.839 51.1847 160.517 51.376 160.143 51.516C159.77 51.656 159.369 51.726 158.939 51.726C158.501 51.726 158.095 51.656 157.721 51.516C157.357 51.376 157.04 51.1847 156.769 50.942C156.499 50.6993 156.284 50.4147 156.125 50.088C155.976 49.752 155.901 49.3927 155.901 49.01C155.901 48.618 155.976 48.2587 156.125 47.932C156.284 47.596 156.499 47.3067 156.769 47.064C157.04 46.8213 157.357 46.63 157.721 46.49C158.095 46.35 158.501 46.28 158.939 46.28C159.369 46.28 159.77 46.3547 160.143 46.504C160.517 46.644 160.839 46.8353 161.109 47.078C161.38 47.3207 161.59 47.61 161.739 47.946C161.898 48.282 161.977 48.6367 161.977 49.01ZM165.001 54.148C165.001 54.2787 164.936 54.344 164.805 54.344H164.231C164.101 54.344 164.035 54.2787 164.035 54.148V41.632C164.035 41.5013 164.101 41.436 164.231 41.436H164.805C164.936 41.436 165.001 41.5013 165.001 41.632V46.798H166.933C166.989 46.798 167.036 46.8167 167.073 46.854C167.12 46.882 167.143 46.924 167.143 46.98V47.456C167.143 47.5027 167.12 47.5447 167.073 47.582C167.036 47.6193 166.989 47.638 166.933 47.638H165.001V54.148ZM161.025 49.01C161.025 48.7393 160.974 48.4873 160.871 48.254C160.769 48.0207 160.624 47.82 160.437 47.652C160.251 47.4747 160.027 47.3393 159.765 47.246C159.513 47.1433 159.238 47.092 158.939 47.092C158.641 47.092 158.361 47.1433 158.099 47.246C157.847 47.3393 157.628 47.4747 157.441 47.652C157.255 47.82 157.105 48.0207 156.993 48.254C156.891 48.4873 156.839 48.7393 156.839 49.01C156.839 49.2807 156.891 49.5327 156.993 49.766C157.105 49.99 157.255 50.1907 157.441 50.368C157.628 50.536 157.847 50.6713 158.099 50.774C158.361 50.8673 158.641 50.914 158.939 50.914C159.238 50.914 159.513 50.8673 159.765 50.774C160.027 50.6713 160.251 50.536 160.437 50.368C160.624 50.2 160.769 49.9993 160.871 49.766C160.974 49.5327 161.025 49.2807 161.025 49.01ZM163.027 45.104C163.027 45.2253 162.957 45.286 162.817 45.286H155.089C155.043 45.286 154.996 45.2673 154.949 45.23C154.912 45.1927 154.893 45.146 154.893 45.09V44.642C154.893 44.586 154.912 44.5393 154.949 44.502C154.996 44.4647 155.043 44.446 155.089 44.446H162.817C162.957 44.446 163.027 44.5067 163.027 44.628V45.104ZM160.983 42.724C160.983 42.8547 160.913 42.92 160.773 42.92H156.937C156.891 42.92 156.844 42.906 156.797 42.878C156.76 42.8407 156.741 42.794 156.741 42.738V42.262C156.741 42.206 156.76 42.1593 156.797 42.122C156.835 42.0847 156.877 42.066 156.923 42.066H160.773C160.913 42.066 160.983 42.1313 160.983 42.262V42.724ZM177.985 46.056C177.985 46.112 177.962 46.154 177.915 46.182C177.869 46.21 177.822 46.224 177.775 46.224H170.509C170.071 46.224 169.781 46.1353 169.641 45.958C169.511 45.7713 169.445 45.4867 169.445 45.104V41.87C169.445 41.7393 169.511 41.674 169.641 41.674H170.215C170.346 41.674 170.411 41.7393 170.411 41.87V45.076C170.411 45.2067 170.43 45.2907 170.467 45.328C170.514 45.3653 170.603 45.384 170.733 45.384H177.775C177.822 45.384 177.869 45.4027 177.915 45.44C177.962 45.468 177.985 45.5053 177.985 45.552V46.056ZM178.195 53.924C178.195 53.98 178.172 54.022 178.125 54.05C178.079 54.078 178.032 54.092 177.985 54.092H170.383C169.945 54.092 169.655 53.9987 169.515 53.812C169.385 53.6347 169.319 53.3547 169.319 52.972V50.242C169.319 50.1113 169.385 50.046 169.515 50.046H170.089C170.22 50.046 170.285 50.1113 170.285 50.242V52.958C170.285 53.0887 170.304 53.168 170.341 53.196C170.388 53.2333 170.477 53.252 170.607 53.252H177.985C178.032 53.252 178.079 53.266 178.125 53.294C178.172 53.3313 178.195 53.3733 178.195 53.42V53.924ZM179.497 48.1C179.544 48.1 179.591 48.1187 179.637 48.156C179.684 48.184 179.707 48.226 179.707 48.282V48.758C179.707 48.8047 179.684 48.8467 179.637 48.884C179.591 48.9213 179.544 48.94 179.497 48.94H167.597C167.541 48.94 167.49 48.9213 167.443 48.884C167.406 48.8467 167.387 48.8047 167.387 48.758V48.282C167.387 48.226 167.406 48.184 167.443 48.156C167.49 48.1187 167.541 48.1 167.597 48.1H179.497ZM186.003 50.592C186.003 50.2 186.078 49.9387 186.227 49.808C186.377 49.668 186.657 49.598 187.067 49.598H192.933C193.157 49.598 193.335 49.612 193.465 49.64C193.605 49.668 193.713 49.7193 193.787 49.794C193.871 49.8687 193.927 49.9713 193.955 50.102C193.983 50.2327 193.997 50.396 193.997 50.592V53.238C193.997 53.63 193.923 53.8913 193.773 54.022C193.624 54.162 193.344 54.232 192.933 54.232H187.067C186.843 54.232 186.661 54.218 186.521 54.19C186.391 54.162 186.283 54.106 186.199 54.022C186.125 53.9473 186.073 53.8447 186.045 53.714C186.017 53.5927 186.003 53.434 186.003 53.238V50.592ZM187.305 50.438C187.175 50.438 187.086 50.466 187.039 50.522C186.993 50.5687 186.969 50.662 186.969 50.802V53.028C186.969 53.168 186.993 53.2613 187.039 53.308C187.086 53.364 187.175 53.392 187.305 53.392H192.695C192.826 53.392 192.915 53.364 192.961 53.308C193.008 53.2613 193.031 53.168 193.031 53.028V50.802C193.031 50.662 193.008 50.5687 192.961 50.522C192.915 50.466 192.826 50.438 192.695 50.438H187.305ZM190.413 43.032C190.199 44.3293 189.634 45.4727 188.719 46.462C187.805 47.4513 186.479 48.31 184.743 49.038C184.585 49.1033 184.482 49.0753 184.435 48.954L184.225 48.492C184.188 48.4173 184.183 48.3567 184.211 48.31C184.249 48.2633 184.291 48.2307 184.337 48.212C185.821 47.596 186.983 46.868 187.823 46.028C188.673 45.1787 189.186 44.264 189.363 43.284C189.419 43.0133 189.307 42.878 189.027 42.878H184.715C184.603 42.878 184.547 42.8173 184.547 42.696V42.206C184.547 42.094 184.603 42.038 184.715 42.038H189.349C189.797 42.038 190.101 42.1173 190.259 42.276C190.418 42.4347 190.469 42.6867 190.413 43.032ZM193.997 48.66C193.997 48.7907 193.932 48.856 193.801 48.856H193.227C193.097 48.856 193.031 48.7907 193.031 48.66V41.632C193.031 41.5013 193.097 41.436 193.227 41.436H193.801C193.932 41.436 193.997 41.5013 193.997 41.632V44.978H195.929C195.985 44.978 196.032 44.9967 196.069 45.034C196.116 45.062 196.139 45.104 196.139 45.16V45.636C196.139 45.6827 196.116 45.7247 196.069 45.762C196.032 45.7993 195.985 45.818 195.929 45.818H193.997V48.66ZM203.159 43.102C202.945 44.3993 202.38 45.5427 201.465 46.532C200.551 47.5213 199.225 48.38 197.489 49.108C197.34 49.1733 197.237 49.1453 197.181 49.024L196.971 48.562C196.934 48.4873 196.929 48.4267 196.957 48.38C196.995 48.3333 197.037 48.3007 197.083 48.282C198.567 47.666 199.729 46.9333 200.569 46.084C201.419 45.2347 201.932 44.32 202.109 43.34C202.165 43.0787 202.053 42.948 201.773 42.948H197.461C197.349 42.948 197.293 42.8873 197.293 42.766V42.276C197.293 42.164 197.349 42.108 197.461 42.108H202.095C202.543 42.108 202.847 42.1873 203.005 42.346C203.164 42.5047 203.215 42.7567 203.159 43.102ZM198.581 49.836C198.581 49.78 198.605 49.738 198.651 49.71C198.698 49.682 198.745 49.668 198.791 49.668H205.679C206.118 49.668 206.403 49.752 206.533 49.92C206.673 50.0787 206.743 50.3493 206.743 50.732V54.204C206.743 54.3347 206.678 54.4 206.547 54.4H205.973C205.843 54.4 205.777 54.3347 205.777 54.204V50.802C205.777 50.6713 205.754 50.592 205.707 50.564C205.67 50.5267 205.586 50.508 205.455 50.508H198.791C198.745 50.508 198.698 50.494 198.651 50.466C198.605 50.4287 198.581 50.3867 198.581 50.34V49.836ZM206.743 48.744C206.743 48.8747 206.678 48.94 206.547 48.94H205.973C205.843 48.94 205.777 48.8747 205.777 48.744V41.632C205.777 41.5013 205.843 41.436 205.973 41.436H206.547C206.678 41.436 206.743 41.5013 206.743 41.632V45.02H208.675C208.731 45.02 208.778 45.0387 208.815 45.076C208.862 45.104 208.885 45.146 208.885 45.202V45.678C208.885 45.7247 208.862 45.7667 208.815 45.804C208.778 45.8413 208.731 45.86 208.675 45.86H206.743V48.744ZM215.947 43.27C215.817 43.6527 215.63 44.0307 215.387 44.404C215.154 44.7773 214.874 45.146 214.547 45.51C214.865 45.846 215.257 46.168 215.723 46.476C216.19 46.7747 216.699 47.0407 217.249 47.274C217.324 47.302 217.366 47.344 217.375 47.4C217.385 47.4467 217.375 47.4933 217.347 47.54L217.067 48.044C217.039 48.0907 216.997 48.1187 216.941 48.128C216.885 48.128 216.834 48.1187 216.787 48.1C216.582 48.0067 216.358 47.8947 216.115 47.764C215.882 47.6333 215.639 47.484 215.387 47.316C215.135 47.148 214.883 46.966 214.631 46.77C214.389 46.574 214.16 46.3687 213.945 46.154C213.413 46.6767 212.825 47.1527 212.181 47.582C211.547 48.0113 210.903 48.3707 210.249 48.66C210.203 48.6787 210.156 48.6927 210.109 48.702C210.063 48.7113 210.025 48.6927 209.997 48.646L209.717 48.156C209.689 48.1093 209.685 48.0627 209.703 48.016C209.731 47.96 209.769 47.9227 209.815 47.904C211.019 47.3253 212.046 46.6627 212.895 45.916C213.745 45.1693 214.407 44.306 214.883 43.326C214.949 43.1953 214.958 43.102 214.911 43.046C214.865 42.99 214.776 42.962 214.645 42.962H210.543C210.431 42.962 210.375 42.9013 210.375 42.78V42.29C210.375 42.178 210.431 42.122 210.543 42.122H215.023C215.509 42.122 215.821 42.2107 215.961 42.388C216.101 42.556 216.097 42.85 215.947 43.27ZM211.817 49.906C211.817 49.85 211.841 49.808 211.887 49.78C211.934 49.752 211.981 49.738 212.027 49.738H218.915C219.354 49.738 219.639 49.822 219.769 49.99C219.909 50.1487 219.979 50.4193 219.979 50.802V54.204C219.979 54.3347 219.914 54.4 219.783 54.4H219.209C219.079 54.4 219.013 54.3347 219.013 54.204V50.872C219.013 50.7413 218.99 50.662 218.943 50.634C218.906 50.5967 218.822 50.578 218.691 50.578H212.027C211.981 50.578 211.934 50.564 211.887 50.536C211.841 50.4987 211.817 50.4567 211.817 50.41V49.906ZM219.013 44.81V41.632C219.013 41.5013 219.079 41.436 219.209 41.436H219.783C219.914 41.436 219.979 41.5013 219.979 41.632V48.772C219.979 48.9027 219.914 48.968 219.783 48.968H219.209C219.079 48.968 219.013 48.9027 219.013 48.772V45.65H216.367C216.246 45.65 216.185 45.594 216.185 45.482V44.978C216.185 44.866 216.246 44.81 216.367 44.81H219.013ZM232.725 50.564C232.725 50.6947 232.66 50.76 232.529 50.76H231.955C231.825 50.76 231.759 50.6947 231.759 50.564V41.632C231.759 41.5013 231.825 41.436 231.955 41.436H232.529C232.66 41.436 232.725 41.5013 232.725 41.632V50.564ZM233.145 53.924C233.145 53.98 233.122 54.022 233.075 54.05C233.029 54.078 232.982 54.092 232.935 54.092H225.921C225.483 54.092 225.193 54.008 225.053 53.84C224.923 53.6813 224.857 53.4107 224.857 53.028V50.284C224.857 50.1533 224.923 50.088 225.053 50.088H225.627C225.758 50.088 225.823 50.1533 225.823 50.284V52.958C225.823 53.0887 225.842 53.168 225.879 53.196C225.926 53.2333 226.015 53.252 226.145 53.252H232.935C232.982 53.252 233.029 53.266 233.075 53.294C233.122 53.3313 233.145 53.3733 233.145 53.42V53.924ZM229.295 45.314C229.295 45.7993 229.211 46.2473 229.043 46.658C228.875 47.0593 228.642 47.4047 228.343 47.694C228.045 47.9833 227.69 48.212 227.279 48.38C226.878 48.5387 226.439 48.618 225.963 48.618C225.506 48.618 225.077 48.5387 224.675 48.38C224.274 48.2213 223.924 47.9973 223.625 47.708C223.336 47.4093 223.107 47.0593 222.939 46.658C222.771 46.2567 222.687 45.8087 222.687 45.314C222.687 44.8007 222.771 44.3387 222.939 43.928C223.107 43.5173 223.336 43.1673 223.625 42.878C223.924 42.5887 224.274 42.3693 224.675 42.22C225.077 42.0707 225.506 41.996 225.963 41.996C226.393 41.996 226.808 42.0707 227.209 42.22C227.611 42.3693 227.965 42.5887 228.273 42.878C228.581 43.158 228.829 43.5033 229.015 43.914C229.202 44.3247 229.295 44.7913 229.295 45.314ZM228.315 45.3C228.315 44.908 228.25 44.5627 228.119 44.264C227.998 43.956 227.83 43.704 227.615 43.508C227.401 43.3027 227.149 43.1487 226.859 43.046C226.579 42.9433 226.281 42.892 225.963 42.892C225.637 42.892 225.333 42.9433 225.053 43.046C224.783 43.1487 224.54 43.3027 224.325 43.508C224.12 43.704 223.957 43.956 223.835 44.264C223.723 44.5627 223.667 44.908 223.667 45.3C223.667 45.6733 223.723 46.0093 223.835 46.308C223.947 46.6067 224.106 46.8633 224.311 47.078C224.517 47.2833 224.759 47.4467 225.039 47.568C225.319 47.68 225.627 47.736 225.963 47.736C226.281 47.736 226.579 47.68 226.859 47.568C227.149 47.4467 227.401 47.2833 227.615 47.078C227.83 46.8633 227.998 46.6067 228.119 46.308C228.25 46.0093 228.315 45.6733 228.315 45.3ZM243.165 47.008C242.615 47.0547 242.129 47.0827 241.709 47.092C241.299 47.1013 240.86 47.1013 240.393 47.092H239.735V49.682C239.735 49.822 239.759 49.92 239.805 49.976C239.852 50.0227 239.941 50.046 240.071 50.046C240.865 50.0647 241.639 50.0367 242.395 49.962C243.151 49.8873 243.879 49.7753 244.579 49.626C244.729 49.598 244.817 49.6493 244.845 49.78L244.915 50.186C244.934 50.2607 244.925 50.3167 244.887 50.354C244.85 50.3913 244.803 50.4193 244.747 50.438C243.991 50.5967 243.184 50.7227 242.325 50.816C241.476 50.9 240.655 50.9327 239.861 50.914C239.441 50.9047 239.152 50.8067 238.993 50.62C238.844 50.4333 238.769 50.144 238.769 49.752V43.536C238.769 43.144 238.844 42.8827 238.993 42.752C239.143 42.6213 239.423 42.556 239.833 42.556H243.655C243.777 42.556 243.837 42.612 243.837 42.724V43.228C243.837 43.34 243.777 43.396 243.655 43.396H240.015C239.885 43.396 239.805 43.4147 239.777 43.452C239.749 43.48 239.735 43.564 239.735 43.704V46.28H240.393C240.627 46.28 240.851 46.28 241.065 46.28C241.28 46.28 241.495 46.2753 241.709 46.266C241.924 46.2567 242.148 46.2473 242.381 46.238C242.624 46.2287 242.885 46.2147 243.165 46.196C243.221 46.1867 243.263 46.2007 243.291 46.238C243.329 46.2753 243.347 46.3173 243.347 46.364V46.84C243.347 46.9333 243.287 46.9893 243.165 47.008ZM246.959 53.616C246.959 53.7467 246.894 53.812 246.763 53.812H246.231C246.101 53.812 246.035 53.7467 246.035 53.616V46.924H244.257C244.201 46.924 244.15 46.9053 244.103 46.868C244.066 46.8307 244.047 46.7887 244.047 46.742V46.266C244.047 46.21 244.066 46.168 244.103 46.14C244.15 46.1027 244.201 46.084 244.257 46.084H246.035V41.87C246.035 41.7393 246.101 41.674 246.231 41.674H246.763C246.894 41.674 246.959 41.7393 246.959 41.87V53.616ZM249.437 54.148C249.437 54.2787 249.372 54.344 249.241 54.344H248.709C248.579 54.344 248.513 54.2787 248.513 54.148V41.632C248.513 41.5013 248.579 41.436 248.709 41.436H249.241C249.372 41.436 249.437 41.5013 249.437 41.632V54.148ZM258.445 46.77C258.445 47.2927 258.38 47.82 258.249 48.352C258.128 48.884 257.932 49.3647 257.661 49.794C257.391 50.2233 257.041 50.578 256.611 50.858C256.191 51.1287 255.683 51.264 255.085 51.264C254.469 51.264 253.947 51.1287 253.517 50.858C253.097 50.5873 252.757 50.2373 252.495 49.808C252.243 49.3693 252.061 48.884 251.949 48.352C251.837 47.82 251.781 47.2927 251.781 46.77C251.781 46.2193 251.837 45.678 251.949 45.146C252.061 44.6047 252.243 44.1193 252.495 43.69C252.757 43.2607 253.097 42.9153 253.517 42.654C253.947 42.3927 254.469 42.262 255.085 42.262C255.683 42.262 256.191 42.3927 256.611 42.654C257.041 42.9153 257.391 43.2607 257.661 43.69C257.932 44.11 258.128 44.5907 258.249 45.132C258.38 45.664 258.445 46.21 258.445 46.77ZM257.451 46.756C257.451 46.3267 257.405 45.8927 257.311 45.454C257.227 45.0153 257.092 44.6233 256.905 44.278C256.719 43.9233 256.476 43.6387 256.177 43.424C255.879 43.2 255.515 43.088 255.085 43.088C254.637 43.088 254.264 43.2 253.965 43.424C253.676 43.6387 253.443 43.9233 253.265 44.278C253.088 44.6233 252.962 45.0153 252.887 45.454C252.813 45.8927 252.775 46.3267 252.775 46.756C252.775 47.1667 252.808 47.5913 252.873 48.03C252.948 48.4593 253.074 48.856 253.251 49.22C253.429 49.5747 253.667 49.8687 253.965 50.102C254.264 50.326 254.637 50.438 255.085 50.438C255.515 50.438 255.879 50.326 256.177 50.102C256.476 49.8687 256.719 49.5747 256.905 49.22C257.092 48.856 257.227 48.4593 257.311 48.03C257.405 47.5913 257.451 47.1667 257.451 46.756ZM261.721 54.148C261.721 54.2787 261.656 54.344 261.525 54.344H260.951C260.821 54.344 260.755 54.2787 260.755 54.148V41.632C260.755 41.5013 260.821 41.436 260.951 41.436H261.525C261.656 41.436 261.721 41.5013 261.721 41.632V54.148ZM275.727 47.064C275.774 47.064 275.821 47.0827 275.867 47.12C275.914 47.148 275.937 47.19 275.937 47.246V47.722C275.937 47.7687 275.914 47.8107 275.867 47.848C275.821 47.8853 275.774 47.904 275.727 47.904H263.827C263.771 47.904 263.72 47.8853 263.673 47.848C263.636 47.8107 263.617 47.7687 263.617 47.722V47.246C263.617 47.19 263.636 47.148 263.673 47.12C263.72 47.0827 263.771 47.064 263.827 47.064H275.727ZM274.257 54.092C274.257 54.1387 274.234 54.176 274.187 54.204C274.15 54.2413 274.113 54.26 274.075 54.26H266.627C266.189 54.26 265.899 54.176 265.759 54.008C265.629 53.8493 265.563 53.574 265.563 53.182V52.174C265.563 51.782 265.643 51.5207 265.801 51.39C265.969 51.25 266.263 51.18 266.683 51.18H272.703C272.834 51.18 272.918 51.1613 272.955 51.124C272.993 51.0867 273.011 50.998 273.011 50.858V50.13C273.011 49.99 272.993 49.9013 272.955 49.864C272.927 49.8267 272.848 49.808 272.717 49.808H265.731C265.685 49.808 265.638 49.794 265.591 49.766C265.554 49.738 265.535 49.7007 265.535 49.654V49.164C265.535 49.1173 265.554 49.08 265.591 49.052C265.638 49.024 265.685 49.01 265.731 49.01H272.857C273.081 49.01 273.263 49.0287 273.403 49.066C273.543 49.094 273.655 49.1453 273.739 49.22C273.823 49.2947 273.879 49.402 273.907 49.542C273.945 49.6727 273.963 49.836 273.963 50.032V50.984C273.963 51.376 273.879 51.642 273.711 51.782C273.553 51.9127 273.263 51.978 272.843 51.978H266.809C266.679 51.978 266.595 51.9967 266.557 52.034C266.529 52.0713 266.515 52.16 266.515 52.3V53.126C266.515 53.2567 266.534 53.3407 266.571 53.378C266.609 53.4247 266.693 53.448 266.823 53.448H274.061C274.108 53.448 274.15 53.462 274.187 53.49C274.234 53.518 274.257 53.5553 274.257 53.602V54.092ZM266.697 45.944C266.473 45.944 266.291 45.93 266.151 45.902C266.021 45.874 265.918 45.8227 265.843 45.748C265.769 45.664 265.717 45.5613 265.689 45.44C265.661 45.3093 265.647 45.146 265.647 44.95V41.548C265.647 41.5013 265.666 41.464 265.703 41.436C265.741 41.3987 265.783 41.38 265.829 41.38H266.431C266.478 41.38 266.515 41.3987 266.543 41.436C266.581 41.4733 266.599 41.5107 266.599 41.548V42.85H272.955V41.562C272.955 41.5153 272.969 41.4733 272.997 41.436C273.035 41.3987 273.077 41.38 273.123 41.38H273.725C273.772 41.38 273.814 41.3987 273.851 41.436C273.889 41.464 273.907 41.5013 273.907 41.548V45.048C273.907 45.4027 273.833 45.6407 273.683 45.762C273.534 45.8833 273.254 45.944 272.843 45.944H266.697ZM266.599 43.676V44.782C266.599 44.922 266.623 45.0153 266.669 45.062C266.716 45.0993 266.805 45.118 266.935 45.118H272.619C272.75 45.118 272.839 45.0993 272.885 45.062C272.932 45.0153 272.955 44.922 272.955 44.782V43.676H266.599Z" fill="#131313"/>
</svg>
