<svg width="254" height="102" viewBox="0 0 254 102" fill="none" xmlns="http://www.w3.org/2000/svg">
<g clip-path="url(#clip0_1_9)">
<path d="M0.798829 99.1598C2.31662 99.1598 3.32515 99.0198 3.84439 98.7298C4.42355 98.4198 4.70314 97.8197 5.57188 96.9197V84.1198H0.748901V83.1297H4.70314V80.6797C4.70314 78.8597 5.37217 77.2297 6.70023 75.7897C8.15811 74.2497 9.95549 73.4897 12.1024 73.4897C13.041 73.4897 13.7699 73.6197 14.2792 73.8797C14.8883 74.1897 15.1879 74.6697 15.1879 75.3298C15.1879 75.6398 14.9782 75.9297 14.5488 76.2197C14.1294 76.4997 13.6701 76.6497 13.1908 76.6497C12.7314 76.6497 12.342 76.5897 12.0125 76.4697C11.8028 76.3997 11.5132 76.2698 11.1537 76.0798C10.8242 75.9197 10.5646 75.7998 10.3849 75.7298C10.0553 75.6398 9.71584 75.5897 9.38632 75.5897C8.74725 75.5897 8.26795 75.8998 7.92844 76.5098C7.62888 77.1998 7.4791 78.2597 7.4791 79.6997V83.1397H12.8413V84.1297H7.46911V96.9297C7.46911 97.8297 7.78865 98.4297 8.42772 98.7397C9.06678 99.0197 10.3649 99.1697 12.332 99.1697V100.09H0.798829V99.1598Z" fill="#191616" stroke="#191616" stroke-width="1.5" stroke-miterlimit="10"/>
<path d="M20.8396 99.1599C21.7084 99.1599 22.3374 98.9799 22.7169 98.6299C23.0963 98.2699 23.2861 97.7099 23.2861 96.9299V77.4999C23.2861 76.9099 23.1063 76.4799 22.7568 76.2199C22.3774 75.9399 21.7383 75.7899 20.8396 75.7899L20.6998 75.2899L25.4429 73.6199V96.9199C25.4429 97.6999 25.6326 98.2699 26.0121 98.6199C26.4115 98.9699 27.0705 99.1499 27.9992 99.1499V100.07H20.8496V99.1599H20.8396Z" fill="#191616" stroke="#191616" stroke-width="1.5" stroke-miterlimit="10"/>
<path d="M47.1014 85.2597C48.4494 86.9397 49.1184 89.0497 49.1184 91.6097C49.1184 94.1197 48.4494 96.2097 47.1014 97.8897C45.5936 99.7597 43.4966 100.69 40.8305 100.69C38.1444 100.69 36.0475 99.7597 34.5596 97.8897C33.2416 96.2097 32.5725 94.1197 32.5725 91.6097C32.5725 89.0597 33.2316 86.9397 34.5596 85.2597C36.0475 83.3897 38.1344 82.4597 40.8305 82.4597C43.4966 82.4597 45.5836 83.3997 47.1014 85.2597ZM36.3371 85.8697C35.4184 87.3797 34.9491 89.2897 34.9491 91.6097C34.9491 93.8797 35.4084 95.7597 36.3271 97.2497C37.3855 98.9497 38.8833 99.7997 40.8205 99.7997C42.7377 99.7997 44.2156 98.9497 45.284 97.2497C46.2326 95.7597 46.702 93.8797 46.702 91.6097C46.702 89.2897 46.2326 87.3797 45.284 85.8697C44.2256 84.1897 42.7377 83.3497 40.8205 83.3497C38.8933 83.3497 37.3955 84.1897 36.3371 85.8697Z" fill="#191616" stroke="#191616" stroke-width="1.5" stroke-miterlimit="10"/>
<path d="M60.7815 82.7097V83.6297C59.8329 83.6297 59.2038 83.7197 58.8742 83.9097C58.5248 84.0997 58.4449 84.4397 58.6646 84.9397L63.2279 97.0297L66.7328 87.1697L65.9939 85.0397C65.7842 84.4997 65.5445 84.1097 65.2849 83.8697C64.9354 83.7097 64.3563 83.6197 63.5474 83.6197V82.6997H70.737V83.6197C69.6486 83.6197 68.9396 83.6997 68.6101 83.8697C68.3005 84.0597 68.2306 84.4097 68.4004 84.9297L73.0037 96.9997L77.1077 84.9397C77.2275 84.5097 77.1177 84.1997 76.7882 83.9797C76.3887 83.7397 75.6997 83.6197 74.7311 83.6197V82.6997H80.8522V83.6197C79.9835 83.6197 79.3045 83.7397 78.8352 83.9797C78.4058 84.1897 78.1262 84.5097 77.9864 84.9397L72.5643 100.68H71.9652L70.3675 96.5697L67.3219 88.5597L62.8584 100.69H62.2593L60.7016 96.4697L56.2381 84.9497C55.9984 84.4297 55.7188 84.0897 55.3893 83.9197C55.0398 83.7297 54.4607 83.6397 53.6519 83.6397V82.7197H60.7815V82.7097Z" fill="#191616" stroke="#191616" stroke-width="1.5" stroke-miterlimit="10"/>
<path d="M100.883 96.3597C99.9844 97.7097 98.9958 98.7197 97.9074 99.4097C96.5593 100.26 94.9417 100.69 93.0545 100.69C90.5082 100.69 88.4512 99.8497 86.8934 98.1697C85.3557 96.4697 84.5968 94.2497 84.5968 91.4997C84.5968 88.9197 85.3357 86.7797 86.8235 85.0797C88.3813 83.3297 90.3983 82.4597 92.8747 82.4597C95.2612 82.4597 97.1485 83.1897 98.5365 84.6597C99.9544 86.1697 100.663 88.2697 100.663 90.9397H86.9334C86.9334 93.8697 87.5924 96.0597 88.9205 97.4997C90.0788 98.7497 91.6265 99.3797 93.5637 99.3797C94.9816 99.3797 96.2398 99.0797 97.3482 98.4897C98.4366 97.9197 99.4352 97.0597 100.354 95.8997L100.883 96.3597ZM96.7091 84.9097C95.7905 83.8697 94.5023 83.3497 92.8547 83.3497C91.297 83.3497 89.949 83.9697 88.8206 85.1897C87.6623 86.4697 87.0332 88.0397 86.9434 89.9097H98.3068C98.177 87.6597 97.6478 85.9997 96.7091 84.9097Z" fill="#191616" stroke="#191616" stroke-width="1.5" stroke-miterlimit="10"/>
<path d="M105.117 99.1599C105.896 99.1599 106.485 99.0199 106.884 98.7299C107.334 98.4199 107.553 97.9299 107.553 97.2399V86.1099C107.553 85.4499 107.414 85.0099 107.124 84.7999C106.814 84.5599 106.215 84.4499 105.317 84.4499L105.107 83.8799L109.71 82.1399V86.6099L110.209 86.1499C111.697 84.8499 112.846 83.9399 113.644 83.4199C114.992 82.5499 116.161 82.1099 117.149 82.1099C117.649 82.1099 118.078 82.2899 118.457 82.6399C118.837 82.9899 119.027 83.3999 119.027 83.8499C119.027 84.2499 118.837 84.6299 118.457 84.9799C118.078 85.3299 117.639 85.5099 117.149 85.5099C116.84 85.5099 116.56 85.4399 116.301 85.2999C116.161 85.2299 115.971 85.1099 115.731 84.9499C115.472 84.7099 115.262 84.5799 115.092 84.5599C114.813 84.4699 114.493 84.5099 114.134 84.6999C113.545 84.9799 112.915 85.3599 112.256 85.8299C111.717 86.2299 110.858 86.9299 109.71 87.9199V97.2499C109.71 97.9599 109.87 98.4599 110.209 98.7399C110.539 99.0199 111.178 99.1699 112.127 99.1699V100.09H105.117V99.1599Z" fill="#191616" stroke="#191616" stroke-width="1.5" stroke-miterlimit="10"/>
<path d="M152.777 84.7698H160.606V85.6898C159.568 85.6898 158.789 85.8898 158.269 86.2898C157.77 86.6698 157.421 87.2998 157.211 88.1698C156.782 89.8198 156.232 91.3898 155.543 92.8498C154.765 94.4998 153.876 95.8498 152.887 96.8898C153.426 97.4298 153.976 97.8498 154.515 98.1298C155.124 98.4798 155.733 98.6598 156.322 98.6598C157.481 98.6598 158.409 98.5198 159.118 98.2398C159.917 97.9098 160.656 97.3398 161.315 96.5398L161.744 97.1098C161.015 98.1298 160.267 98.9198 159.518 99.4898C158.549 100.18 157.491 100.52 156.332 100.52C155.623 100.52 154.834 100.33 153.956 99.9498C153.057 99.5498 152.218 98.9998 151.439 98.3198C150.541 99.0098 149.512 99.5598 148.364 99.9898C147.116 100.46 145.887 100.7 144.679 100.7C142.363 100.7 140.385 99.8698 138.728 98.2198C137.17 96.7098 136.391 95.0598 136.391 93.2898C136.391 91.3798 136.911 89.7598 137.949 88.4298C139.037 87.0598 140.785 85.8398 143.191 84.7798C142.622 83.3798 142.233 82.2598 142.023 81.4098C141.763 80.4398 141.634 79.5798 141.634 78.8198C141.634 77.1898 142.143 75.8598 143.151 74.8498C144.21 73.8298 145.638 73.3198 147.435 73.3198C148.873 73.3198 150.071 73.7898 151.01 74.7398C151.959 75.6598 152.428 76.8098 152.428 78.1798C152.428 79.4298 152.029 80.5198 151.22 81.4398C150.131 82.6498 148.224 83.7698 145.488 84.8098C146.477 86.9898 147.565 89.0698 148.743 91.0498C149.902 92.9598 151.06 94.6398 152.208 96.0898C153.157 94.9998 153.916 93.7398 154.505 92.2998C155.024 91.0498 155.404 89.7198 155.643 88.3298C155.783 87.3798 155.643 86.7098 155.214 86.3098C154.785 85.9098 153.976 85.7098 152.767 85.7098V84.7698H152.777ZM146.856 92.1098C145.608 90.0298 144.519 87.8998 143.601 85.7298C142.023 86.2998 140.805 87.1598 139.956 88.3198C139.197 89.3598 138.828 90.5098 138.828 91.7598C138.828 93.7698 139.497 95.4798 140.845 96.8998C142.233 98.3198 143.95 99.0298 145.977 99.0298C146.896 99.0298 147.745 98.8998 148.524 98.6398C149.322 98.3798 150.041 97.9898 150.68 97.4698C149.432 96.0898 148.154 94.2998 146.856 92.1098ZM149.622 81.0798C150.351 80.2098 150.72 79.1898 150.72 78.0298C150.72 77.0798 150.391 76.2398 149.732 75.5098C149.043 74.7498 148.264 74.3798 147.395 74.3798C146.337 74.3798 145.458 74.7498 144.779 75.4798C144.16 76.1898 143.86 77.0298 143.86 77.9998C143.86 78.6598 143.95 79.4998 144.14 80.5198C144.38 81.7698 144.699 82.9098 145.099 83.9198C147.216 83.1098 148.723 82.1698 149.622 81.0798Z" fill="#191616" stroke="#191616" stroke-width="1.5" stroke-miterlimit="10"/>
<path d="M191.761 99.2697C190.483 100.22 189.025 100.69 187.367 100.69C185.17 100.69 183.293 99.8397 181.735 98.1397C180.178 96.4597 179.399 94.4497 179.399 92.1097C179.399 89.2697 180.287 86.9297 182.055 85.0897C183.752 83.3397 185.799 82.4697 188.176 82.4697C189.454 82.4697 190.642 82.7397 191.751 83.2897C192.789 83.7897 193.478 84.3797 193.808 85.0597C194.137 85.7197 194.187 86.2997 193.947 86.7997C193.708 87.3197 193.288 87.5797 192.669 87.5797C192.2 87.5797 191.831 87.4297 191.571 87.1197C191.431 86.9497 191.261 86.6397 191.072 86.1597L190.822 85.5897C190.423 84.8297 189.993 84.2997 189.544 83.9997C188.975 83.6197 188.206 83.4297 187.247 83.4297C185.739 83.4297 184.461 84.1197 183.423 85.4897C182.334 86.9797 181.795 88.9497 181.795 91.4097C181.795 93.7497 182.324 95.6197 183.393 97.0097C184.501 98.4797 186.049 99.2097 188.036 99.2097C189.164 99.2097 190.163 98.9697 191.012 98.4997C191.98 97.9797 193.009 97.0797 194.087 95.8097L194.617 96.0897C193.658 97.4997 192.699 98.5597 191.761 99.2697Z" fill="#191616" stroke="#191616" stroke-width="1.5" stroke-miterlimit="10"/>
<path d="M214.757 100.16C214.258 100.51 213.699 100.69 213.06 100.69C212.301 100.69 211.772 100.43 211.462 99.9097C211.222 99.5097 211.112 98.9397 211.112 98.2097C210.244 98.9897 209.375 99.5797 208.526 99.9797C207.468 100.45 206.26 100.69 204.912 100.69C203.214 100.69 201.916 100.28 201.017 99.4497C200.188 98.6897 199.779 97.6897 199.779 96.4397C199.779 94.7897 200.728 93.3797 202.615 92.2197C204.552 91.0097 207.378 90.1297 211.112 89.5597V86.9697C211.112 85.8397 210.843 84.9597 210.294 84.3497C209.725 83.6897 208.926 83.3597 207.887 83.3597C206.519 83.3597 205.491 83.5597 204.802 83.9597C204.163 84.3397 203.683 85.0097 203.354 85.9797C203.184 86.4297 203.014 86.7697 202.825 87.0097C202.545 87.3397 202.185 87.5097 201.766 87.5097C201.297 87.5097 200.937 87.3697 200.708 87.0797C200.468 86.8197 200.358 86.4397 200.358 85.9497C200.358 84.9997 201.047 84.1897 202.415 83.4997C203.883 82.8097 205.77 82.4697 208.077 82.4697C209.655 82.4697 210.913 82.8797 211.831 83.7097C212.8 84.5597 213.279 85.7697 213.279 87.3297V97.3997C213.279 97.9897 213.329 98.4497 213.419 98.7797C213.509 99.1597 213.699 99.3497 213.988 99.3497C214.248 99.3497 214.488 99.2997 214.697 99.2097C215.007 99.0697 215.326 98.8397 215.656 98.5397L215.975 98.9297C215.506 99.5097 215.107 99.9197 214.757 100.16ZM204.802 92.4297C203.054 93.4897 202.185 94.8097 202.185 96.3697C202.185 97.2197 202.465 97.9097 203.034 98.4297C203.643 98.9697 204.512 99.2497 205.62 99.2497C206.869 99.2497 207.907 99.0697 208.736 98.7197C209.495 98.4097 210.284 97.8797 211.112 97.1197V90.5597C208.536 90.8097 206.429 91.4297 204.802 92.4297Z" fill="#191616" stroke="#191616" stroke-width="1.5" stroke-miterlimit="10"/>
<path d="M220.459 99.1598C221.977 99.1598 223.005 99.0198 223.514 98.7298C224.094 98.4198 224.383 97.8197 224.383 96.9197V84.1198H220.409V83.1297H224.383V80.6797C224.383 78.8597 225.052 77.2297 226.39 75.7897C227.848 74.2497 229.665 73.4897 231.822 73.4897C232.761 73.4897 233.5 73.6197 234.009 73.8797C234.618 74.1897 234.918 74.6697 234.918 75.3298C234.918 75.6398 234.708 75.9297 234.279 76.2197C233.849 76.4997 233.4 76.6497 232.911 76.6497C232.451 76.6497 232.062 76.5897 231.722 76.4697C231.513 76.3997 231.223 76.2698 230.854 76.0798C230.514 75.9197 230.265 75.7998 230.075 75.7298C229.735 75.6398 229.406 75.5897 229.066 75.5897C228.427 75.5897 227.938 75.8998 227.608 76.5098C227.309 77.1998 227.149 78.2597 227.149 79.6997V83.1397H232.541V84.1297H227.149V96.9297C227.149 97.8297 227.469 98.4297 228.108 98.7397C228.747 99.0197 230.055 99.1697 232.032 99.1697V100.09H220.429V99.1598H220.459Z" fill="#191616" stroke="#191616" stroke-width="1.5" stroke-miterlimit="10"/>
<path d="M253.001 96.3597C252.103 97.7097 251.114 98.7197 250.026 99.4097C248.678 100.26 247.06 100.69 245.173 100.69C242.627 100.69 240.57 99.8497 239.012 98.1697C237.474 96.4697 236.715 94.2497 236.715 91.4997C236.715 88.9197 237.454 86.7797 238.942 85.0797C240.5 83.3297 242.517 82.4597 244.993 82.4597C247.38 82.4597 249.267 83.1897 250.655 84.6597C252.073 86.1697 252.782 88.2697 252.782 90.9397H239.052C239.052 93.8697 239.711 96.0597 241.039 97.4997C242.197 98.7497 243.745 99.3797 245.682 99.3797C247.1 99.3797 248.358 99.0797 249.467 98.4897C250.555 97.9197 251.554 97.0597 252.472 95.8997L253.001 96.3597ZM248.828 84.9097C247.909 83.8697 246.621 83.3497 244.963 83.3497C243.405 83.3497 242.057 83.9697 240.929 85.1897C239.771 86.4697 239.142 88.0397 239.052 89.9097H250.415C250.305 87.6597 249.776 85.9997 248.828 84.9097Z" fill="#191616" stroke="#191616" stroke-width="1.5" stroke-miterlimit="10"/>
<path d="M79.5841 16.5199C78.8651 16.1399 77.8865 15.7499 76.6384 15.3299C75.8795 15.0699 75.5599 14.7999 75.6798 14.5399C75.7596 14.1599 76.3188 13.9399 77.3773 13.8599C78.4757 13.8599 79.7338 13.9499 81.1718 14.1399C82.4599 14.4099 83.4384 14.6499 84.1175 14.8799C84.7166 14.8799 85.5154 14.8599 86.494 14.8199C87.1331 14.7799 88.1216 14.7099 89.4397 14.5899H89.949C90.3284 14.4799 90.6679 14.3299 90.9675 14.1399C91.1572 14.0599 91.3669 13.9499 91.5866 13.7999C91.966 13.5699 92.3455 13.3999 92.7149 13.2899C93.3141 13.1799 94.3026 13.1399 95.6607 13.1799C96.3796 13.1799 96.9588 13.2899 97.4181 13.5199C97.8375 13.7499 98.0572 14.0499 98.0971 14.4299C98.137 14.7699 97.9673 15.0699 97.5878 15.3399C97.2084 15.6099 96.6592 15.7599 95.9502 15.7899L90.2885 16.0699L85.3057 16.4699L84.7965 16.6399C84.6067 16.6799 84.4969 16.7299 84.457 16.8099C84.3471 16.9599 84.2872 17.2299 84.2872 17.5999V26.5099L86.9533 26.4499C87.3328 26.3699 87.6323 26.2799 87.862 26.1699C88.0118 26.0899 88.1815 25.9799 88.3713 25.8299C88.6708 25.5999 88.9704 25.4299 89.2799 25.3199C89.7692 25.1699 90.5681 25.0699 91.6565 25.0399C92.6051 24.9999 93.334 25.1199 93.8633 25.3799C94.3126 25.6099 94.5622 25.9299 94.6022 26.3399C94.6421 26.6799 94.4724 26.9799 94.0929 27.2499C93.7135 27.5499 93.1843 27.7199 92.5052 27.7599L84.2872 28.0999V37.1199C84.2872 37.9499 84.3771 38.4999 84.5668 38.7699C84.7965 39.0699 85.2658 39.1899 85.9847 39.1099C87.872 38.7299 89.7293 38.2799 91.5367 37.7499C93.9931 36.9899 96.3297 36.0899 98.5664 35.0299C99.545 34.5399 100.134 34.3899 100.324 34.5799C100.474 34.8099 100.044 35.3399 99.0257 36.1699C96.6093 37.7599 94.043 39.1799 91.317 40.4199C88.4811 41.6699 85.9548 42.4999 83.728 42.9199C82.9691 42.9999 82.3301 42.6599 81.8008 41.8999C81.2716 41.1099 81.012 40.1999 81.012 39.1799L80.9021 17.7899C80.8522 17.3899 80.4228 16.9799 79.5841 16.5199ZM104.118 9.4299C103.399 8.9799 102.591 8.5599 101.682 8.1799C100.773 7.7299 100.324 7.3899 100.324 7.1599C100.324 6.8599 100.893 6.6299 102.021 6.4799C105.416 7.0099 107.613 7.5599 108.592 8.1299C109.161 8.5099 109.361 9.0599 109.211 9.7799L109.151 10.6299L109.041 44.0999C108.961 46.7099 108.682 48.7499 108.192 50.2299C107.773 51.4399 107.304 52.1199 106.774 52.2699C106.395 52.3099 106.135 52.0999 105.986 51.6499C105.796 51.1599 105.706 50.3299 105.706 49.1499V28.6099L103.439 28.7799L102.131 28.8899C101.792 28.9299 101.512 28.9899 101.282 29.0599C101.133 29.1399 100.943 29.2099 100.713 29.2899C100.414 29.4399 100.144 29.4999 99.9244 29.4599C99.5849 29.3799 98.866 29.0799 97.7676 28.5499C96.9787 28.1299 96.5993 27.7899 96.6392 27.5299C96.7191 27.2999 97.2384 27.2499 98.2269 27.3599C99.2454 27.3599 100.394 27.3199 101.682 27.2499C103 27.1699 104.348 27.0999 105.706 27.0199V11.2499C105.626 10.6799 105.097 10.0699 104.118 9.4299ZM113.525 5.7999C112.916 5.3499 111.977 4.7599 110.689 4.0399C109.71 3.5499 109.251 3.1699 109.331 2.9099C109.411 2.5699 110.16 2.3999 111.597 2.3999C113.375 2.8199 114.793 3.1899 115.841 3.5299C116.82 3.8699 117.519 4.2099 117.938 4.5499C118.358 4.8499 118.577 5.1599 118.617 5.4599C118.657 5.6499 118.617 5.9899 118.507 6.4799L118.447 7.3299L118.388 48.5199C118.278 51.0899 118.008 53.1299 117.599 54.6499C117.179 56.0499 116.67 56.8199 116.071 56.9799C115.731 56.9799 115.462 56.7699 115.282 56.3599C115.092 55.8299 115.002 54.8999 115.002 53.5799V7.8399C115.002 7.2399 114.503 6.5599 113.525 5.7999Z" fill="#191616" stroke="#191616" stroke-width="1.5" stroke-miterlimit="10"/>
<path d="M155.763 38.03C155.344 37.65 154.665 37.29 153.726 36.95C152.817 36.72 152.388 36.44 152.418 36.1C152.418 35.76 153.007 35.59 154.175 35.59C155.763 35.74 156.991 35.89 157.86 36.04C158.689 36.19 159.298 36.34 159.677 36.49C160.017 36.64 160.227 36.83 160.297 37.06C160.336 37.21 160.316 37.46 160.237 37.8L160.177 38.54L160.007 46.82C161.325 46.8 162.783 46.76 164.371 46.71C166.218 46.63 168.604 46.52 171.51 46.37C172.339 46.22 173.078 46.07 173.717 45.92C174.096 45.81 174.526 45.66 175.025 45.47C175.704 45.21 176.293 45.07 176.782 45.07C177.571 44.99 178.82 45.09 180.517 45.35C181.615 45.54 182.484 45.86 183.123 46.31C183.692 46.65 183.992 47.06 184.032 47.53C184.072 48 183.842 48.35 183.353 48.58C182.784 48.88 182.055 49 181.146 48.92C176.193 48.43 170.172 48.2 163.072 48.24C156.652 48.28 150.211 48.54 143.751 49.03C143.181 49.11 142.652 49.22 142.163 49.37C141.903 49.48 141.554 49.62 141.144 49.77C140.316 50.15 139.557 50.26 138.878 50.11C137.969 49.88 136.291 49.12 133.835 47.82C132.707 47.23 132.098 46.72 132.018 46.3C131.868 45.88 132.397 45.77 133.605 45.96C136.591 46.45 139.856 46.75 143.411 46.87C146.736 46.99 151.1 46.97 156.502 46.81V39.32C156.462 38.84 156.222 38.4 155.763 38.03ZM156.562 9.03001C156.752 8.50001 156.642 8.01001 156.222 7.55001C155.503 6.91001 155.274 6.47001 155.543 6.24001C155.803 6.05001 156.482 6.09001 157.58 6.35001C158.829 6.80001 159.548 7.26001 159.737 7.71001C159.847 7.97001 159.737 8.37001 159.398 8.90001C159.248 9.13001 159.138 9.30001 159.058 9.41001C158.978 9.60001 158.948 9.79001 158.948 9.98001C163.062 10.59 166.198 12.16 168.355 14.69C170.322 17 171.171 19.63 170.901 22.58C170.601 25.53 169.293 28.01 166.987 30.01C164.49 32.2 161.285 33.3 157.351 33.3C153.456 33.26 150.251 32.15 147.715 29.95C145.408 27.98 144.09 25.52 143.751 22.57C143.411 19.62 144.17 17.01 146.017 14.74C148.014 12.21 151 10.64 154.964 10.03L155.194 9.97001C155.883 9.85001 156.332 9.53001 156.562 9.03001ZM149.592 15.44C147.895 17.14 147.046 19.24 147.046 21.74C147.046 24.24 147.895 26.34 149.592 28.04C151.519 29.97 154.106 30.93 157.351 30.93C160.556 30.93 163.112 29.97 165 28.04C166.697 26.34 167.546 24.24 167.546 21.74C167.546 19.24 166.697 17.14 165 15.44C163.112 13.55 160.566 12.6 157.351 12.6C154.106 12.61 151.519 13.55 149.592 15.44Z" fill="#191616" stroke="#191616" stroke-width="1.5" stroke-miterlimit="10"/>
</g>
<defs>
<clipPath id="clip0_1_9">
<rect width="254" height="101.44" fill="white"/>
</clipPath>
</defs>
</svg>
