<svg width="229" height="57" viewBox="0 0 229 57" fill="none" xmlns="http://www.w3.org/2000/svg">
<path d="M32.2649 24.875C32.1816 25.375 31.9732 25.8125 31.6399 26.1875C31.3066 26.5625 30.9211 26.8646 30.4836 27.0938H30.4524C29.9524 27.3854 29.442 27.6771 28.9211 27.9688C28.4211 28.2604 27.9003 28.5208 27.3586 28.75C26.7545 29 26.192 29.2708 25.6711 29.5625C25.1503 29.8542 24.6191 30.1771 24.0774 30.5312L23.9836 30.5938L24.2961 30.8438C24.1711 31.0104 23.9732 31.1458 23.7024 31.25C23.4316 31.3333 23.1607 31.4375 22.8899 31.5625C22.6399 31.6667 22.4316 31.8125 22.2649 32C22.1191 32.1875 22.0982 32.4479 22.2024 32.7812C21.0774 33.5938 19.8378 34.0938 18.4836 34.2812C17.1503 34.4688 15.8066 34.4688 14.4524 34.2812C13.8691 34.1979 13.2336 34.0729 12.5461 33.9062C11.8795 33.7396 11.2024 33.5417 10.5149 33.3125C9.82739 33.1042 9.16073 32.8646 8.51489 32.5938C7.86906 32.3229 7.28573 32.0417 6.76489 31.75C6.66073 31.6875 6.55656 31.6146 6.45239 31.5312C6.34823 31.4271 6.24406 31.3438 6.13989 31.2812L4.35864 30L4.29614 30.0312C3.92114 30.2188 3.62948 30.4688 3.42114 30.7812C3.21281 31.0729 3.04614 31.3854 2.92114 31.7188C2.77531 32.0521 2.63989 32.3854 2.51489 32.7188C2.38989 33.0521 2.24406 33.3333 2.07739 33.5625C1.88989 33.7917 1.65031 33.9479 1.35864 34.0312C1.06698 34.1354 0.681559 34.1146 0.202393 33.9688C0.139893 33.5104 0.139893 33.0521 0.202393 32.5938C0.264893 32.1146 0.327393 31.6458 0.389893 31.1875C0.452393 30.7292 0.504476 30.2917 0.546143 29.875C0.587809 29.4583 0.566976 29.0729 0.483643 28.7188C0.879476 28.5521 1.11906 28.3333 1.20239 28.0625C1.26489 27.7708 1.30656 27.4792 1.32739 27.1875C1.32739 26.8958 1.37948 26.625 1.48364 26.375C1.58781 26.125 1.86906 25.9375 2.32739 25.8125C2.32739 25.3542 2.40031 24.9375 2.54614 24.5625C2.69198 24.1875 2.84823 23.8229 3.01489 23.4688C3.18156 23.0938 3.32739 22.7188 3.45239 22.3438C3.59823 21.9688 3.66073 21.5417 3.63989 21.0625C4.30656 20.1042 4.90031 19.1042 5.42114 18.0625C5.94198 17 6.44198 15.9375 6.92114 14.875C7.42114 13.75 7.94198 12.6354 8.48364 11.5312C9.02531 10.4062 9.63989 9.36458 10.3274 8.40625C11.0357 7.42708 11.8378 6.55208 12.7336 5.78125C13.6503 4.98958 14.7232 4.35417 15.9524 3.875C16.0774 3.83333 16.2441 3.78125 16.4524 3.71875C16.6816 3.63542 16.9211 3.5625 17.1711 3.5C17.4211 3.4375 17.6503 3.38542 17.8586 3.34375C18.0878 3.28125 18.2545 3.25 18.3586 3.25C18.4628 3.25 18.5878 3.27083 18.7336 3.3125C18.9003 3.33333 19.0357 3.35417 19.1399 3.375C19.4732 3.4375 19.8066 3.5 20.1399 3.5625C20.4732 3.60417 20.7857 3.6875 21.0774 3.8125C21.3899 3.91667 21.6607 4.07292 21.8899 4.28125C22.1399 4.48958 22.3378 4.77083 22.4836 5.125V5.15625C22.5253 5.32292 22.5774 5.51042 22.6399 5.71875C22.7232 5.90625 22.7961 6.08333 22.8586 6.25C23.0045 6.72917 23.1503 7.29167 23.2961 7.9375C23.4628 8.58333 23.5461 9.16667 23.5461 9.6875C23.5461 11.0417 23.3378 12.3646 22.9211 13.6562C22.5045 14.9479 21.9941 16.1875 21.3899 17.375L21.4211 17.4062C22.4836 18.9688 23.3586 20.625 24.0461 22.375C24.7545 24.1042 25.1086 25.9167 25.1086 27.8125C25.7128 27.7083 26.2857 27.5208 26.8274 27.25C27.3691 26.9792 27.9107 26.6979 28.4524 26.4062C29.0566 26.0938 29.6711 25.8021 30.2961 25.5312C30.942 25.2396 31.5982 25.0208 32.2649 24.875ZM17.6711 18.7812C17.6086 18.6146 17.5045 18.5208 17.3586 18.5C17.2336 18.4583 17.0878 18.4479 16.9211 18.4688C16.8378 18.4896 16.7649 18.5 16.7024 18.5C16.6607 18.4792 16.5982 18.4688 16.5149 18.4688C16.1607 18.4479 15.8586 18.5104 15.6086 18.6562C15.3586 18.7812 15.1399 18.9583 14.9524 19.1875C14.7649 19.4167 14.5982 19.6771 14.4524 19.9688C14.3066 20.2396 14.1607 20.5 14.0149 20.75L14.1399 20.9062C14.5566 20.8229 14.9524 20.6979 15.3274 20.5312C15.7024 20.3646 16.0774 20.1771 16.4524 19.9688C16.6399 19.8646 16.8378 19.7708 17.0461 19.6875C17.2545 19.6042 17.4628 19.5104 17.6711 19.4062V18.7812ZM23.3274 27.6875C23.1816 27 23.0357 26.2812 22.8899 25.5312C22.7441 24.7604 22.5566 24.0104 22.3274 23.2812C22.1191 22.5521 21.8378 21.8542 21.4836 21.1875C21.1503 20.5208 20.7232 19.9271 20.2024 19.4062C20.0566 19.7188 19.8378 20.0208 19.5461 20.3125C19.2545 20.6042 18.9211 20.8854 18.5461 21.1562C18.192 21.4062 17.8274 21.6458 17.4524 21.875C17.0982 22.0833 16.7753 22.2604 16.4836 22.4062C16.1503 22.3854 15.7753 22.4375 15.3586 22.5625C14.942 22.6667 14.5253 22.7604 14.1086 22.8438C13.692 22.9062 13.2961 22.9167 12.9211 22.875C12.567 22.8125 12.2857 22.5938 12.0774 22.2188V22.1875C11.9524 22.1042 11.817 22.0417 11.6711 22C11.5461 21.9583 11.442 21.8646 11.3586 21.7188C11.2961 21.5729 11.3066 21.4062 11.3899 21.2188C11.4941 21.0312 11.5982 20.8229 11.7024 20.5938C11.8274 20.3646 11.9211 20.125 11.9836 19.875C12.0461 19.625 12.0045 19.3646 11.8586 19.0938C11.9836 18.4896 12.2336 18.0729 12.6086 17.8438C12.9836 17.5938 13.4107 17.4271 13.8899 17.3438C14.3899 17.2396 14.8899 17.1667 15.3899 17.125C15.9107 17.0833 16.3691 16.9583 16.7649 16.75C17.1607 16.9167 17.6191 17.0104 18.1399 17.0312C18.6607 17.0312 19.1191 16.9271 19.5149 16.7188L20.1086 15.4062C20.4211 14.7604 20.692 14.1667 20.9211 13.625C21.1711 13.0625 21.3586 12.5104 21.4836 11.9688C21.6295 11.4271 21.7128 10.8646 21.7336 10.2812C21.7753 9.67708 21.7441 9 21.6399 8.25V8.1875H21.6086C21.317 8.04167 21.1607 7.84375 21.1399 7.59375C21.1191 7.34375 21.1086 7.07292 21.1086 6.78125C20.942 6.51042 20.7336 6.21875 20.4836 5.90625C20.2336 5.59375 19.9628 5.375 19.6711 5.25C19.4211 5.14583 19.1295 5.07292 18.7961 5.03125C18.4628 4.98958 18.1191 4.97917 17.7649 5C17.4316 5 17.0982 5.04167 16.7649 5.125C16.4524 5.20833 16.1711 5.32292 15.9211 5.46875L15.8586 5.53125C15.692 5.80208 15.5149 6.01042 15.3274 6.15625C15.1399 6.28125 14.9107 6.41667 14.6399 6.5625C14.4524 6.66667 14.2441 6.78125 14.0149 6.90625C13.8066 7.01042 13.6086 7.13542 13.4211 7.28125C13.2545 7.40625 13.1086 7.5625 12.9836 7.75C12.8586 7.9375 12.7961 8.16667 12.7961 8.4375V9.59375C12.7961 9.61458 12.7649 9.6875 12.7024 9.8125C12.6607 9.9375 12.5982 10.0729 12.5149 10.2188C12.4524 10.3646 12.3899 10.5104 12.3274 10.6562C12.2649 10.7812 12.2232 10.8646 12.2024 10.9062C11.9107 11.5312 11.6086 12.1458 11.2961 12.75C10.9836 13.3542 10.6086 13.9271 10.1711 14.4688V14.5C9.92114 15.1875 9.66073 15.875 9.38989 16.5625C9.13989 17.25 8.90031 17.9479 8.67114 18.6562C8.15031 20.1979 7.60864 21.7292 7.04614 23.25C6.48364 24.7708 5.74406 26.2188 4.82739 27.5938C5.49406 28.0312 6.17114 28.4896 6.85864 28.9688C7.54614 29.4271 8.26489 29.7917 9.01489 30.0625C9.34823 30.1667 9.68156 30.2708 10.0149 30.375C10.3482 30.4792 10.6607 30.6146 10.9524 30.7812L10.9836 30.8125C11.317 30.8125 11.6711 30.8646 12.0461 30.9688C12.4211 31.0521 12.7961 31.1354 13.1711 31.2188C13.5461 31.2812 13.9107 31.3229 14.2649 31.3438C14.6399 31.3438 14.9732 31.25 15.2649 31.0625C15.4316 31.125 15.5774 31.125 15.7024 31.0625C15.8482 31 15.9836 30.9479 16.1086 30.9062C16.2336 30.8438 16.3482 30.8229 16.4524 30.8438C16.5774 30.8438 16.692 30.9375 16.7961 31.125C17.1711 30.8542 17.5566 30.6771 17.9524 30.5938C18.3691 30.5104 18.7961 30.4271 19.2336 30.3438C19.4628 30.3021 19.6816 30.2604 19.8899 30.2188C20.1191 30.1562 20.3482 30.1042 20.5774 30.0625H20.6086L20.6399 30.0312C20.8066 29.8021 20.9836 29.6458 21.1711 29.5625C21.3586 29.4792 21.567 29.3854 21.7961 29.2812C21.9628 29.2188 22.1295 29.1458 22.2961 29.0625C22.4836 28.9792 22.6399 28.8854 22.7649 28.7812C22.8899 28.6562 22.9524 28.5208 22.9524 28.375C22.9732 28.2083 22.9107 28.0104 22.7649 27.7812L22.8586 27.75C22.9628 27.6458 23.0357 27.6042 23.0774 27.625C23.1399 27.625 23.2232 27.6458 23.3274 27.6875ZM51.8899 23.4375C51.7024 23.625 51.5566 23.7708 51.4524 23.875C51.3691 23.9792 51.2857 24.0833 51.2024 24.1875C51.1399 24.2708 51.0566 24.3646 50.9524 24.4688C50.8691 24.5729 50.7336 24.7292 50.5461 24.9375C50.3795 25.1042 50.2232 25.2812 50.0774 25.4688C49.9316 25.6562 49.7649 25.8229 49.5774 25.9688C49.3274 25.9062 49.1295 25.9375 48.9836 26.0625C48.8586 26.1875 48.7336 26.3333 48.6086 26.5C48.5045 26.6458 48.4003 26.7917 48.2961 26.9375C48.2128 27.0625 48.0982 27.1146 47.9524 27.0938C47.4524 27.3646 46.9524 27.6042 46.4524 27.8125C45.9524 28 45.4732 28.2812 45.0149 28.6562L44.7649 28.4062L41.5149 29.9688C41.4107 30.0104 41.3066 30.0729 41.2024 30.1562C41.0982 30.2396 40.9941 30.3125 40.8899 30.375C40.4316 30.625 39.9524 30.8542 39.4524 31.0625C38.9732 31.25 38.4941 31.4271 38.0149 31.5938L37.6086 31.7188C37.7753 32.1354 37.7753 32.4271 37.6086 32.5938C37.442 32.7604 37.2024 32.8854 36.8899 32.9688C36.5774 33.0312 36.2336 33.0729 35.8586 33.0938C35.4836 33.1146 35.192 33.1875 34.9836 33.3125C34.7336 33.2708 34.4732 33.25 34.2024 33.25C33.9524 33.2708 33.692 33.3021 33.4211 33.3438C33.1295 33.3854 32.8586 33.4062 32.6086 33.4062C32.3586 33.4062 32.0878 33.375 31.7961 33.3125H31.7336C31.3795 33.4792 31.067 33.5104 30.7961 33.4062C30.5461 33.3229 30.317 33.1771 30.1086 32.9688C29.9003 32.7396 29.7024 32.4792 29.5149 32.1875C29.3482 31.875 29.1711 31.5938 28.9836 31.3438C28.8586 31.1771 28.7024 30.9375 28.5149 30.625C28.3274 30.3125 28.1711 29.9792 28.0461 29.625C27.9003 29.2708 27.817 28.9167 27.7961 28.5625C27.7545 28.1875 27.8274 27.8646 28.0149 27.5938C28.2024 27.3229 28.3586 27.0312 28.4836 26.7188C28.5878 26.4062 28.6399 26.0417 28.6399 25.625C28.6399 25.4792 28.6399 25.3438 28.6399 25.2188C28.6191 25.0938 28.6086 24.9583 28.6086 24.8125C28.7128 24.8125 28.8274 24.8229 28.9524 24.8438C29.0774 24.8438 29.192 24.8438 29.2961 24.8438C29.4211 24.8229 29.5149 24.7812 29.5774 24.7188C29.6607 24.6354 29.7024 24.5 29.7024 24.3125C29.7024 24.2083 29.6607 24.125 29.5774 24.0625C29.5149 24 29.4732 23.9375 29.4524 23.875C29.5774 23.6875 29.692 23.5417 29.7961 23.4375C29.9211 23.3125 30.0253 23.1979 30.1086 23.0938C30.192 22.9688 30.2545 22.8333 30.2961 22.6875C30.3378 22.5208 30.3274 22.3021 30.2649 22.0312C30.5149 21.5938 30.8066 21.2083 31.1399 20.875C31.4941 20.5208 31.8586 20.1979 32.2336 19.9062C32.6086 19.5938 32.9941 19.2917 33.3899 19C33.7857 18.7083 34.1607 18.3958 34.5149 18.0625C34.9107 18.2292 35.2232 18.2292 35.4524 18.0625C35.7024 17.8958 35.9211 17.7188 36.1086 17.5312C36.2961 17.3229 36.4836 17.1562 36.6711 17.0312C36.8586 16.9062 37.1086 16.9583 37.4211 17.1875L37.4836 17.25C38.0461 16.6875 38.6086 16.4375 39.1711 16.5C39.7545 16.5625 40.2441 16.75 40.6399 17.0625C41.0566 17.375 41.3274 17.7396 41.4524 18.1562C41.5774 18.5521 41.4628 18.8229 41.1086 18.9688C41.3378 19.1979 41.4524 19.4688 41.4524 19.7812C41.4524 20.0938 41.3691 20.3646 41.2024 20.5938C41.0149 20.8438 40.8482 21.1042 40.7024 21.375C40.5774 21.625 40.442 21.8958 40.2961 22.1875C40.0878 22.6667 39.8586 23.125 39.6086 23.5625C39.3586 23.9792 39.0045 24.3333 38.5461 24.625C38.1711 24.5208 37.9107 24.5625 37.7649 24.75C37.6399 24.9375 37.5461 25.1458 37.4836 25.375C37.4211 25.5833 37.3482 25.75 37.2649 25.875C37.1816 26 37.0045 25.9583 36.7336 25.75L36.6711 25.6875L36.6086 25.75C36.442 25.9167 36.3066 26.1042 36.2024 26.3125C36.1191 26.5208 35.9941 26.6771 35.8274 26.7812C35.6399 26.7188 35.442 26.6667 35.2336 26.625C35.0253 26.5833 34.8274 26.5417 34.6399 26.5C34.6399 26.9375 34.5566 27.2812 34.3899 27.5312C34.2232 27.7812 34.0045 27.9896 33.7336 28.1562C33.4836 28.3021 33.192 28.4271 32.8586 28.5312C32.5253 28.6146 32.192 28.7292 31.8586 28.875C31.5461 29 31.2441 29.1667 30.9524 29.375C30.6816 29.5625 30.4628 29.8333 30.2961 30.1875C30.5045 30.4167 30.7649 30.5521 31.0774 30.5938C31.3899 30.6146 31.7128 30.6146 32.0461 30.5938C32.3795 30.5521 32.7024 30.5312 33.0149 30.5312C33.3482 30.5312 33.6399 30.6146 33.8899 30.7812L33.9211 30.8125L33.9524 30.7812C34.4524 30.7188 34.9316 30.6042 35.3899 30.4375C35.8691 30.25 36.3274 30.0625 36.7649 29.875C37.2232 29.6667 37.6816 29.4792 38.1399 29.3125C38.6191 29.125 39.1086 28.9896 39.6086 28.9062C39.7128 29.0729 39.8482 29.1667 40.0149 29.1875C40.2024 29.2083 40.3795 29.1979 40.5461 29.1562L40.5774 29.0938C40.6191 28.9479 40.6607 28.8229 40.7024 28.7188C40.7441 28.5938 40.8066 28.4583 40.8899 28.3125C41.0357 28.0833 41.2128 27.9062 41.4211 27.7812C41.6295 27.6562 41.8482 27.5625 42.0774 27.5C42.3274 27.4375 42.5878 27.3958 42.8586 27.375C43.1295 27.3542 43.4003 27.3229 43.6711 27.2812H43.7336L43.7649 27.1875C43.8482 26.9375 43.9524 26.7708 44.0774 26.6875C44.2232 26.5833 44.3691 26.5104 44.5149 26.4688C44.6816 26.4271 44.8482 26.3958 45.0149 26.375C45.2024 26.3542 45.3795 26.2917 45.5461 26.1875C45.9211 26.3125 46.2336 26.2708 46.4836 26.0625C46.7336 25.8542 46.9732 25.6354 47.2024 25.4062L47.4524 25.7188L47.5461 25.5938C47.8586 25.3021 48.0878 25.0833 48.2336 24.9375C48.4003 24.7917 48.5566 24.6667 48.7024 24.5625C48.8482 24.4375 49.0149 24.3229 49.2024 24.2188C49.4107 24.0938 49.692 23.9167 50.0461 23.6875C50.3378 23.5 50.6191 23.3125 50.8899 23.125C51.1816 22.9375 51.4628 22.7292 51.7336 22.5C51.8378 22.5417 51.8899 22.625 51.8899 22.75C51.8899 22.8542 51.8899 22.9583 51.8899 23.0625C51.8691 23.1042 51.8482 23.1667 51.8274 23.25C51.8274 23.3333 51.8482 23.3958 51.8899 23.4375ZM38.9524 19.5312C38.9316 19.5104 38.9107 19.5 38.8899 19.5C38.8899 19.5 38.8795 19.4896 38.8586 19.4688C38.4211 19.2396 38.0566 19.1354 37.7649 19.1562C37.4732 19.1562 37.2024 19.2396 36.9524 19.4062C36.7232 19.5521 36.5045 19.75 36.2961 20C36.1086 20.2292 35.9003 20.4479 35.6711 20.6562C35.4628 20.8438 35.2128 20.9896 34.9211 21.0938C34.6295 21.1979 34.2753 21.1875 33.8586 21.0625C33.7961 21.3958 33.7336 21.7292 33.6711 22.0625C33.6295 22.375 33.5982 22.6979 33.5774 23.0312C33.2232 23.1562 32.942 23.3333 32.7336 23.5625C32.5461 23.7917 32.3795 24.0417 32.2336 24.3125C32.1086 24.5833 31.9836 24.875 31.8586 25.1875C31.7545 25.4792 31.6086 25.7604 31.4211 26.0312L31.5461 26.1875C31.6295 26.1458 31.7232 26.1771 31.8274 26.2812C31.9316 26.3854 32.0045 26.4583 32.0461 26.5C32.2753 26.1667 32.5774 25.8854 32.9524 25.6562C33.3482 25.4271 33.7441 25.2188 34.1399 25.0312C34.5566 24.8229 34.9524 24.6042 35.3274 24.375C35.7024 24.1458 35.9836 23.8438 36.1711 23.4688C36.8378 23.2812 37.3378 22.9062 37.6711 22.3438C38.0045 21.7812 38.2857 21.1979 38.5149 20.5938C38.5566 20.4688 38.6295 20.2917 38.7336 20.0625C38.8586 19.8125 38.9316 19.6354 38.9524 19.5312ZM69.4211 29.7188C69.1295 30.2188 68.9003 30.625 68.7336 30.9375C68.5878 31.2292 68.4316 31.4792 68.2649 31.6875C68.1191 31.875 67.942 32.0521 67.7336 32.2188C67.5461 32.3646 67.2753 32.5521 66.9211 32.7812C66.692 32.9896 66.4628 33.1667 66.2336 33.3125C66.0461 33.4583 65.8586 33.5833 65.6711 33.6875C65.5045 33.7917 65.3691 33.8438 65.2649 33.8438C65.2232 33.8438 65.1816 33.8333 65.1399 33.8125C65.0982 33.8125 65.0566 33.8125 65.0149 33.8125C64.8899 33.8125 64.7649 33.8125 64.6399 33.8125C64.5357 33.8333 64.442 33.7604 64.3586 33.5938C64.2961 33.6562 64.2441 33.7292 64.2024 33.8125C64.1607 33.8958 64.1191 33.9688 64.0774 34.0312C64.0357 34.1146 63.9732 34.1771 63.8899 34.2188C63.8274 34.2604 63.7336 34.2604 63.6086 34.2188L63.4524 34.0312L62.9836 34.4375C62.4003 34.1458 61.8378 33.8958 61.2961 33.6875C60.7753 33.5 60.3066 33.2708 59.8899 33C59.4732 32.7292 59.1191 32.3854 58.8274 31.9688C58.5357 31.5312 58.3274 30.9375 58.2024 30.1875C58.0982 30.0625 57.9836 29.9583 57.8586 29.875C57.7336 29.7708 57.5878 29.7396 57.4211 29.7812C57.2128 30.1354 56.9628 30.4375 56.6711 30.6875C56.3795 30.9375 56.0878 31.2083 55.7961 31.5C55.692 31.6042 55.6086 31.7188 55.5461 31.8438C55.4836 31.9688 55.4003 32.0833 55.2961 32.1875C55.1295 32.375 54.9316 32.5104 54.7024 32.5938C54.4732 32.6562 54.2441 32.7188 54.0149 32.7812C53.7857 32.8438 53.567 32.9479 53.3586 33.0938C53.1711 33.2396 53.0357 33.4896 52.9524 33.8438C52.7024 33.6979 52.4524 33.6562 52.2024 33.7188C52.0149 33.7604 51.817 33.8021 51.6086 33.8438C51.4003 33.9062 51.192 33.9375 50.9836 33.9375C50.7961 33.9583 50.6086 33.9375 50.4211 33.875C50.2336 33.8125 50.067 33.6771 49.9211 33.4688C49.6295 33.5938 49.3586 33.5833 49.1086 33.4375C48.8586 33.3125 48.6191 33.1354 48.3899 32.9062C48.1816 32.6562 47.9732 32.3958 47.7649 32.125C47.5566 31.8542 47.3586 31.6562 47.1711 31.5312C47.0461 31.1979 47.0566 30.9167 47.2024 30.6875C47.3274 30.4375 47.4732 30.2083 47.6399 30C47.7857 29.7708 47.8899 29.5521 47.9524 29.3438C48.0149 29.1146 47.9211 28.8438 47.6711 28.5312C47.8795 28.2188 48.067 27.8958 48.2336 27.5625C48.4003 27.2083 48.567 26.8646 48.7336 26.5312C48.9211 26.1771 49.1086 25.8438 49.2961 25.5312C49.5045 25.1979 49.7545 24.9167 50.0461 24.6875C49.9211 24.5417 49.8586 24.4062 49.8586 24.2812C49.8586 24.1354 49.8899 24 49.9524 23.875C50.0149 23.7292 50.0878 23.5938 50.1711 23.4688C50.2545 23.3229 50.317 23.1875 50.3586 23.0625L51.2649 22.625L51.0461 21.875C51.2753 21.9167 51.442 21.9062 51.5461 21.8438C51.6711 21.7812 51.7545 21.6875 51.7961 21.5625C51.8586 21.4375 51.9003 21.3021 51.9211 21.1562C51.9628 20.9896 52.0149 20.8438 52.0774 20.7188C52.1816 20.5312 52.3378 20.3958 52.5461 20.3125C52.9836 19.9792 53.4107 19.625 53.8274 19.25C54.2649 18.875 54.692 18.5104 55.1086 18.1562C55.5461 17.8021 55.9941 17.4688 56.4524 17.1562C56.9107 16.8229 57.4107 16.5417 57.9524 16.3125C58.3274 16.375 58.6191 16.4896 58.8274 16.6562C59.0566 16.8229 59.2232 17.0208 59.3274 17.25C59.4524 17.4792 59.5461 17.7396 59.6086 18.0312C59.6711 18.3021 59.7336 18.5729 59.7961 18.8438C59.9003 19.1979 60.0253 19.5 60.1711 19.75C60.317 20 60.567 20.2083 60.9211 20.375C60.6295 20.875 60.5149 21.375 60.5774 21.875C60.6399 22.3542 60.7024 22.8646 60.7649 23.4062C60.8274 23.9062 60.817 24.3958 60.7336 24.875C60.6711 25.3542 60.3691 25.7812 59.8274 26.1562C59.7857 26.3021 59.7753 26.4583 59.7961 26.625C59.817 26.7917 59.8274 26.9583 59.8274 27.125C59.8274 27.2917 59.7961 27.4479 59.7336 27.5938C59.6711 27.7396 59.5566 27.8542 59.3899 27.9375C59.5774 28.1667 59.6711 28.3958 59.6711 28.625C59.692 28.8542 59.7024 29.0729 59.7024 29.2812C59.7232 29.4896 59.7753 29.6771 59.8586 29.8438C59.9628 30.0104 60.192 30.1354 60.5461 30.2188C60.6086 30.4896 60.6607 30.6979 60.7024 30.8438C60.7649 30.9688 60.8274 31.0729 60.8899 31.1562C60.9732 31.2396 61.0774 31.3229 61.2024 31.4062C61.3274 31.4688 61.4941 31.5729 61.7024 31.7188C61.8691 31.7604 62.0566 31.7604 62.2649 31.7188C62.4732 31.6771 62.6399 31.7396 62.7649 31.9062C62.8691 31.8021 62.9941 31.75 63.1399 31.75C63.2857 31.7292 63.4211 31.7292 63.5461 31.75L63.9524 32.4375C64.1816 32.2708 64.442 32.125 64.7336 32C65.0253 31.875 65.3066 31.7708 65.5774 31.6875C65.8899 31.6042 66.2024 31.5312 66.5149 31.4688L69.4211 29.7188ZM57.4211 19.0312C57.2336 19.1979 57.0045 19.3646 56.7336 19.5312C56.4628 19.6979 56.192 19.875 55.9211 20.0625C55.6711 20.25 55.4524 20.4583 55.2649 20.6875C55.0774 20.8958 54.9628 21.1458 54.9211 21.4375C54.442 21.5208 54.1086 21.7188 53.9211 22.0312C53.7336 22.3438 53.5774 22.6875 53.4524 23.0625C53.3274 23.4375 53.192 23.8125 53.0461 24.1875C52.9003 24.5417 52.6399 24.8229 52.2649 25.0312C52.1399 25.1146 52.0253 25.1562 51.9211 25.1562C51.942 25.1562 51.8795 25.1979 51.7336 25.2812C51.5045 25.4479 51.3066 25.6562 51.1399 25.9062C50.9732 26.1562 50.8274 26.4271 50.7024 26.7188C50.5982 27.0104 50.4941 27.3125 50.3899 27.625C50.3066 27.9167 50.2232 28.1875 50.1399 28.4375C49.8482 28.4792 49.6295 28.5417 49.4836 28.625C49.3378 28.7083 49.2441 28.8021 49.2024 28.9062C49.1816 28.9896 49.192 29.0938 49.2336 29.2188C49.2753 29.3438 49.3378 29.4792 49.4211 29.625C49.5045 29.75 49.5878 29.8958 49.6711 30.0625C49.7753 30.2292 49.8586 30.3958 49.9211 30.5625C49.9836 30.7292 50.0149 30.8958 50.0149 31.0625C50.0357 31.2292 49.9941 31.3854 49.8899 31.5312C50.1816 31.7604 50.4628 31.8125 50.7336 31.6875C51.0045 31.5417 51.2545 31.3854 51.4836 31.2188C51.567 31.1562 51.6503 31.0938 51.7336 31.0312C51.8378 30.9479 51.942 30.8854 52.0461 30.8438C52.5253 30.9479 52.9628 30.9167 53.3586 30.75C53.7545 30.5833 54.1191 30.3542 54.4524 30.0625C54.7857 29.7708 55.1086 29.4583 55.4211 29.125C55.7336 28.7917 56.0461 28.5 56.3586 28.25L56.1086 28C56.4836 27.8958 56.7441 27.7604 56.8899 27.5938C57.0566 27.4062 57.1607 27.1979 57.2024 26.9688C57.2441 26.7396 57.2441 26.5 57.2024 26.25C57.1607 25.9792 57.1295 25.6979 57.1086 25.4062C57.0878 25.2396 57.0774 25.0833 57.0774 24.9375C57.0982 24.7708 57.1399 24.6042 57.2024 24.4375C57.0357 23.9583 57.0045 23.5 57.1086 23.0625C57.2336 22.625 57.3899 22.2083 57.5774 21.8125C57.7857 21.3958 57.9836 20.9792 58.1711 20.5625C58.3586 20.1458 58.4524 19.7083 58.4524 19.25L57.4211 19.0312ZM90.0461 31.4375C89.7961 31.4375 89.5982 31.4479 89.4524 31.4688C89.3274 31.4688 89.2128 31.4792 89.1086 31.5C89.0045 31.5208 88.8899 31.5625 88.7649 31.625C88.6399 31.6875 88.4732 31.7812 88.2649 31.9062C88.1816 32.1354 88.067 32.3125 87.9211 32.4375C87.7961 32.5417 87.6399 32.6354 87.4524 32.7188C87.2857 32.7812 87.1086 32.8542 86.9211 32.9375C86.7336 33 86.5566 33.1146 86.3899 33.2812C84.8066 33.5312 83.4107 33.1771 82.2024 32.2188C82.0566 32.1146 81.9211 32 81.7961 31.875C81.692 31.75 81.567 31.6354 81.4211 31.5312C81.317 31.4479 81.2545 31.4167 81.2336 31.4375C81.2336 31.4375 81.192 31.3854 81.1086 31.2812C80.9628 31.0729 80.8691 30.8229 80.8274 30.5312C80.8066 30.2188 80.7649 29.9271 80.7024 29.6562C80.6399 29.3646 80.5149 29.125 80.3274 28.9375C80.1607 28.7292 79.8586 28.6354 79.4211 28.6562C79.2128 29.0938 78.9107 29.5417 78.5149 30C78.1399 30.4375 77.7128 30.8333 77.2336 31.1875C76.7545 31.5417 76.2441 31.8333 75.7024 32.0625C75.1816 32.2917 74.6816 32.4062 74.2024 32.4062C74.0357 32.8854 73.7441 33.2396 73.3274 33.4688C72.9316 33.7188 72.5045 33.9062 72.0461 34.0312C72.0045 34.0521 71.9211 34.0729 71.7961 34.0938C71.6711 34.1354 71.5982 34.1562 71.5774 34.1562C71.2857 34.1771 71.0566 34.125 70.8899 34C70.7232 33.875 70.567 33.7396 70.4211 33.5938C70.2753 33.4479 70.1191 33.3125 69.9524 33.1875C69.7857 33.0625 69.5566 33 69.2649 33C69.0357 32.4583 68.8066 31.9271 68.5774 31.4062C68.3482 30.8854 68.1816 30.3542 68.0774 29.8125C68.2649 29.7083 68.3691 29.5833 68.3899 29.4375C68.3899 29.2708 68.3899 29.1042 68.3899 28.9375C68.0566 28.8333 67.8899 28.7083 67.8899 28.5625C67.8691 28.3958 67.9003 28.2292 67.9836 28.0625C68.0461 27.8958 68.1191 27.7396 68.2024 27.5938C68.2649 27.4271 68.2232 27.2917 68.0774 27.1875C68.2441 25.9167 68.6086 24.6875 69.1711 23.5C69.7336 22.3125 70.5357 21.3229 71.5774 20.5312C71.4524 20.1354 71.4836 19.8333 71.6711 19.625C71.8795 19.4167 72.1191 19.3021 72.3899 19.2812C72.6816 19.2604 72.9524 19.3333 73.2024 19.5C73.4732 19.6458 73.6086 19.8854 73.6086 20.2188C73.6295 20.3646 73.6191 20.5104 73.5774 20.6562C73.5357 20.8021 73.4941 20.9375 73.4524 21.0625C73.3274 21.6875 73.1399 22.2917 72.8899 22.875C72.6399 23.4583 72.3691 24.0312 72.0774 24.5938C71.7857 25.1562 71.4836 25.7188 71.1711 26.2812C70.8795 26.8438 70.6295 27.4271 70.4211 28.0312C70.1711 28.1979 70.0878 28.375 70.1711 28.5625C70.2545 28.75 70.3586 28.9375 70.4836 29.125C70.6295 29.2917 70.7024 29.4583 70.7024 29.625C70.7232 29.7917 70.5357 29.9479 70.1399 30.0938C70.0149 30.3854 70.0461 30.6458 70.2336 30.875C70.4211 31.0833 70.5774 31.3021 70.7024 31.5312C70.8691 31.5521 71.0253 31.5521 71.1711 31.5312C71.3378 31.5104 71.4732 31.4167 71.5774 31.25C71.8274 31.4167 72.0461 31.4479 72.2336 31.3438C72.442 31.2396 72.6503 31.1146 72.8586 30.9688C73.0878 30.8021 73.3274 30.6667 73.5774 30.5625C73.8482 30.4583 74.1503 30.4896 74.4836 30.6562C74.6295 30.5104 74.7441 30.3333 74.8274 30.125C74.9316 29.9167 75.0357 29.7188 75.1399 29.5312C75.2441 29.3438 75.3691 29.1875 75.5149 29.0625C75.6816 28.9375 75.9107 28.8958 76.2024 28.9375C76.4941 28.4167 76.8795 27.9896 77.3586 27.6562C77.8378 27.3021 78.317 26.9688 78.7961 26.6562C79.2961 26.3438 79.7336 26.0104 80.1086 25.6562C80.5045 25.3021 80.7545 24.8438 80.8586 24.2812C81.2545 23.6562 81.6503 22.9583 82.0461 22.1875C82.4628 21.3958 82.942 20.7396 83.4836 20.2188C83.5461 20.0521 83.6503 19.9271 83.7961 19.8438C83.942 19.7396 84.0982 19.6771 84.2649 19.6562C84.4316 19.6146 84.5982 19.625 84.7649 19.6875C84.9316 19.7292 85.0774 19.8125 85.2024 19.9375C85.2441 20.3125 85.192 20.6562 85.0461 20.9688C84.9211 21.2812 84.7753 21.5938 84.6086 21.9062C84.4628 22.1979 84.3482 22.5104 84.2649 22.8438C84.1816 23.1771 84.2128 23.5625 84.3586 24C84.067 24.1667 83.7753 24.3125 83.4836 24.4375C83.2128 24.5625 82.9524 24.6979 82.7024 24.8438C82.4732 24.9896 82.2649 25.1771 82.0774 25.4062C81.9107 25.6354 81.7961 25.9375 81.7336 26.3125C82.2961 26.5208 82.6295 26.7812 82.7336 27.0938C82.8378 27.4062 82.8899 27.75 82.8899 28.125C82.8899 28.4792 82.9107 28.8542 82.9524 29.25C83.0149 29.625 83.2857 30 83.7649 30.375C83.8482 30.4375 83.9003 30.4896 83.9211 30.5312C83.9628 30.5521 84.0357 30.5833 84.1399 30.625C84.3482 30.6875 84.5357 30.6875 84.7024 30.625C84.8691 30.5417 85.0253 30.4688 85.1711 30.4062C85.3378 30.3438 85.5045 30.3229 85.6711 30.3438C85.8586 30.3438 86.067 30.4688 86.2961 30.7188C86.6086 30.3229 86.9003 30.3229 87.1711 30.7188C87.4211 30.2604 87.6503 30 87.8586 29.9375C88.067 29.875 88.2649 29.8542 88.4524 29.875C88.6607 29.8958 88.8691 29.875 89.0774 29.8125C89.2857 29.75 89.5149 29.4896 89.7649 29.0312L90.0461 29.3125C90.1711 28.9792 90.317 28.8229 90.4836 28.8438C90.6711 28.8438 90.8482 28.875 91.0149 28.9375C91.1816 28.9792 91.3274 28.9792 91.4524 28.9375C91.5774 28.875 91.6399 28.625 91.6399 28.1875C91.8274 28.1875 91.9836 28.1458 92.1086 28.0625C92.2545 27.9792 92.3899 27.8854 92.5149 27.7812C92.6607 27.6771 92.817 27.5938 92.9836 27.5312C93.1503 27.4479 93.3482 27.4062 93.5774 27.4062L92.7649 29.375L90.0461 31.4375ZM113.577 10.4062C113.286 10.7188 112.963 10.8854 112.609 10.9062C112.254 10.9062 111.9 10.875 111.546 10.8125C111.213 10.75 110.879 10.7292 110.546 10.75C110.234 10.75 109.963 10.9167 109.734 11.25C109.4 11.1667 109.057 11.1562 108.702 11.2188C108.348 11.2604 107.984 11.3333 107.609 11.4375C107.234 11.5208 106.859 11.6042 106.484 11.6875C106.109 11.7708 105.734 11.8021 105.359 11.7812L104.827 11.25C104.682 11.4792 104.473 11.625 104.202 11.6875C103.952 11.7292 103.702 11.6667 103.452 11.5C103.015 11.7917 102.577 11.9271 102.14 11.9062C101.702 11.8854 101.275 11.875 100.859 11.875C100.442 11.8542 100.046 11.9375 99.6711 12.125C99.317 12.2917 99.0149 12.7188 98.7649 13.4062C98.5774 13.8854 98.4003 14.375 98.2336 14.875C98.067 15.3542 97.9003 15.8333 97.7336 16.3125C97.2753 17.5625 96.8066 18.8021 96.3274 20.0312C95.8691 21.2396 95.3482 22.4375 94.7649 23.625C94.7232 24.5625 94.7441 25.5104 94.8274 26.4688C94.9107 27.4271 95.0045 28.375 95.1086 29.3125C95.0253 29.5625 94.9941 29.8229 95.0149 30.0938C95.0566 30.3646 95.1295 30.6354 95.2336 30.9062C95.3378 31.1771 95.4628 31.4375 95.6086 31.6875C95.7545 31.9167 95.9107 32.125 96.0774 32.3125L96.6399 31.7812L97.4211 32.875C97.6295 32.6042 97.8691 32.3229 98.1399 32.0312C98.4316 31.7188 98.7336 31.4375 99.0461 31.1875C99.3586 30.9167 99.6816 30.6979 100.015 30.5312C100.369 30.3438 100.723 30.2188 101.077 30.1562C101.223 30.0104 101.359 29.8542 101.484 29.6875C101.609 29.5208 101.744 29.3854 101.89 29.2812C102.036 29.1562 102.192 29.0729 102.359 29.0312C102.546 28.9688 102.765 28.9792 103.015 29.0625C103.682 28.6875 104.275 28.2188 104.796 27.6562C105.317 27.0729 105.838 26.5 106.359 25.9375C106.879 25.3542 107.421 24.8229 107.984 24.3438C108.567 23.8646 109.244 23.5312 110.015 23.3438C109.515 24.5521 108.879 25.7292 108.109 26.875C107.338 28 106.473 29.0104 105.515 29.9062C105.265 30.1979 104.952 30.4583 104.577 30.6875C104.411 30.7917 104.234 30.9062 104.046 31.0312C103.859 31.1354 103.682 31.2396 103.515 31.3438C102.952 31.7188 102.411 32.125 101.89 32.5625C101.369 32.9792 100.869 33.4479 100.39 33.9688C100.327 33.8438 100.244 33.7604 100.14 33.7188C100.036 33.6771 99.9107 33.6562 99.7649 33.6562C99.6399 33.6562 99.5045 33.6667 99.3586 33.6875C99.2336 33.7083 99.1191 33.7083 99.0149 33.6875C98.6191 33.9792 98.0982 34.2083 97.4524 34.375C96.8274 34.5625 96.2649 34.6042 95.7649 34.5C95.6191 34.4583 95.4211 34.375 95.1711 34.25C94.9211 34.1458 94.7336 34.0521 94.6086 33.9688C93.7961 33.4271 93.1816 32.7604 92.7649 31.9688C92.3691 31.1562 92.1503 30.2708 92.1086 29.3125L91.8586 29.0625C92.1295 28.8125 92.2961 28.5625 92.3586 28.3125C92.442 28.0625 92.4628 27.8125 92.4211 27.5625C92.4003 27.2917 92.3482 27.0208 92.2649 26.75C92.2024 26.4583 92.1607 26.1667 92.1399 25.875C92.1191 25.6875 92.1191 25.5312 92.1399 25.4062C92.1816 25.2812 92.2232 25.1354 92.2649 24.9688C92.4316 24.3021 92.5878 23.6562 92.7336 23.0312C92.8795 22.3854 93.0357 21.7396 93.2024 21.0938C93.6191 19.5104 94.0982 17.9479 94.6399 16.4062C95.2024 14.8438 95.7857 13.3021 96.3899 11.7812C96.0566 11.6562 95.7232 11.5833 95.3899 11.5625C95.0566 11.5208 94.7128 11.5 94.3586 11.5C94.0253 11.5 93.6816 11.4896 93.3274 11.4688C92.9941 11.4479 92.6607 11.375 92.3274 11.25C92.1816 11.1875 92.1086 11.1562 92.1086 11.1562C92.1086 11.1354 92.0253 11.125 91.8586 11.125C91.7545 11.125 91.6086 11.1458 91.4211 11.1875C91.2336 11.2083 91.0461 11.2188 90.8586 11.2188C90.6711 11.2188 90.5045 11.1979 90.3586 11.1562C90.192 11.1146 90.0982 11.0208 90.0774 10.875V10.5625C90.0982 10.2292 90.1711 10.0104 90.2961 9.90625C90.4211 9.78125 90.5774 9.70833 90.7649 9.6875C90.9524 9.64583 91.1607 9.625 91.3899 9.625C91.6191 9.60417 91.8378 9.53125 92.0461 9.40625C92.6295 9.53125 93.1816 9.625 93.7024 9.6875C94.2232 9.72917 94.7232 9.71875 95.2024 9.65625C95.7024 9.59375 96.1816 9.45833 96.6399 9.25C97.1191 9.04167 97.5878 8.72917 98.0461 8.3125C98.3795 7.66667 98.6295 6.97917 98.7961 6.25C98.9628 5.5 99.1503 4.77083 99.3586 4.0625C99.5878 3.33333 99.8795 2.66667 100.234 2.0625C100.588 1.4375 101.129 0.916667 101.859 0.5C102.192 0.458333 102.484 0.5 102.734 0.625C102.984 0.75 103.234 0.885417 103.484 1.03125C103.379 1.32292 103.296 1.625 103.234 1.9375C103.171 2.25 103.098 2.5625 103.015 2.875C102.952 3.1875 102.869 3.48958 102.765 3.78125C102.661 4.07292 102.504 4.34375 102.296 4.59375C102.567 4.69792 102.723 4.82292 102.765 4.96875C102.807 5.11458 102.786 5.27083 102.702 5.4375C102.619 5.60417 102.515 5.78125 102.39 5.96875C102.265 6.15625 102.192 6.32292 102.171 6.46875C101.942 6.48958 101.744 6.63542 101.577 6.90625C101.432 7.17708 101.275 7.38542 101.109 7.53125C100.942 7.88542 100.973 8.1875 101.202 8.4375C101.432 8.6875 101.64 8.92708 101.827 9.15625C102.015 9.21875 102.202 9.22917 102.39 9.1875C102.577 9.125 102.744 9.0625 102.89 9C103.057 8.9375 103.213 8.90625 103.359 8.90625C103.504 8.90625 103.64 8.98958 103.765 9.15625C103.973 8.92708 104.182 8.83333 104.39 8.875C104.598 8.89583 104.807 8.94792 105.015 9.03125C105.223 9.09375 105.432 9.125 105.64 9.125C105.848 9.10417 106.046 8.9375 106.234 8.625C106.484 8.5 106.713 8.46875 106.921 8.53125C107.15 8.59375 107.359 8.67708 107.546 8.78125C107.734 8.86458 107.911 8.9375 108.077 9C108.265 9.04167 108.452 9 108.64 8.875C108.952 8.91667 109.296 8.92708 109.671 8.90625C110.067 8.88542 110.452 8.84375 110.827 8.78125C111.223 8.71875 111.609 8.64583 111.984 8.5625C112.379 8.45833 112.734 8.375 113.046 8.3125C113.359 8.5 113.546 8.66667 113.609 8.8125C113.671 8.95833 113.682 9.10417 113.64 9.25C113.619 9.39583 113.577 9.5625 113.515 9.75C113.473 9.91667 113.494 10.1354 113.577 10.4062ZM124.265 32.3125C124.39 32.3958 124.442 32.4688 124.421 32.5312C124.4 32.5938 124.348 32.6562 124.265 32.7188C124.202 32.7812 124.119 32.8333 124.015 32.875C123.911 32.8958 123.827 32.9167 123.765 32.9375L122.827 33.125C122.036 33.2917 121.286 33.5208 120.577 33.8125C119.869 34.125 119.15 34.4271 118.421 34.7188C118.338 34.6146 118.223 34.5417 118.077 34.5C117.952 34.4583 117.838 34.5 117.734 34.625C117.754 34.6875 117.765 34.7812 117.765 34.9062C117.765 35.1562 117.754 35.3542 117.734 35.5C117.713 35.6667 117.671 35.8125 117.609 35.9375C117.567 36.0625 117.494 36.1771 117.39 36.2812C117.286 36.4062 117.15 36.5521 116.984 36.7188C116.775 36.9271 116.807 37.0312 117.077 37.0312C116.932 37.2188 116.775 37.3229 116.609 37.3438C116.567 37.3646 116.504 37.375 116.421 37.375C116.379 37.375 116.338 37.3854 116.296 37.4062C116.275 37.4479 116.296 37.5312 116.359 37.6562C116.421 37.8021 116.463 37.8958 116.484 37.9375C116.484 37.9583 116.452 38.0104 116.39 38.0938C116.327 38.1771 116.265 38.2604 116.202 38.3438C116.14 38.4479 116.088 38.5417 116.046 38.625C116.004 38.7292 116.004 38.8125 116.046 38.875V39.125C116.15 39.1667 116.15 39.1979 116.046 39.2188C115.963 39.2604 115.911 39.2812 115.89 39.2812C115.869 39.2812 115.807 39.3229 115.702 39.4062C115.598 39.5104 115.546 39.5729 115.546 39.5938C115.504 39.6354 115.452 39.6562 115.39 39.6562C115.348 39.6771 115.296 39.7083 115.234 39.75C115.213 39.75 115.182 39.7812 115.14 39.8438C115.119 39.9271 115.098 40.0104 115.077 40.0938C115.057 40.1771 115.036 40.2604 115.015 40.3438C114.994 40.4271 114.994 40.4792 115.015 40.5C115.015 40.7708 114.984 41 114.921 41.1875C114.879 41.375 114.827 41.6042 114.765 41.875C114.682 42.2083 114.557 42.4375 114.39 42.5625C114.244 42.7083 114.088 42.8333 113.921 42.9375C113.754 43.0625 113.588 43.1979 113.421 43.3438C113.275 43.4896 113.161 43.7292 113.077 44.0625C113.057 44.1458 113.036 44.2188 113.015 44.2812C112.994 44.3229 112.984 44.375 112.984 44.4375V44.5C112.9 44.6458 112.827 44.7604 112.765 44.8438C112.723 44.9479 112.682 45.0417 112.64 45.125C112.598 45.2083 112.567 45.3021 112.546 45.4062C112.525 45.5104 112.515 45.6354 112.515 45.7812C112.557 45.8438 112.557 45.9375 112.515 46.0625C112.494 46.1875 112.452 46.3125 112.39 46.4375C112.327 46.5625 112.254 46.6875 112.171 46.8125C112.109 46.9375 112.057 47.0312 112.015 47.0938C111.952 47.1979 111.879 47.3021 111.796 47.4062C111.713 47.5104 111.629 47.6146 111.546 47.7188C111.109 48.3229 110.744 48.9167 110.452 49.5C110.015 50.375 109.484 51.2083 108.859 52C108.734 52.1458 108.588 52.3021 108.421 52.4688C108.275 52.6354 108.161 52.8021 108.077 52.9688V53.1875C108.077 53.6042 107.963 53.9167 107.734 54.125C107.504 54.3333 107.223 54.5312 106.89 54.7188C106.786 54.8021 106.671 54.8854 106.546 54.9688C106.421 55.0521 106.317 55.1562 106.234 55.2812C106.109 55.4479 105.942 55.6562 105.734 55.9062C105.504 56.1562 105.296 56.3333 105.109 56.4375C105.067 56.4375 104.932 56.4271 104.702 56.4062C104.473 56.3854 104.338 56.375 104.296 56.375C104.254 56.3958 104.192 56.4375 104.109 56.5C104.004 56.5625 103.9 56.625 103.796 56.6875C103.692 56.75 103.588 56.8021 103.484 56.8438C103.379 56.8854 103.317 56.8958 103.296 56.875C103.171 56.8125 103.067 56.7812 102.984 56.7812C102.942 56.7812 102.9 56.8021 102.859 56.8438C102.796 56.9062 102.744 56.9583 102.702 57C102.536 56.9583 102.411 56.9375 102.327 56.9375C102.286 56.9375 102.223 56.8958 102.14 56.8125C102.036 56.7292 101.942 56.625 101.859 56.5C101.754 56.3958 101.671 56.2917 101.609 56.1875C101.525 56.0833 101.473 56.0104 101.452 55.9688C101.307 55.7396 101.223 55.4688 101.202 55.1562C101.182 54.8438 101.192 54.5104 101.234 54.1562C101.254 53.8229 101.296 53.4896 101.359 53.1562C101.421 52.8229 101.484 52.5312 101.546 52.2812C101.65 51.8646 101.744 51.4375 101.827 51C101.911 50.5833 101.952 50.1667 101.952 49.75C101.952 49.6458 101.973 49.5625 102.015 49.5C102.057 49.4375 102.098 49.375 102.14 49.3125C102.182 49.2708 102.192 49.2188 102.171 49.1562C102.15 49.1146 102.129 49.0729 102.109 49.0312C102.088 48.9688 102.109 48.8438 102.171 48.6562C102.234 48.4688 102.317 48.2604 102.421 48.0312C102.504 47.8229 102.598 47.6146 102.702 47.4062C102.786 47.2188 102.848 47.0938 102.89 47.0312C103.307 46.2812 103.692 45.4896 104.046 44.6562C104.379 43.8229 104.817 43.0729 105.359 42.4062C105.671 42.0312 105.984 41.6562 106.296 41.2812C106.609 40.9062 106.911 40.5104 107.202 40.0938C107.327 39.9271 107.432 39.8021 107.515 39.7188C107.64 39.5521 107.827 39.4167 108.077 39.3125C108.327 39.2083 108.567 39.1771 108.796 39.2188C108.817 39.2188 108.911 39.1562 109.077 39.0312C109.265 38.9062 109.369 38.8333 109.39 38.8125C109.473 38.5417 109.609 38.25 109.796 37.9375C109.984 37.6458 110.171 37.3854 110.359 37.1562C110.484 37.0104 110.65 36.9062 110.859 36.8438C111.067 36.7812 111.286 36.7188 111.515 36.6562C111.765 36.5938 112.004 36.5104 112.234 36.4062C112.463 36.3229 112.671 36.1667 112.859 35.9375C113.004 35.7708 113.192 35.5729 113.421 35.3438C113.671 35.1146 113.911 34.9583 114.14 34.875C114.348 34.9167 114.629 34.8854 114.984 34.7812C115.359 34.6771 115.609 34.5312 115.734 34.3438C115.838 34.1979 115.89 33.9583 115.89 33.625C115.89 33.4583 115.952 33.25 116.077 33C116.223 32.75 116.338 32.5625 116.421 32.4375C116.525 32.2708 116.609 32.1042 116.671 31.9375C116.734 31.7708 116.796 31.6042 116.859 31.4375C116.9 31.3333 116.932 31.2396 116.952 31.1562C116.973 31.0521 116.994 30.9479 117.015 30.8438C117.036 30.8229 117.077 30.75 117.14 30.625C117.202 30.5 117.265 30.375 117.327 30.25C117.411 30.125 117.473 30.0104 117.515 29.9062C117.577 29.7812 117.598 29.7083 117.577 29.6875C117.577 29.6667 117.515 29.6458 117.39 29.625C117.265 29.6042 117.129 29.5938 116.984 29.5938C116.859 29.5729 116.734 29.5625 116.609 29.5625C116.484 29.5417 116.411 29.5312 116.39 29.5312C116.307 29.5312 116.182 29.5625 116.015 29.625C115.869 29.6875 115.702 29.7604 115.515 29.8438C115.348 29.9271 115.202 30.0208 115.077 30.125C114.952 30.2083 114.879 30.2708 114.859 30.3125C114.192 30.5417 113.525 30.6667 112.859 30.6875C112.192 30.7083 111.525 30.8438 110.859 31.0938C110.463 31.2396 110.025 31.3542 109.546 31.4375C109.088 31.5 108.64 31.5208 108.202 31.5C108.182 31.5 108.119 31.4896 108.015 31.4688C107.911 31.4271 107.796 31.3854 107.671 31.3438C107.546 31.2812 107.432 31.2292 107.327 31.1875C107.223 31.1458 107.161 31.125 107.14 31.125C107.036 31.0833 106.932 31.0104 106.827 30.9062C106.744 30.7812 106.661 30.6562 106.577 30.5312C106.515 30.3854 106.452 30.25 106.39 30.125C106.327 29.9792 106.275 29.8646 106.234 29.7812C106.129 29.5521 106.046 29.3229 105.984 29.0938C105.9 28.8646 105.838 28.6354 105.796 28.4062C105.775 28.4062 105.765 28.3229 105.765 28.1562C105.765 28.0729 105.754 28 105.734 27.9375C105.65 27.375 105.598 26.75 105.577 26.0625C105.536 25.375 105.671 24.7812 105.984 24.2812C106.067 24.1354 106.161 23.9792 106.265 23.8125C106.369 23.625 106.473 23.4688 106.577 23.3438C106.661 23.2396 106.734 23.1562 106.796 23.0938C106.859 23.0312 106.932 22.9479 107.015 22.8438C107.036 22.8021 107.077 22.7604 107.14 22.7188C107.202 22.6562 107.234 22.6146 107.234 22.5938C107.463 22.3646 107.671 22.125 107.859 21.875C108.046 21.625 108.223 21.375 108.39 21.125C108.432 21.0625 108.494 20.9896 108.577 20.9062C108.661 20.8021 108.744 20.7083 108.827 20.625C108.932 20.5208 109.036 20.4479 109.14 20.4062C109.244 20.3438 109.338 20.3333 109.421 20.375C109.525 20.375 109.619 20.375 109.702 20.375C109.807 20.375 109.911 20.3854 110.015 20.4062C110.119 20.5729 110.192 20.7083 110.234 20.8125C110.296 20.9167 110.327 21.0312 110.327 21.1562C110.348 21.2604 110.348 21.3854 110.327 21.5312C110.327 21.6562 110.327 21.8125 110.327 22C110.223 22.0833 110.109 22.1667 109.984 22.25C109.859 22.3333 109.734 22.4167 109.609 22.5C109.567 22.5417 109.494 22.6771 109.39 22.9062C109.307 23.1354 109.213 23.3958 109.109 23.6875C109.025 23.9583 108.942 24.2292 108.859 24.5C108.796 24.75 108.754 24.9062 108.734 24.9688C108.609 25.5104 108.39 26.0521 108.077 26.5938C107.786 27.1354 107.452 27.6042 107.077 28L107.046 28.0938C107.192 28.2396 107.317 28.3854 107.421 28.5312C107.546 28.6562 107.671 28.7812 107.796 28.9062C108.046 28.9062 108.286 28.875 108.515 28.8125C108.619 28.8958 108.723 28.9792 108.827 29.0625C108.952 29.1458 109.057 29.2396 109.14 29.3438C109.411 29.3438 109.65 29.3438 109.859 29.3438C110.088 29.3438 110.296 29.3333 110.484 29.3125C110.692 29.2917 110.9 29.25 111.109 29.1875C111.317 29.125 111.536 29.0208 111.765 28.875C111.848 28.8333 111.973 28.7604 112.14 28.6562C112.307 28.5312 112.442 28.4688 112.546 28.4688L113.671 28.2812C113.859 28.1979 114.036 28.1042 114.202 28C114.39 27.875 114.567 27.7604 114.734 27.6562C114.838 27.5938 114.952 27.5417 115.077 27.5C115.223 27.4375 115.348 27.3854 115.452 27.3438C116.098 27.0521 116.65 26.6667 117.109 26.1875C117.588 25.7083 118.077 25.2292 118.577 24.75C118.973 24.375 119.348 23.9479 119.702 23.4688C120.077 22.9688 120.379 22.4792 120.609 22C120.754 21.6458 120.921 21.2917 121.109 20.9375C121.296 20.5625 121.504 20.2292 121.734 19.9375C121.9 19.75 122.14 19.5938 122.452 19.4688C122.765 19.3438 123.046 19.2604 123.296 19.2188C123.463 19.1771 123.619 19.2396 123.765 19.4062C123.911 19.5521 123.984 19.6979 123.984 19.8438C124.004 20.2396 123.994 20.5729 123.952 20.8438C123.911 21.1146 123.838 21.3646 123.734 21.5938C123.629 21.8021 123.494 22.0208 123.327 22.25C123.161 22.4583 122.952 22.7188 122.702 23.0312L121.984 23.9688C121.963 24.0104 121.963 24.0417 121.984 24.0625C122.025 24.0833 122.057 24.1146 122.077 24.1562C122.098 24.1979 122.098 24.2708 122.077 24.375C122.057 24.4583 122.025 24.5625 121.984 24.6875C121.942 24.8125 121.9 24.9271 121.859 25.0312C121.817 25.1354 121.786 25.1979 121.765 25.2188C121.744 25.2188 121.723 25.25 121.702 25.3125C121.682 25.3542 121.65 25.3958 121.609 25.4375L121.484 25.625C121.213 26.0208 120.984 26.4167 120.796 26.8125C120.629 27.1875 120.567 27.6146 120.609 28.0938C120.609 28.2812 120.557 28.4479 120.452 28.5938C120.369 28.7396 120.265 28.8958 120.14 29.0625C120.015 29.2083 119.89 29.3854 119.765 29.5938C119.64 29.8021 119.557 30.0833 119.515 30.4375C119.494 30.5208 119.484 30.5938 119.484 30.6562C119.484 30.6979 119.473 30.7292 119.452 30.75C119.452 30.7708 119.452 30.7917 119.452 30.8125V30.875C119.348 31.2917 119.234 31.6562 119.109 31.9688C118.984 32.2604 118.838 32.6146 118.671 33.0312C118.692 33.0312 118.754 32.9792 118.859 32.875C118.984 32.7708 119.119 32.6667 119.265 32.5625C119.432 32.4583 119.598 32.3646 119.765 32.2812C119.952 32.1979 120.129 32.1875 120.296 32.25C120.421 32.2917 120.567 32.3125 120.734 32.3125C120.9 32.2917 121.057 32.2604 121.202 32.2188C121.369 32.1771 121.504 32.1458 121.609 32.125C121.713 32.0833 121.775 32.0625 121.796 32.0625C121.984 32.0625 122.161 32.0625 122.327 32.0625C122.494 32.0625 122.661 32.0729 122.827 32.0938C122.848 32.1146 122.911 32.125 123.015 32.125C123.14 32.125 123.275 32.1354 123.421 32.1562C123.588 32.1771 123.744 32.1979 123.89 32.2188C124.057 32.2396 124.182 32.2708 124.265 32.3125ZM114.827 36.5625C114.765 36.625 114.65 36.7396 114.484 36.9062C114.317 37.0938 114.129 37.2708 113.921 37.4375C113.734 37.625 113.546 37.7708 113.359 37.875C113.171 38 113.036 38.0417 112.952 38L112.702 38.125C112.494 38.2292 112.359 38.375 112.296 38.5625C112.234 38.75 112.171 38.9479 112.109 39.1562C112.067 39.3646 112.004 39.5625 111.921 39.75C111.859 39.9375 111.713 40.0833 111.484 40.1875C111.213 40.0625 111.015 39.9688 110.89 39.9062C110.786 39.8438 110.692 39.8229 110.609 39.8438C110.525 39.8646 110.432 39.9375 110.327 40.0625C110.223 40.2083 110.046 40.4167 109.796 40.6875C109.213 41.3542 108.619 42.0104 108.015 42.6562C107.432 43.3229 106.838 43.9896 106.234 44.6562C106.088 45.0729 105.911 45.5 105.702 45.9375C105.473 46.375 105.244 46.8021 105.015 47.2188C104.765 47.6562 104.546 48.1562 104.359 48.7188C104.171 49.2812 104.015 49.8542 103.89 50.4375C103.744 51.0417 103.629 51.6458 103.546 52.25C103.442 52.8542 103.359 53.4167 103.296 53.9375C103.317 53.9792 103.39 53.9896 103.515 53.9688C103.64 53.9688 103.775 53.9479 103.921 53.9062C104.046 53.8854 104.171 53.8542 104.296 53.8125C104.421 53.7917 104.504 53.7708 104.546 53.75C104.567 53.75 104.619 53.7083 104.702 53.625C104.786 53.5417 104.879 53.4479 104.984 53.3438C105.067 53.2396 105.15 53.1354 105.234 53.0312C105.296 52.9479 105.327 52.8958 105.327 52.875C105.411 52.8333 105.557 52.7708 105.765 52.6875C105.973 52.6042 106.119 52.5625 106.202 52.5625C106.244 52.5625 106.275 52.4792 106.296 52.3125C106.296 52.1458 106.296 52.0417 106.296 52V51.4688C106.254 51.4271 106.244 51.3125 106.265 51.125C106.265 50.9375 106.265 50.8229 106.265 50.7812C106.494 50.6771 106.713 50.5729 106.921 50.4688C107.15 50.3646 107.379 50.25 107.609 50.125C107.671 49.9375 107.744 49.7396 107.827 49.5312C107.911 49.3438 108.004 49.1562 108.109 48.9688C108.525 48.1771 108.921 47.3854 109.296 46.5938C109.671 45.8229 110.098 45.0417 110.577 44.25C110.932 43.6667 111.265 43.0729 111.577 42.4688C111.911 41.8854 112.254 41.2917 112.609 40.6875C112.629 40.6458 112.671 40.5625 112.734 40.4375C112.817 40.3125 112.9 40.1875 112.984 40.0625C113.088 39.9375 113.182 39.8229 113.265 39.7188C113.369 39.6354 113.452 39.5938 113.515 39.5938C113.619 39.5938 113.682 39.5104 113.702 39.3438C113.723 39.1979 113.734 39.0938 113.734 39.0312C113.734 38.9479 113.786 38.7708 113.89 38.5C114.015 38.25 114.14 37.9792 114.265 37.6875C114.411 37.4167 114.536 37.1667 114.64 36.9375C114.765 36.7083 114.827 36.5833 114.827 36.5625ZM167.64 21.7812C167.64 22.1979 167.411 22.6771 166.952 23.2188C166.515 23.7396 165.952 24.2917 165.265 24.875C164.577 25.4375 163.807 26.0104 162.952 26.5938C162.119 27.1562 161.286 27.6875 160.452 28.1875C159.64 28.6875 158.879 29.1354 158.171 29.5312C157.484 29.9062 156.942 30.1979 156.546 30.4062C156.109 30.6354 155.661 30.8438 155.202 31.0312C154.744 31.2188 154.307 31.4375 153.89 31.6875C153.682 31.7917 153.494 31.9167 153.327 32.0625C153.161 32.1875 152.994 32.3125 152.827 32.4375C152.473 32.6875 152.14 32.8438 151.827 32.9062C151.515 32.9688 151.234 33.0417 150.984 33.125C150.754 33.2083 150.577 33.3542 150.452 33.5625C150.327 33.7917 150.265 34.1667 150.265 34.6875C149.723 34.6875 149.192 34.6354 148.671 34.5312C148.15 34.4479 147.629 34.4062 147.109 34.4062C146.775 34.4062 146.452 34.4479 146.14 34.5312C145.848 34.6354 145.546 34.7396 145.234 34.8438C144.942 34.9479 144.64 35.0417 144.327 35.125C144.036 35.2292 143.723 35.2812 143.39 35.2812H141.984C141.838 35.0729 141.682 34.9062 141.515 34.7812C141.348 34.6562 141.171 34.5417 140.984 34.4375C140.817 34.3542 140.64 34.2708 140.452 34.1875C140.286 34.1042 140.119 33.9896 139.952 33.8438C139.723 33.6146 139.484 33.3438 139.234 33.0312C138.984 32.7188 138.744 32.4167 138.515 32.125C138.098 31.625 137.754 31.0625 137.484 30.4375C137.192 29.8125 136.963 29.1667 136.796 28.5C136.609 27.8125 136.473 27.125 136.39 26.4375C136.307 25.7292 136.265 25.0625 136.265 24.4375C136.265 24.2917 136.327 24.0208 136.452 23.625C136.557 23.2083 136.692 22.7708 136.859 22.3125C137.004 21.8542 137.161 21.4167 137.327 21C137.494 20.5833 137.619 20.2917 137.702 20.125C137.702 20.0625 137.786 19.9062 137.952 19.6562C138.098 19.3854 138.286 19.0729 138.515 18.7188C138.744 18.3646 138.994 17.9792 139.265 17.5625C139.536 17.125 139.796 16.7188 140.046 16.3438C140.296 15.9688 140.515 15.6354 140.702 15.3438C140.89 15.0312 141.025 14.8125 141.109 14.6875C141.234 14.5 141.452 14.1875 141.765 13.75C142.098 13.3125 142.484 12.8229 142.921 12.2812C143.359 11.7396 143.827 11.1875 144.327 10.625C144.827 10.0625 145.307 9.5625 145.765 9.125C146.244 8.66667 146.671 8.32292 147.046 8.09375C147.442 7.84375 147.744 7.76042 147.952 7.84375C148.827 6.67708 149.932 5.82292 151.265 5.28125C152.598 4.71875 153.973 4.4375 155.39 4.4375C155.869 4.4375 156.348 4.41667 156.827 4.375C157.327 4.3125 157.807 4.42708 158.265 4.71875C158.473 5.09375 158.692 5.59375 158.921 6.21875C159.171 6.84375 159.39 7.51042 159.577 8.21875C159.786 8.90625 159.952 9.58333 160.077 10.25C160.202 10.8958 160.265 11.4271 160.265 11.8438C160.265 12.3438 160.15 12.8125 159.921 13.25C159.713 13.6875 159.452 14.1146 159.14 14.5312C158.827 14.9479 158.504 15.3646 158.171 15.7812C157.859 16.1771 157.598 16.5833 157.39 17C157.223 17.3333 157.015 17.8021 156.765 18.4062C156.536 19.0104 156.265 19.6146 155.952 20.2188C155.64 20.8021 155.296 21.3125 154.921 21.75C154.546 22.1875 154.14 22.4062 153.702 22.4062C153.473 22.4062 153.223 22.2708 152.952 22C152.682 21.7292 152.546 21.4792 152.546 21.25C152.546 20.3958 152.682 19.5833 152.952 18.8125C153.223 18.0417 153.557 17.3021 153.952 16.5938C154.348 15.8646 154.786 15.1562 155.265 14.4688C155.744 13.7604 156.182 13.0521 156.577 12.3438C156.973 11.6354 157.307 10.9167 157.577 10.1875C157.848 9.4375 157.984 8.65625 157.984 7.84375C157.984 7.55208 157.952 7.23958 157.89 6.90625C157.848 6.55208 157.682 6.29167 157.39 6.125H155.952C155.411 6.125 154.838 6.16667 154.234 6.25C153.629 6.3125 153.119 6.55208 152.702 6.96875C152.536 7.13542 152.369 7.32292 152.202 7.53125C152.057 7.71875 151.9 7.89583 151.734 8.0625C151.692 8.10417 151.629 8.17708 151.546 8.28125C151.463 8.36458 151.369 8.45833 151.265 8.5625C151.182 8.66667 151.088 8.76042 150.984 8.84375C150.9 8.92708 150.838 8.97917 150.796 9C150.713 9.04167 150.619 9.08333 150.515 9.125C150.432 9.16667 150.348 9.20833 150.265 9.25C150.098 9.33333 149.932 9.41667 149.765 9.5C149.598 9.5625 149.432 9.64583 149.265 9.75C148.827 10.0417 148.432 10.3854 148.077 10.7812C147.744 11.1771 147.411 11.5833 147.077 12C146.765 12.4167 146.432 12.8125 146.077 13.1875C145.723 13.5625 145.307 13.875 144.827 14.125C144.286 15.0208 143.682 15.9688 143.015 16.9688C142.369 17.9479 141.754 18.9583 141.171 20C140.588 21.0417 140.098 22.1042 139.702 23.1875C139.307 24.2708 139.109 25.3438 139.109 26.4062C139.109 26.8438 139.15 27.3542 139.234 27.9375C139.317 28.5 139.463 29.0521 139.671 29.5938C139.879 30.1354 140.14 30.6146 140.452 31.0312C140.786 31.4479 141.202 31.7188 141.702 31.8438C141.848 31.8854 141.994 31.9062 142.14 31.9062C142.307 31.8854 142.463 31.875 142.609 31.875C142.754 31.875 142.89 31.8854 143.015 31.9062C143.161 31.9271 143.286 32 143.39 32.125H145.109C145.504 32.125 145.869 32.0938 146.202 32.0312C146.536 31.9688 146.859 31.8854 147.171 31.7812C147.484 31.6562 147.796 31.5312 148.109 31.4062C148.421 31.2604 148.754 31.1146 149.109 30.9688C149.317 30.9062 149.504 30.8438 149.671 30.7812C149.838 30.7188 150.015 30.6562 150.202 30.5938C150.661 30.4688 151.109 30.3646 151.546 30.2812C151.984 30.1979 152.411 30.0521 152.827 29.8438C153.327 29.5938 153.796 29.3125 154.234 29C154.692 28.6875 155.171 28.3958 155.671 28.125C155.817 28.0625 155.994 28.0208 156.202 28C156.432 27.9792 156.661 27.9688 156.89 27.9688C157.119 27.9479 157.327 27.9271 157.515 27.9062C157.723 27.8854 157.869 27.8333 157.952 27.75C158.14 27.5625 158.317 27.375 158.484 27.1875C158.671 26.9792 158.869 26.7812 159.077 26.5938C159.432 26.5312 159.765 26.3958 160.077 26.1875C160.39 25.9792 160.723 25.8438 161.077 25.7812C161.182 25.7396 161.275 25.6979 161.359 25.6562C161.463 25.5938 161.567 25.5312 161.671 25.4688C161.963 25.3021 162.244 25.125 162.515 24.9375C162.786 24.75 163.057 24.5729 163.327 24.4062C164.661 23.5104 166.004 22.6354 167.359 21.7812H167.64ZM185.171 29.7188C184.879 30.2188 184.65 30.625 184.484 30.9375C184.338 31.2292 184.182 31.4792 184.015 31.6875C183.869 31.875 183.692 32.0521 183.484 32.2188C183.296 32.3646 183.025 32.5521 182.671 32.7812C182.442 32.9896 182.213 33.1667 181.984 33.3125C181.796 33.4583 181.609 33.5833 181.421 33.6875C181.254 33.7917 181.119 33.8438 181.015 33.8438C180.973 33.8438 180.932 33.8333 180.89 33.8125C180.848 33.8125 180.807 33.8125 180.765 33.8125C180.64 33.8125 180.515 33.8125 180.39 33.8125C180.286 33.8333 180.192 33.7604 180.109 33.5938C180.046 33.6562 179.994 33.7292 179.952 33.8125C179.911 33.8958 179.869 33.9688 179.827 34.0312C179.786 34.1146 179.723 34.1771 179.64 34.2188C179.577 34.2604 179.484 34.2604 179.359 34.2188L179.202 34.0312L178.734 34.4375C178.15 34.1458 177.588 33.8958 177.046 33.6875C176.525 33.5 176.057 33.2708 175.64 33C175.223 32.7292 174.869 32.3854 174.577 31.9688C174.286 31.5312 174.077 30.9375 173.952 30.1875C173.848 30.0625 173.734 29.9583 173.609 29.875C173.484 29.7708 173.338 29.7396 173.171 29.7812C172.963 30.1354 172.713 30.4375 172.421 30.6875C172.129 30.9375 171.838 31.2083 171.546 31.5C171.442 31.6042 171.359 31.7188 171.296 31.8438C171.234 31.9688 171.15 32.0833 171.046 32.1875C170.879 32.375 170.682 32.5104 170.452 32.5938C170.223 32.6562 169.994 32.7188 169.765 32.7812C169.536 32.8438 169.317 32.9479 169.109 33.0938C168.921 33.2396 168.786 33.4896 168.702 33.8438C168.452 33.6979 168.202 33.6562 167.952 33.7188C167.765 33.7604 167.567 33.8021 167.359 33.8438C167.15 33.9062 166.942 33.9375 166.734 33.9375C166.546 33.9583 166.359 33.9375 166.171 33.875C165.984 33.8125 165.817 33.6771 165.671 33.4688C165.379 33.5938 165.109 33.5833 164.859 33.4375C164.609 33.3125 164.369 33.1354 164.14 32.9062C163.932 32.6562 163.723 32.3958 163.515 32.125C163.307 31.8542 163.109 31.6562 162.921 31.5312C162.796 31.1979 162.807 30.9167 162.952 30.6875C163.077 30.4375 163.223 30.2083 163.39 30C163.536 29.7708 163.64 29.5521 163.702 29.3438C163.765 29.1146 163.671 28.8438 163.421 28.5312C163.629 28.2188 163.817 27.8958 163.984 27.5625C164.15 27.2083 164.317 26.8646 164.484 26.5312C164.671 26.1771 164.859 25.8438 165.046 25.5312C165.254 25.1979 165.504 24.9167 165.796 24.6875C165.671 24.5417 165.609 24.4062 165.609 24.2812C165.609 24.1354 165.64 24 165.702 23.875C165.765 23.7292 165.838 23.5938 165.921 23.4688C166.004 23.3229 166.067 23.1875 166.109 23.0625L167.015 22.625L166.796 21.875C167.025 21.9167 167.192 21.9062 167.296 21.8438C167.421 21.7812 167.504 21.6875 167.546 21.5625C167.609 21.4375 167.65 21.3021 167.671 21.1562C167.713 20.9896 167.765 20.8438 167.827 20.7188C167.932 20.5312 168.088 20.3958 168.296 20.3125C168.734 19.9792 169.161 19.625 169.577 19.25C170.015 18.875 170.442 18.5104 170.859 18.1562C171.296 17.8021 171.744 17.4688 172.202 17.1562C172.661 16.8229 173.161 16.5417 173.702 16.3125C174.077 16.375 174.369 16.4896 174.577 16.6562C174.807 16.8229 174.973 17.0208 175.077 17.25C175.202 17.4792 175.296 17.7396 175.359 18.0312C175.421 18.3021 175.484 18.5729 175.546 18.8438C175.65 19.1979 175.775 19.5 175.921 19.75C176.067 20 176.317 20.2083 176.671 20.375C176.379 20.875 176.265 21.375 176.327 21.875C176.39 22.3542 176.452 22.8646 176.515 23.4062C176.577 23.9062 176.567 24.3958 176.484 24.875C176.421 25.3542 176.119 25.7812 175.577 26.1562C175.536 26.3021 175.525 26.4583 175.546 26.625C175.567 26.7917 175.577 26.9583 175.577 27.125C175.577 27.2917 175.546 27.4479 175.484 27.5938C175.421 27.7396 175.307 27.8542 175.14 27.9375C175.327 28.1667 175.421 28.3958 175.421 28.625C175.442 28.8542 175.452 29.0729 175.452 29.2812C175.473 29.4896 175.525 29.6771 175.609 29.8438C175.713 30.0104 175.942 30.1354 176.296 30.2188C176.359 30.4896 176.411 30.6979 176.452 30.8438C176.515 30.9688 176.577 31.0729 176.64 31.1562C176.723 31.2396 176.827 31.3229 176.952 31.4062C177.077 31.4688 177.244 31.5729 177.452 31.7188C177.619 31.7604 177.807 31.7604 178.015 31.7188C178.223 31.6771 178.39 31.7396 178.515 31.9062C178.619 31.8021 178.744 31.75 178.89 31.75C179.036 31.7292 179.171 31.7292 179.296 31.75L179.702 32.4375C179.932 32.2708 180.192 32.125 180.484 32C180.775 31.875 181.057 31.7708 181.327 31.6875C181.64 31.6042 181.952 31.5312 182.265 31.4688L185.171 29.7188ZM173.171 19.0312C172.984 19.1979 172.754 19.3646 172.484 19.5312C172.213 19.6979 171.942 19.875 171.671 20.0625C171.421 20.25 171.202 20.4583 171.015 20.6875C170.827 20.8958 170.713 21.1458 170.671 21.4375C170.192 21.5208 169.859 21.7188 169.671 22.0312C169.484 22.3438 169.327 22.6875 169.202 23.0625C169.077 23.4375 168.942 23.8125 168.796 24.1875C168.65 24.5417 168.39 24.8229 168.015 25.0312C167.89 25.1146 167.775 25.1562 167.671 25.1562C167.692 25.1562 167.629 25.1979 167.484 25.2812C167.254 25.4479 167.057 25.6562 166.89 25.9062C166.723 26.1562 166.577 26.4271 166.452 26.7188C166.348 27.0104 166.244 27.3125 166.14 27.625C166.057 27.9167 165.973 28.1875 165.89 28.4375C165.598 28.4792 165.379 28.5417 165.234 28.625C165.088 28.7083 164.994 28.8021 164.952 28.9062C164.932 28.9896 164.942 29.0938 164.984 29.2188C165.025 29.3438 165.088 29.4792 165.171 29.625C165.254 29.75 165.338 29.8958 165.421 30.0625C165.525 30.2292 165.609 30.3958 165.671 30.5625C165.734 30.7292 165.765 30.8958 165.765 31.0625C165.786 31.2292 165.744 31.3854 165.64 31.5312C165.932 31.7604 166.213 31.8125 166.484 31.6875C166.754 31.5417 167.004 31.3854 167.234 31.2188C167.317 31.1562 167.4 31.0938 167.484 31.0312C167.588 30.9479 167.692 30.8854 167.796 30.8438C168.275 30.9479 168.713 30.9167 169.109 30.75C169.504 30.5833 169.869 30.3542 170.202 30.0625C170.536 29.7708 170.859 29.4583 171.171 29.125C171.484 28.7917 171.796 28.5 172.109 28.25L171.859 28C172.234 27.8958 172.494 27.7604 172.64 27.5938C172.807 27.4062 172.911 27.1979 172.952 26.9688C172.994 26.7396 172.994 26.5 172.952 26.25C172.911 25.9792 172.879 25.6979 172.859 25.4062C172.838 25.2396 172.827 25.0833 172.827 24.9375C172.848 24.7708 172.89 24.6042 172.952 24.4375C172.786 23.9583 172.754 23.5 172.859 23.0625C172.984 22.625 173.14 22.2083 173.327 21.8125C173.536 21.3958 173.734 20.9792 173.921 20.5625C174.109 20.1458 174.202 19.7083 174.202 19.25L173.171 19.0312ZM206.452 26.8125C205.973 27.0417 205.65 27.3229 205.484 27.6562C205.317 27.9896 205.182 28.3333 205.077 28.6875C204.994 29.0417 204.879 29.3854 204.734 29.7188C204.609 30.0312 204.327 30.2917 203.89 30.5C203.786 30.875 203.577 31.1354 203.265 31.2812C202.973 31.4271 202.661 31.5625 202.327 31.6875C201.994 31.7917 201.692 31.9375 201.421 32.125C201.171 32.3125 201.046 32.6354 201.046 33.0938C200.629 33.3229 200.171 33.5312 199.671 33.7188C199.192 33.9062 198.682 34.0417 198.14 34.125C197.619 34.2292 197.098 34.2708 196.577 34.25C196.057 34.2292 195.567 34.125 195.109 33.9375C194.796 33.7917 194.494 33.6042 194.202 33.375C194.098 33.2917 193.994 33.2188 193.89 33.1562C193.807 33.1146 193.713 33.0417 193.609 32.9375C193.359 32.6875 193.15 32.3958 192.984 32.0625C192.817 31.7292 192.682 31.375 192.577 31C192.473 30.625 192.39 30.25 192.327 29.875C192.265 29.5 192.213 29.1458 192.171 28.8125L193.327 25.6875C192.723 25.2083 192.234 24.6562 191.859 24.0312C191.484 23.3854 191.025 22.7917 190.484 22.25C190.379 22.3958 190.244 22.5208 190.077 22.625C189.911 22.7292 189.848 22.8958 189.89 23.125L190.202 23.4062C189.515 24.1562 188.817 25.0104 188.109 25.9688C187.421 26.9062 186.879 27.8542 186.484 28.8125C186.025 28.7917 185.702 28.9062 185.515 29.1562C185.327 29.3854 185.171 29.6562 185.046 29.9688C184.921 30.2604 184.765 30.5312 184.577 30.7812C184.39 31.0312 184.077 31.1354 183.64 31.0938C183.536 31.3229 183.432 31.5729 183.327 31.8438C183.223 32.0938 183.098 32.3333 182.952 32.5625C182.807 32.7917 182.629 32.9792 182.421 33.125C182.213 33.2917 181.952 33.375 181.64 33.375C181.473 33.2083 181.379 33.0312 181.359 32.8438C181.338 32.6562 181.359 32.4688 181.421 32.2812C181.484 32.0729 181.567 31.875 181.671 31.6875C181.775 31.4792 181.848 31.2812 181.89 31.0938C182.057 30.4896 182.359 29.9479 182.796 29.4688C183.234 28.9688 183.671 28.4792 184.109 28C184.546 27.5 184.921 26.9792 185.234 26.4375C185.546 25.8958 185.671 25.2604 185.609 24.5312C185.879 24.5104 186.15 24.4583 186.421 24.375C186.713 24.2708 186.973 24.1458 187.202 24C187.452 23.8333 187.64 23.6354 187.765 23.4062C187.911 23.1562 187.963 22.8646 187.921 22.5312C187.754 22.4479 187.661 22.3333 187.64 22.1875C187.619 22.0208 187.619 21.8542 187.64 21.6875C188.098 21.5417 188.463 21.2917 188.734 20.9375C189.025 20.5625 189.286 20.1667 189.515 19.75C189.744 19.3333 189.963 18.9167 190.171 18.5C190.4 18.0625 190.692 17.6875 191.046 17.375C191.338 17.5417 191.629 17.6875 191.921 17.8125C192.213 17.9167 192.494 18.0625 192.765 18.25C192.577 18.5 192.463 18.7396 192.421 18.9688C192.379 19.1979 192.359 19.4375 192.359 19.6875C192.359 19.9167 192.359 20.1458 192.359 20.375C192.359 20.6042 192.296 20.8438 192.171 21.0938C192.504 21.3854 192.786 21.7292 193.015 22.125C193.244 22.5208 193.536 22.8542 193.89 23.125C194.14 22.9375 194.421 22.8438 194.734 22.8438C195.046 22.8229 195.359 22.8229 195.671 22.8438C196.004 22.8438 196.317 22.8229 196.609 22.7812C196.9 22.7188 197.14 22.5417 197.327 22.25C197.411 22.3333 197.536 22.375 197.702 22.375C197.869 22.375 198.036 22.375 198.202 22.375C198.369 22.375 198.515 22.4062 198.64 22.4688C198.765 22.5104 198.838 22.6042 198.859 22.75C198.879 22.9167 198.869 23.0312 198.827 23.0938C198.807 23.1562 198.775 23.2604 198.734 23.4062C198.692 23.5729 198.682 23.6562 198.702 23.6562C198.723 23.6562 198.702 23.7292 198.64 23.875C198.536 24.1458 198.359 24.375 198.109 24.5625C197.879 24.75 197.64 24.9375 197.39 25.125C197.161 25.2917 196.942 25.4896 196.734 25.7188C196.546 25.9271 196.452 26.1979 196.452 26.5312C195.994 26.6979 195.671 26.9479 195.484 27.2812C195.296 27.5938 195.171 27.9583 195.109 28.375C195.046 28.7708 195.004 29.1875 194.984 29.625C194.963 30.0417 194.89 30.4271 194.765 30.7812L195.046 31.0938L195.296 30.7812C195.588 31.1979 195.932 31.4583 196.327 31.5625C196.744 31.6667 197.171 31.6979 197.609 31.6562C197.817 31.3438 198.057 31.0938 198.327 30.9062C198.619 30.7188 198.921 30.5625 199.234 30.4375C199.567 30.3125 199.9 30.1979 200.234 30.0938C200.588 29.9896 200.921 29.8646 201.234 29.7188C201.484 29.5938 201.692 29.4583 201.859 29.3125C202.046 29.1667 202.244 29 202.452 28.8125C203.077 28.2292 203.692 27.6562 204.296 27.0938C204.921 26.5312 205.546 25.9583 206.171 25.375C206.296 25.375 206.379 25.4375 206.421 25.5625C206.463 25.6875 206.484 25.8333 206.484 26C206.484 26.1458 206.473 26.3021 206.452 26.4688C206.452 26.6146 206.452 26.7292 206.452 26.8125ZM228.046 23.4375C227.859 23.625 227.713 23.7708 227.609 23.875C227.525 23.9792 227.442 24.0833 227.359 24.1875C227.296 24.2708 227.213 24.3646 227.109 24.4688C227.025 24.5729 226.89 24.7292 226.702 24.9375C226.536 25.1042 226.379 25.2812 226.234 25.4688C226.088 25.6562 225.921 25.8229 225.734 25.9688C225.484 25.9062 225.286 25.9375 225.14 26.0625C225.015 26.1875 224.89 26.3333 224.765 26.5C224.661 26.6458 224.557 26.7917 224.452 26.9375C224.369 27.0625 224.254 27.1146 224.109 27.0938C223.609 27.3646 223.109 27.6042 222.609 27.8125C222.109 28 221.629 28.2812 221.171 28.6562L220.921 28.4062L217.671 29.9688C217.567 30.0104 217.463 30.0729 217.359 30.1562C217.254 30.2396 217.15 30.3125 217.046 30.375C216.588 30.625 216.109 30.8542 215.609 31.0625C215.129 31.25 214.65 31.4271 214.171 31.5938L213.765 31.7188C213.932 32.1354 213.932 32.4271 213.765 32.5938C213.598 32.7604 213.359 32.8854 213.046 32.9688C212.734 33.0312 212.39 33.0729 212.015 33.0938C211.64 33.1146 211.348 33.1875 211.14 33.3125C210.89 33.2708 210.629 33.25 210.359 33.25C210.109 33.2708 209.848 33.3021 209.577 33.3438C209.286 33.3854 209.015 33.4062 208.765 33.4062C208.515 33.4062 208.244 33.375 207.952 33.3125H207.89C207.536 33.4792 207.223 33.5104 206.952 33.4062C206.702 33.3229 206.473 33.1771 206.265 32.9688C206.057 32.7396 205.859 32.4792 205.671 32.1875C205.504 31.875 205.327 31.5938 205.14 31.3438C205.015 31.1771 204.859 30.9375 204.671 30.625C204.484 30.3125 204.327 29.9792 204.202 29.625C204.057 29.2708 203.973 28.9167 203.952 28.5625C203.911 28.1875 203.984 27.8646 204.171 27.5938C204.359 27.3229 204.515 27.0312 204.64 26.7188C204.744 26.4062 204.796 26.0417 204.796 25.625C204.796 25.4792 204.796 25.3438 204.796 25.2188C204.775 25.0938 204.765 24.9583 204.765 24.8125C204.869 24.8125 204.984 24.8229 205.109 24.8438C205.234 24.8438 205.348 24.8438 205.452 24.8438C205.577 24.8229 205.671 24.7812 205.734 24.7188C205.817 24.6354 205.859 24.5 205.859 24.3125C205.859 24.2083 205.817 24.125 205.734 24.0625C205.671 24 205.629 23.9375 205.609 23.875C205.734 23.6875 205.848 23.5417 205.952 23.4375C206.077 23.3125 206.182 23.1979 206.265 23.0938C206.348 22.9688 206.411 22.8333 206.452 22.6875C206.494 22.5208 206.484 22.3021 206.421 22.0312C206.671 21.5938 206.963 21.2083 207.296 20.875C207.65 20.5208 208.015 20.1979 208.39 19.9062C208.765 19.5938 209.15 19.2917 209.546 19C209.942 18.7083 210.317 18.3958 210.671 18.0625C211.067 18.2292 211.379 18.2292 211.609 18.0625C211.859 17.8958 212.077 17.7188 212.265 17.5312C212.452 17.3229 212.64 17.1562 212.827 17.0312C213.015 16.9062 213.265 16.9583 213.577 17.1875L213.64 17.25C214.202 16.6875 214.765 16.4375 215.327 16.5C215.911 16.5625 216.4 16.75 216.796 17.0625C217.213 17.375 217.484 17.7396 217.609 18.1562C217.734 18.5521 217.619 18.8229 217.265 18.9688C217.494 19.1979 217.609 19.4688 217.609 19.7812C217.609 20.0938 217.525 20.3646 217.359 20.5938C217.171 20.8438 217.004 21.1042 216.859 21.375C216.734 21.625 216.598 21.8958 216.452 22.1875C216.244 22.6667 216.015 23.125 215.765 23.5625C215.515 23.9792 215.161 24.3333 214.702 24.625C214.327 24.5208 214.067 24.5625 213.921 24.75C213.796 24.9375 213.702 25.1458 213.64 25.375C213.577 25.5833 213.504 25.75 213.421 25.875C213.338 26 213.161 25.9583 212.89 25.75L212.827 25.6875L212.765 25.75C212.598 25.9167 212.463 26.1042 212.359 26.3125C212.275 26.5208 212.15 26.6771 211.984 26.7812C211.796 26.7188 211.598 26.6667 211.39 26.625C211.182 26.5833 210.984 26.5417 210.796 26.5C210.796 26.9375 210.713 27.2812 210.546 27.5312C210.379 27.7812 210.161 27.9896 209.89 28.1562C209.64 28.3021 209.348 28.4271 209.015 28.5312C208.682 28.6146 208.348 28.7292 208.015 28.875C207.702 29 207.4 29.1667 207.109 29.375C206.838 29.5625 206.619 29.8333 206.452 30.1875C206.661 30.4167 206.921 30.5521 207.234 30.5938C207.546 30.6146 207.869 30.6146 208.202 30.5938C208.536 30.5521 208.859 30.5312 209.171 30.5312C209.504 30.5312 209.796 30.6146 210.046 30.7812L210.077 30.8125L210.109 30.7812C210.609 30.7188 211.088 30.6042 211.546 30.4375C212.025 30.25 212.484 30.0625 212.921 29.875C213.379 29.6667 213.838 29.4792 214.296 29.3125C214.775 29.125 215.265 28.9896 215.765 28.9062C215.869 29.0729 216.004 29.1667 216.171 29.1875C216.359 29.2083 216.536 29.1979 216.702 29.1562L216.734 29.0938C216.775 28.9479 216.817 28.8229 216.859 28.7188C216.9 28.5938 216.963 28.4583 217.046 28.3125C217.192 28.0833 217.369 27.9062 217.577 27.7812C217.786 27.6562 218.004 27.5625 218.234 27.5C218.484 27.4375 218.744 27.3958 219.015 27.375C219.286 27.3542 219.557 27.3229 219.827 27.2812H219.89L219.921 27.1875C220.004 26.9375 220.109 26.7708 220.234 26.6875C220.379 26.5833 220.525 26.5104 220.671 26.4688C220.838 26.4271 221.004 26.3958 221.171 26.375C221.359 26.3542 221.536 26.2917 221.702 26.1875C222.077 26.3125 222.39 26.2708 222.64 26.0625C222.89 25.8542 223.129 25.6354 223.359 25.4062L223.609 25.7188L223.702 25.5938C224.015 25.3021 224.244 25.0833 224.39 24.9375C224.557 24.7917 224.713 24.6667 224.859 24.5625C225.004 24.4375 225.171 24.3229 225.359 24.2188C225.567 24.0938 225.848 23.9167 226.202 23.6875C226.494 23.5 226.775 23.3125 227.046 23.125C227.338 22.9375 227.619 22.7292 227.89 22.5C227.994 22.5417 228.046 22.625 228.046 22.75C228.046 22.8542 228.046 22.9583 228.046 23.0625C228.025 23.1042 228.004 23.1667 227.984 23.25C227.984 23.3333 228.004 23.3958 228.046 23.4375ZM215.109 19.5312C215.088 19.5104 215.067 19.5 215.046 19.5C215.046 19.5 215.036 19.4896 215.015 19.4688C214.577 19.2396 214.213 19.1354 213.921 19.1562C213.629 19.1562 213.359 19.2396 213.109 19.4062C212.879 19.5521 212.661 19.75 212.452 20C212.265 20.2292 212.057 20.4479 211.827 20.6562C211.619 20.8438 211.369 20.9896 211.077 21.0938C210.786 21.1979 210.432 21.1875 210.015 21.0625C209.952 21.3958 209.89 21.7292 209.827 22.0625C209.786 22.375 209.754 22.6979 209.734 23.0312C209.379 23.1562 209.098 23.3333 208.89 23.5625C208.702 23.7917 208.536 24.0417 208.39 24.3125C208.265 24.5833 208.14 24.875 208.015 25.1875C207.911 25.4792 207.765 25.7604 207.577 26.0312L207.702 26.1875C207.786 26.1458 207.879 26.1771 207.984 26.2812C208.088 26.3854 208.161 26.4583 208.202 26.5C208.432 26.1667 208.734 25.8854 209.109 25.6562C209.504 25.4271 209.9 25.2188 210.296 25.0312C210.713 24.8229 211.109 24.6042 211.484 24.375C211.859 24.1458 212.14 23.8438 212.327 23.4688C212.994 23.2812 213.494 22.9062 213.827 22.3438C214.161 21.7812 214.442 21.1979 214.671 20.5938C214.713 20.4688 214.786 20.2917 214.89 20.0625C215.015 19.8125 215.088 19.6354 215.109 19.5312Z" fill="#315316"/>
</svg>
