<svg width="25" height="26" viewBox="0 0 25 26" fill="none" xmlns="http://www.w3.org/2000/svg">
<path d="M15.2624 3.66667C15.2624 2.95942 14.9814 2.28115 14.4813 1.78105C13.9812 1.28095 13.303 1 12.5957 1C11.8885 1 11.2102 1.28095 10.7101 1.78105C10.21 2.28115 9.92905 2.95942 9.92905 3.66667M22.2757 9.928L24.1224 21.928C24.1808 22.3078 24.1564 22.6957 24.051 23.0652C23.9455 23.4348 23.7614 23.7771 23.5113 24.0689C23.2612 24.3606 22.9511 24.5948 22.602 24.7556C22.253 24.9163 21.8733 24.9997 21.4891 25H3.70239C3.3179 25 2.93794 24.9169 2.58858 24.7564C2.23921 24.5959 1.92869 24.3617 1.67831 24.0699C1.42793 23.7781 1.24362 23.4356 1.13799 23.0659C1.03237 22.6962 1.00794 22.308 1.06639 21.928L2.91305 9.928C3.00992 9.29812 3.32916 8.72376 3.81295 8.30894C4.29675 7.89412 4.9131 7.66627 5.55039 7.66667H19.6411C20.2781 7.66659 20.8941 7.89458 21.3777 8.30937C21.8612 8.72416 22.1802 9.29835 22.2771 9.928H22.2757Z" stroke="#121212" stroke-width="1.5" stroke-linecap="round" stroke-linejoin="round"/>
</svg>
