<svg width="30" height="18" viewBox="0 0 30 18" fill="none" xmlns="http://www.w3.org/2000/svg">
<path d="M7.6557 14H0.135703V0.52H7.5557V1.94H1.7557V6.56H6.8757V7.98H1.7557V12.58H7.6557V14ZM18.0752 14H16.4952V7.44C16.4952 6.69333 16.3019 6.12667 15.9152 5.74C15.5419 5.34 15.0486 5.14 14.4352 5.14C13.6752 5.14 13.0152 5.43333 12.4552 6.02C11.9086 6.60667 11.6352 7.42 11.6352 8.46V14H10.0752V3.86H11.6352V5.62C12.2352 4.35333 13.3019 3.72 14.8352 3.72C15.8219 3.72 16.6086 4.02 17.1952 4.62C17.7819 5.22 18.0752 6.02 18.0752 7.02V14ZM29.056 13.18C29.056 14.7267 28.6293 15.8867 27.776 16.66C26.9227 17.4467 25.8227 17.84 24.476 17.84C23.2493 17.84 22.2027 17.6333 21.336 17.22V15.64C22.1893 16.1333 23.1893 16.38 24.336 16.38C25.3093 16.38 26.076 16.12 26.636 15.6C27.196 15.08 27.476 14.2667 27.476 13.16V12.02C26.8093 13.1667 25.816 13.74 24.496 13.74C23.336 13.74 22.3427 13.3133 21.516 12.46C20.7027 11.6067 20.296 10.42 20.296 8.9C20.296 7.39333 20.676 6.15333 21.436 5.18C22.196 4.20667 23.1893 3.72 24.416 3.72C25.8027 3.72 26.8227 4.32667 27.476 5.54V3.86H29.056V13.18ZM21.936 8.86C21.936 9.99333 22.216 10.86 22.776 11.46C23.336 12.0467 23.9693 12.34 24.676 12.34C25.4093 12.34 26.056 12.06 26.616 11.5C27.1893 10.9267 27.476 10.08 27.476 8.96C27.476 7.66667 27.2027 6.70667 26.656 6.08C26.1093 5.45333 25.476 5.14 24.756 5.14C23.8893 5.14 23.2027 5.48667 22.696 6.18C22.1893 6.86 21.936 7.75333 21.936 8.86Z" fill="#121212"/>
</svg>
