<svg width="96" height="23" viewBox="0 0 96 23" fill="none" xmlns="http://www.w3.org/2000/svg">
<path d="M21.784 22.448C20.8027 22.448 19.9173 22.2667 19.128 21.904C18.3387 21.52 17.5813 20.9653 16.856 20.24C16.152 19.5147 15.4373 18.6507 14.712 17.648C14.136 16.816 13.56 16.0053 12.984 15.216C12.4293 14.4267 11.7893 13.776 11.064 13.264C10.36 12.752 9.48533 12.496 8.44 12.496H7.544V19.12C7.544 19.7813 7.65067 20.2187 7.864 20.432C8.09867 20.6453 8.61067 20.8373 9.4 21.008L11.16 21.36V22H0.0880001V21.36L1.848 21.008C2.63733 20.8373 3.13867 20.6453 3.352 20.432C3.58667 20.2187 3.704 19.7813 3.704 19.12V3.344C3.704 2.66133 3.58667 2.21333 3.352 2C3.13867 1.78667 2.63733 1.60533 1.848 1.456L0.0880001 1.104V0.463999H9.048C12.12 0.463999 14.5093 0.986666 16.216 2.032C17.9227 3.07733 18.776 4.528 18.776 6.384C18.776 7.36533 18.488 8.25067 17.912 9.04C17.336 9.808 16.568 10.4373 15.608 10.928C14.648 11.3973 13.6027 11.696 12.472 11.824V11.888C13.4533 11.9307 14.3067 12.1973 15.032 12.688C15.7787 13.1573 16.44 13.776 17.016 14.544C17.6133 15.2907 18.2 16.08 18.776 16.912C19.3307 17.7013 19.8853 18.448 20.44 19.152C20.9947 19.8347 21.56 20.3893 22.136 20.816C22.7333 21.2427 23.3413 21.456 23.96 21.456V22.16C23.2347 22.352 22.5093 22.448 21.784 22.448ZM7.544 11.504H9.048C10.1573 11.504 11.1387 11.3227 11.992 10.96C12.8667 10.576 13.5493 10.0213 14.04 9.296C14.5307 8.57067 14.776 7.67467 14.776 6.608C14.776 4.90133 14.232 3.61067 13.144 2.736C12.0773 1.84 10.5733 1.392 8.632 1.392H7.544V11.504ZM35.256 22.352C34.1893 22.352 33.176 22.1813 32.216 21.84C31.256 21.4773 30.392 20.976 29.624 20.336C28.8773 19.6747 28.2907 18.8853 27.864 17.968C27.4373 17.0507 27.224 16.0373 27.224 14.928V3.344C27.224 2.66133 27.1067 2.21333 26.872 2C26.6587 1.78667 26.1573 1.60533 25.368 1.456L23.608 1.104V0.463999H34.68V1.104L32.92 1.456C32.1307 1.60533 31.6187 1.78667 31.384 2C31.1707 2.21333 31.064 2.66133 31.064 3.344V14.8C31.064 16.5707 31.5547 17.9573 32.536 18.96C33.5173 19.9413 34.9147 20.432 36.728 20.432C37.8587 20.432 38.84 20.1973 39.672 19.728C40.504 19.2587 41.144 18.608 41.592 17.776C42.0613 16.9227 42.296 15.9413 42.296 14.832V3.44C42.296 2.84267 42.1573 2.416 41.88 2.16C41.624 1.88267 41.144 1.68 40.44 1.552L38.264 1.104V0.463999H47.128V1.104L45.24 1.52C44.536 1.648 44.0453 1.84 43.768 2.096C43.512 2.352 43.384 2.78933 43.384 3.408V18.512C43 18.512 42.6587 18.6507 42.36 18.928C42.0827 19.2053 41.752 19.536 41.368 19.92C41.0267 20.2827 40.6107 20.656 40.12 21.04C39.6293 21.4027 38.9893 21.712 38.2 21.968C37.432 22.224 36.4507 22.352 35.256 22.352ZM61.0033 22.352C59.2113 22.352 57.5686 22.0747 56.0753 21.52C54.6033 20.944 53.3233 20.1547 52.2352 19.152C51.1686 18.1493 50.3366 16.9867 49.7393 15.664C49.1633 14.3413 48.8753 12.912 48.8753 11.376C48.8753 9.73333 49.1846 8.22933 49.8033 6.864C50.4219 5.49867 51.2753 4.31467 52.3633 3.312C53.4726 2.30933 54.7526 1.54133 56.2033 1.008C57.6539 0.453332 59.2113 0.175999 60.8753 0.175999C62.0699 0.175999 63.0299 0.271999 63.7553 0.463999C64.4806 0.634666 65.0993 0.815999 65.6112 1.008C66.0166 1.17867 66.4006 1.328 66.7633 1.456C67.1259 1.584 67.5313 1.648 67.9793 1.648C68.2139 1.648 68.4166 1.63733 68.5873 1.616C68.7579 1.57333 68.9499 1.53067 69.1633 1.488L69.2913 1.584C69.0993 2.33067 69.0459 3.184 69.1313 4.144C69.2379 5.08267 69.4193 6.14933 69.6753 7.344H68.9073C68.4593 6.256 67.8619 5.24267 67.1153 4.304C66.3686 3.344 65.4726 2.58667 64.4272 2.032C63.4033 1.456 62.2086 1.168 60.8433 1.168C59.4353 1.168 58.1339 1.59467 56.9392 2.448C55.7659 3.28 54.8273 4.464 54.1233 6C53.4193 7.51467 53.0673 9.296 53.0673 11.344C53.0673 13.2853 53.3979 15.0133 54.0593 16.528C54.7206 18.0427 55.6379 19.2373 56.8113 20.112C58.0059 20.9653 59.3819 21.392 60.9393 21.392C61.7286 21.392 62.5179 21.264 63.3073 21.008C64.0966 20.752 64.8539 20.368 65.5793 19.856C66.3046 19.344 66.9659 18.6933 67.5633 17.904C68.1819 17.0933 68.6939 16.1547 69.0993 15.088H69.9313C69.6753 16.112 69.4619 17.136 69.2913 18.16C69.1206 19.184 69.0246 20.176 69.0033 21.136H68.7473C68.2353 21.136 67.7019 21.1893 67.1473 21.296C66.5926 21.4027 66.0273 21.5307 65.4513 21.68C64.8113 21.8293 64.1286 21.9787 63.4033 22.128C62.6779 22.2773 61.8779 22.352 61.0033 22.352ZM83.893 22.352C82.229 22.352 80.7037 22.0747 79.317 21.52C77.9303 20.944 76.725 20.1653 75.701 19.184C74.677 18.1813 73.877 17.0293 73.301 15.728C72.7463 14.4053 72.469 12.9973 72.469 11.504C72.469 9.86133 72.7463 8.35733 73.301 6.992C73.877 5.62667 74.677 4.432 75.701 3.408C76.725 2.36267 77.9303 1.56267 79.317 1.008C80.7037 0.431999 82.2183 0.143999 83.861 0.143999C85.5463 0.143999 87.0823 0.431999 88.469 1.008C89.877 1.56267 91.093 2.352 92.117 3.376C93.141 4.37867 93.9303 5.54133 94.485 6.864C95.061 8.16533 95.349 9.57333 95.349 11.088C95.349 12.688 95.061 14.1813 94.485 15.568C93.9303 16.9333 93.141 18.128 92.117 19.152C91.093 20.1547 89.877 20.944 88.469 21.52C87.0823 22.0747 85.557 22.352 83.893 22.352ZM83.861 21.36C85.333 21.36 86.6023 20.9333 87.669 20.08C88.757 19.2053 89.5997 18 90.197 16.464C90.8157 14.9067 91.125 13.1253 91.125 11.12C91.125 9.2 90.8157 7.49333 90.197 6C89.5997 4.50667 88.757 3.33333 87.669 2.48C86.6023 1.62667 85.3437 1.2 83.893 1.2C82.4637 1.2 81.205 1.62667 80.117 2.48C79.0503 3.33333 78.2077 4.53867 77.589 6.096C76.9917 7.632 76.693 9.43467 76.693 11.504C76.693 12.912 76.8637 14.2133 77.205 15.408C77.5463 16.6027 78.037 17.648 78.677 18.544C79.317 19.44 80.0743 20.1333 80.949 20.624C81.845 21.1147 82.8157 21.36 83.861 21.36Z" fill="white"/>
</svg>
