<svg width="97" height="23" viewBox="0 0 97 23" fill="none" xmlns="http://www.w3.org/2000/svg">
<path d="M22.6264 22.448C21.6451 22.448 20.7597 22.2667 19.9704 21.904C19.1811 21.52 18.4237 20.9653 17.6984 20.24C16.9944 19.5147 16.2797 18.6507 15.5544 17.648C14.9784 16.816 14.4024 16.0053 13.8264 15.216C13.2717 14.4267 12.6317 13.776 11.9064 13.264C11.2024 12.752 10.3277 12.496 9.28241 12.496H8.38641V19.12C8.38641 19.7813 8.49307 20.2187 8.70641 20.432C8.94107 20.6453 9.45307 20.8373 10.2424 21.008L12.0024 21.36V22H0.930407V21.36L2.69041 21.008C3.47974 20.8373 3.98107 20.6453 4.19441 20.432C4.42907 20.2187 4.54641 19.7813 4.54641 19.12V3.344C4.54641 2.66133 4.42907 2.21333 4.19441 2C3.98107 1.78667 3.47974 1.60533 2.69041 1.456L0.930407 1.104V0.463999H9.89041C12.9624 0.463999 15.3517 0.986666 17.0584 2.032C18.7651 3.07733 19.6184 4.528 19.6184 6.384C19.6184 7.36533 19.3304 8.25067 18.7544 9.04C18.1784 9.808 17.4104 10.4373 16.4504 10.928C15.4904 11.3973 14.4451 11.696 13.3144 11.824V11.888C14.2957 11.9307 15.1491 12.1973 15.8744 12.688C16.6211 13.1573 17.2824 13.776 17.8584 14.544C18.4557 15.2907 19.0424 16.08 19.6184 16.912C20.1731 17.7013 20.7277 18.448 21.2824 19.152C21.8371 19.8347 22.4024 20.3893 22.9784 20.816C23.5757 21.2427 24.1837 21.456 24.8024 21.456V22.16C24.0771 22.352 23.3517 22.448 22.6264 22.448ZM8.38641 11.504H9.89041C10.9997 11.504 11.9811 11.3227 12.8344 10.96C13.7091 10.576 14.3917 10.0213 14.8824 9.296C15.3731 8.57067 15.6184 7.67467 15.6184 6.608C15.6184 4.90133 15.0744 3.61067 13.9864 2.736C12.9197 1.84 11.4157 1.392 9.47441 1.392H8.38641V11.504ZM36.0984 22.352C35.0317 22.352 34.0184 22.1813 33.0584 21.84C32.0984 21.4773 31.2344 20.976 30.4664 20.336C29.7197 19.6747 29.1331 18.8853 28.7064 17.968C28.2797 17.0507 28.0664 16.0373 28.0664 14.928V3.344C28.0664 2.66133 27.9491 2.21333 27.7144 2C27.5011 1.78667 26.9997 1.60533 26.2104 1.456L24.4504 1.104V0.463999H35.5224V1.104L33.7624 1.456C32.9731 1.60533 32.4611 1.78667 32.2264 2C32.0131 2.21333 31.9064 2.66133 31.9064 3.344V14.8C31.9064 16.5707 32.3971 17.9573 33.3784 18.96C34.3597 19.9413 35.7571 20.432 37.5704 20.432C38.7011 20.432 39.6824 20.1973 40.5144 19.728C41.3464 19.2587 41.9864 18.608 42.4344 17.776C42.9037 16.9227 43.1384 15.9413 43.1384 14.832V3.44C43.1384 2.84267 42.9997 2.416 42.7224 2.16C42.4664 1.88267 41.9864 1.68 41.2824 1.552L39.1064 1.104V0.463999H47.9704V1.104L46.0824 1.52C45.3784 1.648 44.8877 1.84 44.6104 2.096C44.3544 2.352 44.2264 2.78933 44.2264 3.408V18.512C43.8424 18.512 43.5011 18.6507 43.2024 18.928C42.9251 19.2053 42.5944 19.536 42.2104 19.92C41.8691 20.2827 41.4531 20.656 40.9624 21.04C40.4717 21.4027 39.8317 21.712 39.0424 21.968C38.2744 22.224 37.2931 22.352 36.0984 22.352ZM61.8457 22.352C60.0537 22.352 58.411 22.0747 56.9177 21.52C55.4457 20.944 54.1657 20.1547 53.0777 19.152C52.011 18.1493 51.179 16.9867 50.5817 15.664C50.0057 14.3413 49.7177 12.912 49.7177 11.376C49.7177 9.73333 50.027 8.22933 50.6457 6.864C51.2643 5.49867 52.1177 4.31467 53.2057 3.312C54.315 2.30933 55.595 1.54133 57.0457 1.008C58.4963 0.453332 60.0537 0.175999 61.7177 0.175999C62.9123 0.175999 63.8723 0.271999 64.5977 0.463999C65.323 0.634666 65.9417 0.815999 66.4537 1.008C66.859 1.17867 67.243 1.328 67.6057 1.456C67.9683 1.584 68.3737 1.648 68.8217 1.648C69.0563 1.648 69.259 1.63733 69.4297 1.616C69.6003 1.57333 69.7923 1.53067 70.0057 1.488L70.1337 1.584C69.9417 2.33067 69.8883 3.184 69.9737 4.144C70.0803 5.08267 70.2617 6.14933 70.5177 7.344H69.7497C69.3017 6.256 68.7043 5.24267 67.9577 4.304C67.211 3.344 66.315 2.58667 65.2697 2.032C64.2457 1.456 63.051 1.168 61.6857 1.168C60.2777 1.168 58.9763 1.59467 57.7817 2.448C56.6083 3.28 55.6697 4.464 54.9657 6C54.2617 7.51467 53.9097 9.296 53.9097 11.344C53.9097 13.2853 54.2403 15.0133 54.9017 16.528C55.563 18.0427 56.4803 19.2373 57.6537 20.112C58.8483 20.9653 60.2243 21.392 61.7817 21.392C62.571 21.392 63.3603 21.264 64.1497 21.008C64.939 20.752 65.6963 20.368 66.4217 19.856C67.147 19.344 67.8083 18.6933 68.4057 17.904C69.0243 17.0933 69.5363 16.1547 69.9417 15.088H70.7737C70.5177 16.112 70.3043 17.136 70.1337 18.16C69.963 19.184 69.867 20.176 69.8457 21.136H69.5897C69.0777 21.136 68.5443 21.1893 67.9897 21.296C67.435 21.4027 66.8697 21.5307 66.2937 21.68C65.6537 21.8293 64.971 21.9787 64.2457 22.128C63.5203 22.2773 62.7203 22.352 61.8457 22.352ZM84.7354 22.352C83.0714 22.352 81.5461 22.0747 80.1594 21.52C78.7727 20.944 77.5674 20.1653 76.5434 19.184C75.5194 18.1813 74.7194 17.0293 74.1434 15.728C73.5887 14.4053 73.3114 12.9973 73.3114 11.504C73.3114 9.86133 73.5887 8.35733 74.1434 6.992C74.7194 5.62667 75.5194 4.432 76.5434 3.408C77.5674 2.36267 78.7727 1.56267 80.1594 1.008C81.5461 0.431999 83.0607 0.143999 84.7034 0.143999C86.3887 0.143999 87.9247 0.431999 89.3114 1.008C90.7194 1.56267 91.9354 2.352 92.9594 3.376C93.9834 4.37867 94.7727 5.54133 95.3274 6.864C95.9034 8.16533 96.1914 9.57333 96.1914 11.088C96.1914 12.688 95.9034 14.1813 95.3274 15.568C94.7727 16.9333 93.9834 18.128 92.9594 19.152C91.9354 20.1547 90.7194 20.944 89.3114 21.52C87.9247 22.0747 86.3994 22.352 84.7354 22.352ZM84.7034 21.36C86.1754 21.36 87.4447 20.9333 88.5114 20.08C89.5994 19.2053 90.4421 18 91.0394 16.464C91.6581 14.9067 91.9674 13.1253 91.9674 11.12C91.9674 9.2 91.6581 7.49333 91.0394 6C90.4421 4.50667 89.5994 3.33333 88.5114 2.48C87.4447 1.62667 86.1861 1.2 84.7354 1.2C83.3061 1.2 82.0474 1.62667 80.9594 2.48C79.8927 3.33333 79.0501 4.53867 78.4314 6.096C77.8341 7.632 77.5354 9.43467 77.5354 11.504C77.5354 12.912 77.7061 14.2133 78.0474 15.408C78.3887 16.6027 78.8794 17.648 79.5194 18.544C80.1594 19.44 80.9167 20.1333 81.7914 20.624C82.6874 21.1147 83.6581 21.36 84.7034 21.36Z" fill="#121212"/>
</svg>
