<svg width="22" height="23" viewBox="0 0 22 23" fill="none" xmlns="http://www.w3.org/2000/svg">
<path fill-rule="evenodd" clip-rule="evenodd" d="M11 0.259033C4.925 0.259033 0 5.18403 0 11.259C0 17.334 4.925 22.259 11 22.259C17.075 22.259 22 17.334 22 11.259C22 5.18403 17.075 0.259033 11 0.259033ZM15.768 9.39903C15.8558 9.29868 15.9226 9.18177 15.9646 9.0552C16.0065 8.92863 16.0227 8.79495 16.0123 8.66202C16.0018 8.52909 15.9648 8.3996 15.9036 8.28116C15.8423 8.16273 15.758 8.05774 15.6555 7.97237C15.5531 7.88701 15.4346 7.823 15.3071 7.7841C15.1796 7.7452 15.0455 7.7322 14.9129 7.74586C14.7802 7.75953 14.6517 7.79958 14.5347 7.86367C14.4178 7.92775 14.3149 8.01458 14.232 8.11903L9.932 13.278L7.707 11.052C7.5184 10.8699 7.2658 10.7691 7.0036 10.7714C6.7414 10.7736 6.49059 10.8788 6.30518 11.0642C6.11977 11.2496 6.0146 11.5004 6.01233 11.7626C6.01005 12.0248 6.11084 12.2774 6.293 12.466L9.293 15.466C9.39126 15.5642 9.50889 15.6409 9.63842 15.6911C9.76794 15.7413 9.9065 15.764 10.0453 15.7577C10.184 15.7514 10.32 15.7162 10.4444 15.6545C10.5688 15.5927 10.6791 15.5057 10.768 15.399L15.768 9.39903Z" fill="#315316"/>
</svg>
