<svg width="22" height="21" viewBox="0 0 22 21" fill="none" xmlns="http://www.w3.org/2000/svg">
<path d="M5.17629 20.7251V6.96676H0.603301V20.7251H5.17629ZM2.89039 5.08716C4.48507 5.08716 5.47768 4.03068 5.47768 2.71043C5.44797 1.36041 4.48513 0.333252 2.92065 0.333252C1.35641 0.333252 0.333496 1.36043 0.333496 2.71043C0.333496 4.03074 1.32586 5.08716 2.86053 5.08716H2.89025H2.89039ZM7.70743 20.7251H12.2804V13.0418C12.2804 12.6306 12.3101 12.2198 12.4309 11.9258C12.7615 11.1043 13.5139 10.2534 14.7772 10.2534C16.432 10.2534 17.094 11.5151 17.094 13.3646V20.725H21.6667V12.8361C21.6667 8.61007 19.4106 6.64375 16.4018 6.64375C13.9349 6.64375 12.8517 8.02269 12.25 8.96187H12.2805V6.96647H7.70753C7.76755 8.25748 7.70753 20.7248 7.70753 20.7248L7.70743 20.7251Z" fill="white"/>
</svg>
