<svg width="18" height="16" viewBox="0 0 18 16" fill="none" xmlns="http://www.w3.org/2000/svg">
<path d="M17.6667 2.63118C17.0292 2.90618 16.3354 3.10409 15.6208 3.18118C16.3627 2.74042 16.9183 2.04409 17.1833 1.22284C16.4871 1.63699 15.7245 1.92739 14.9292 2.08118C14.5967 1.72582 14.1947 1.44272 13.7481 1.24953C13.3015 1.05633 12.8199 0.957186 12.3333 0.958261C10.3646 0.958261 8.78124 2.55409 8.78124 4.51243C8.78124 4.78743 8.81457 5.06243 8.86874 5.32701C5.92082 5.17284 3.29165 3.76451 1.54374 1.60826C1.22525 2.15225 1.05835 2.77165 1.0604 3.40201C1.0604 4.63534 1.68749 5.72284 2.64374 6.36243C2.08021 6.34023 1.52987 6.18534 1.03749 5.91034V5.95409C1.03749 7.68118 2.25832 9.11243 3.8854 9.4416C3.5799 9.52095 3.26563 9.56155 2.94999 9.56243C2.71874 9.56243 2.49999 9.53951 2.27915 9.50826C2.72915 10.9166 4.03957 11.9395 5.59999 11.9728C4.37915 12.9291 2.84999 13.4916 1.18957 13.4916C0.891655 13.4916 0.616654 13.4812 0.331238 13.4478C1.90624 14.4583 3.77499 15.0416 5.78749 15.0416C12.3208 15.0416 15.8958 9.6291 15.8958 4.93118C15.8958 4.77701 15.8958 4.62284 15.8854 4.46868C16.5771 3.96243 17.1833 3.33534 17.6667 2.63118Z" fill="white"/>
</svg>
