<svg width="18" height="14" viewBox="0 0 18 14" fill="none" xmlns="http://www.w3.org/2000/svg">
<path fill-rule="evenodd" clip-rule="evenodd" d="M7.16442 9.33581V4.34026L11.9671 6.84692L7.16442 9.33581ZM17.7111 3.47537C17.7111 3.47537 17.5378 2.24959 17.0044 1.71003C16.3289 1.00248 15.5706 0.998921 15.2231 0.957144C12.736 0.777588 9.00353 0.777588 9.00353 0.777588H8.99642C8.99642 0.777588 5.26486 0.777588 2.77686 0.957144C2.42931 0.998921 1.67197 1.00159 0.995528 1.71003C0.462195 2.24959 0.288862 3.47537 0.288862 3.47537C0.288862 3.47537 0.111084 4.91359 0.111084 6.3527V7.70114C0.111084 9.13937 0.288862 10.5785 0.288862 10.5785C0.288862 10.5785 0.462195 11.8034 0.995528 12.3429C1.67108 13.0514 2.55997 13.0283 2.95553 13.1029C4.37775 13.2389 8.99997 13.2807 8.99997 13.2807C8.99997 13.2807 12.736 13.2754 15.2231 13.0958C15.5706 13.054 16.3289 13.0514 17.0044 12.3429C17.5378 11.8034 17.7111 10.5785 17.7111 10.5785C17.7111 10.5785 17.8889 9.13937 17.8889 7.70114V6.3527C17.8889 4.91359 17.7111 3.47537 17.7111 3.47537Z" fill="white"/>
</svg>
