<svg width="1029" height="652" viewBox="0 0 1029 652" fill="none" xmlns="http://www.w3.org/2000/svg">
<path d="M108.108 65.8L26.3878 65.8L26.3878 199H110.088V176.68H53.0278V141.04H99.8278V118.72L53.0278 118.72L53.0278 87.94L108.108 87.94L108.108 65.8ZM164.31 65.8H137.13L137.13 199L162.33 199L162.33 145.54C162.33 130.24 160.35 113.5 159.09 99.1H159.99L173.49 127.72L212.01 199H239.01L239.01 65.8H213.81V118.9C213.81 134.02 215.79 151.66 217.23 165.52H216.33L203.01 136.72L164.31 65.8ZM353.674 65.8H271.954V199H355.654V176.68H298.594V141.04H345.394V118.72H298.594V87.94H353.674V65.8ZM427.876 148.6L455.236 199H484.936L453.796 144.46C469.096 138.52 479.176 126.46 479.176 106.12C479.176 75.34 457.216 65.8 429.136 65.8L382.696 65.8V199H409.336V148.6H427.876ZM426.616 127.54H409.336V86.86H426.616C443.896 86.86 453.076 91.72 453.076 106.12C453.076 120.52 443.896 127.54 426.616 127.54ZM562.632 201.52C581.352 201.52 596.652 194.32 605.832 185.5V125.38H558.492V147.16H582.072V173.44C578.292 176.86 571.812 178.48 565.332 178.48C539.232 178.48 525.912 161.02 525.912 132.04C525.912 103.42 541.392 86.14 563.532 86.14C575.772 86.14 583.152 91 589.632 97.3L603.852 80.38C595.212 71.56 581.892 63.28 562.632 63.28C527.352 63.28 498.732 89.02 498.732 132.94C498.732 177.4 526.092 201.52 562.632 201.52ZM716.135 65.8L634.415 65.8V199L718.115 199V176.68L661.055 176.68V141.04H707.855V118.72H661.055V87.94H716.135V65.8ZM734.177 87.94H771.617V199H798.257V87.94H836.057V65.8L734.177 65.8V87.94ZM884.297 65.8H857.657V199H884.297V65.8ZM971.431 201.52C988.891 201.52 1002.93 195.04 1013.91 181.9L999.871 165.34C992.671 173.08 983.851 178.48 972.331 178.48C951.271 178.48 937.591 161.02 937.591 132.04C937.591 103.42 952.711 86.14 972.871 86.14C982.951 86.14 990.691 90.82 997.351 97.3L1011.39 80.38C1002.75 71.2 989.611 63.28 972.331 63.28C938.671 63.28 910.411 89.02 910.411 132.94C910.411 177.4 937.591 201.52 971.431 201.52ZM108.108 290.8H26.3878L26.3878 424H110.088V401.68H53.0278L53.0278 366.04H99.8278L99.8278 343.72H53.0278L53.0278 312.94H108.108V290.8ZM164.31 290.8H137.13V424H162.33V370.54C162.33 355.24 160.35 338.5 159.09 324.1H159.99L173.49 352.72L212.01 424H239.01V290.8H213.81V343.9C213.81 359.02 215.79 376.66 217.23 390.52H216.33L203.01 361.72L164.31 290.8ZM353.674 290.8L271.954 290.8V424L355.654 424V401.68H298.594V366.04H345.394V343.72H298.594V312.94H353.674V290.8ZM427.876 373.6L455.236 424H484.936L453.796 369.46C469.096 363.52 479.176 351.46 479.176 331.12C479.176 300.34 457.216 290.8 429.136 290.8H382.696V424H409.336V373.6H427.876ZM426.616 352.54H409.336V311.86H426.616C443.896 311.86 453.076 316.72 453.076 331.12C453.076 345.52 443.896 352.54 426.616 352.54ZM562.632 426.52C581.352 426.52 596.652 419.32 605.832 410.5V350.38H558.492V372.16H582.072V398.44C578.292 401.86 571.812 403.48 565.332 403.48C539.232 403.48 525.912 386.02 525.912 357.04C525.912 328.42 541.392 311.14 563.532 311.14C575.772 311.14 583.152 316 589.632 322.3L603.852 305.38C595.212 296.56 581.892 288.28 562.632 288.28C527.352 288.28 498.732 314.02 498.732 357.94C498.732 402.4 526.092 426.52 562.632 426.52ZM716.135 290.8H634.415V424H718.115V401.68H661.055V366.04H707.855V343.72H661.055V312.94H716.135V290.8ZM734.177 312.94H771.617V424H798.257V312.94H836.057V290.8H734.177V312.94ZM884.297 290.8H857.657V424H884.297V290.8ZM971.431 426.52C988.891 426.52 1002.93 420.04 1013.91 406.9L999.871 390.34C992.671 398.08 983.851 403.48 972.331 403.48C951.271 403.48 937.591 386.02 937.591 357.04C937.591 328.42 952.711 311.14 972.871 311.14C982.951 311.14 990.691 315.82 997.351 322.3L1011.39 305.38C1002.75 296.2 989.611 288.28 972.331 288.28C938.671 288.28 910.411 314.02 910.411 357.94C910.411 402.4 937.591 426.52 971.431 426.52ZM108.108 515.8H26.3878L26.3878 649H110.088L110.088 626.68H53.0278L53.0278 591.04H99.8278V568.72H53.0278L53.0278 537.94H108.108V515.8ZM164.31 515.8H137.13V649H162.33V595.54C162.33 580.24 160.35 563.5 159.09 549.1H159.99L173.49 577.72L212.01 649H239.01V515.8H213.81V568.9C213.81 584.02 215.79 601.66 217.23 615.52H216.33L203.01 586.72L164.31 515.8ZM353.674 515.8H271.954V649H355.654V626.68H298.594V591.04H345.394V568.72H298.594V537.94H353.674V515.8ZM427.876 598.6L455.236 649H484.936L453.796 594.46C469.096 588.52 479.176 576.46 479.176 556.12C479.176 525.34 457.216 515.8 429.136 515.8H382.696V649H409.336V598.6H427.876ZM426.616 577.54H409.336V536.86H426.616C443.896 536.86 453.076 541.72 453.076 556.12C453.076 570.52 443.896 577.54 426.616 577.54ZM562.632 651.52C581.352 651.52 596.652 644.32 605.832 635.5V575.38L558.492 575.38V597.16L582.072 597.16V623.44C578.292 626.86 571.812 628.48 565.332 628.48C539.232 628.48 525.912 611.02 525.912 582.04C525.912 553.42 541.392 536.14 563.532 536.14C575.772 536.14 583.152 541 589.632 547.3L603.852 530.38C595.212 521.56 581.892 513.28 562.632 513.28C527.352 513.28 498.732 539.02 498.732 582.94C498.732 627.4 526.092 651.52 562.632 651.52ZM716.135 515.8H634.415L634.415 649H718.115V626.68H661.055V591.04H707.855L707.855 568.72H661.055V537.94H716.135V515.8ZM734.177 537.94H771.617L771.617 649H798.257L798.257 537.94H836.057V515.8H734.177V537.94ZM884.297 515.8H857.657L857.657 649H884.297L884.297 515.8ZM971.431 651.52C988.891 651.52 1002.93 645.04 1013.91 631.9L999.871 615.34C992.671 623.08 983.851 628.48 972.331 628.48C951.271 628.48 937.591 611.02 937.591 582.04C937.591 553.42 952.711 536.14 972.871 536.14C982.951 536.14 990.691 540.82 997.351 547.3L1011.39 530.38C1002.75 521.2 989.611 513.28 972.331 513.28C938.671 513.28 910.411 539.02 910.411 582.94C910.411 627.4 937.591 651.52 971.431 651.52Z" fill="#F8F366"/>
</svg>
