<svg width="1037" height="180" viewBox="0 0 1037 180" fill="none" xmlns="http://www.w3.org/2000/svg">
<path d="M108.108 43.8L26.3878 43.8L26.3878 177H110.088V154.68H53.0278L53.0278 119.04L99.8278 119.04L99.8278 96.72H53.0278L53.0278 65.94L108.108 65.94V43.8ZM164.31 43.8H137.13V177L162.33 177V123.54C162.33 108.24 160.35 91.5 159.09 77.1H159.99L173.49 105.72L212.01 177H239.01V43.8H213.81V96.9C213.81 112.02 215.79 129.66 217.23 143.52H216.33L203.01 114.72L164.31 43.8ZM353.674 43.8L271.954 43.8V177H355.654V154.68H298.594V119.04H345.394V96.72H298.594V65.94H353.674V43.8ZM427.876 126.6L455.236 177H484.936L453.796 122.46C469.096 116.52 479.176 104.46 479.176 84.12C479.176 53.34 457.216 43.8 429.136 43.8L382.696 43.8V177H409.336V126.6H427.876ZM426.616 105.54H409.336V64.86H426.616C443.896 64.86 453.076 69.72 453.076 84.12C453.076 98.52 443.896 105.54 426.616 105.54ZM562.632 179.52C581.352 179.52 596.652 172.32 605.832 163.5V103.38H558.492V125.16H582.072V151.44C578.292 154.86 571.812 156.48 565.332 156.48C539.232 156.48 525.912 139.02 525.912 110.04C525.912 81.42 541.392 64.14 563.532 64.14C575.772 64.14 583.152 69 589.632 75.3L603.852 58.38C595.212 49.56 581.892 41.28 562.632 41.28C527.352 41.28 498.732 67.02 498.732 110.94C498.732 155.4 526.092 179.52 562.632 179.52ZM716.135 43.8L634.415 43.8V177L718.115 177V154.68H661.055V119.04H707.855V96.72L661.055 96.72V65.94H716.135V43.8ZM734.177 65.94L771.617 65.94V177H798.257V65.94H836.057V43.8L734.177 43.8V65.94ZM884.297 43.8H857.657V177H884.297V43.8ZM971.431 179.52C988.891 179.52 1002.93 173.04 1013.91 159.9L999.871 143.34C992.671 151.08 983.851 156.48 972.331 156.48C951.271 156.48 937.591 139.02 937.591 110.04C937.591 81.42 952.711 64.14 972.871 64.14C982.951 64.14 990.691 68.82 997.351 75.3L1011.39 58.38C1002.75 49.2 989.611 41.28 972.331 41.28C938.671 41.28 910.411 67.02 910.411 110.94C910.411 155.4 937.591 179.52 971.431 179.52Z" fill="#F8F366"/>
</svg>
