<svg width="589" height="950" viewBox="0 0 589 950" fill="none" xmlns="http://www.w3.org/2000/svg">
<path d="M138.52 60.3C138.52 95.58 112.06 119.88 68.86 119.88C25.66 119.88 0.279999 95.58 0.279999 60.3C0.279999 25.02 25.48 0.72 68.86 0.72C112.06 0.72 138.52 25.02 138.52 60.3ZM115.48 60.3C115.48 40.5 97.12 27.9 68.86 27.9C39.88 27.9 23.14 39.96 23.14 60.3C23.14 80.64 39.88 92.7 68.86 92.7C97.12 92.7 115.48 80.1 115.48 60.3ZM138.52 197.016C138.52 229.596 120.34 248.496 76.06 248.496H2.8L2.8 222.936L78.4 222.936C106.3 222.936 115.48 212.856 115.48 197.016C115.48 181.176 106.3 171.816 78.4 171.816L2.8 171.816L2.8 145.176L76.06 145.176C120.34 145.176 138.52 164.616 138.52 197.016ZM24.94 269.564L24.94 307.004H136V333.644H24.94L24.94 371.444H2.8L2.8 269.564H24.94ZM138.52 444.659C138.52 463.379 131.32 478.679 122.5 487.859H62.38L62.38 440.519H84.16V464.099H110.44C113.86 460.319 115.48 453.839 115.48 447.359C115.48 421.259 98.02 407.939 69.04 407.939C40.42 407.939 23.14 423.419 23.14 445.559C23.14 457.799 28 465.179 34.3 471.659L17.38 485.879C8.56 477.239 0.279999 463.919 0.279999 444.659C0.279999 409.379 26.02 380.759 69.94 380.759C114.4 380.759 138.52 408.119 138.52 444.659ZM138.52 569.363C138.52 604.643 112.06 628.943 68.86 628.943C25.66 628.943 0.279999 604.643 0.279999 569.363C0.279999 534.083 25.48 509.783 68.86 509.783C112.06 509.783 138.52 534.083 138.52 569.363ZM115.48 569.363C115.48 549.563 97.12 536.963 68.86 536.963C39.88 536.963 23.14 549.023 23.14 569.363C23.14 589.703 39.88 601.762 68.86 601.762C97.12 601.762 115.48 589.163 115.48 569.363ZM2.8 681.598L2.8 654.958H136V681.598H2.8ZM2.8 741.552L2.8 714.372H136V739.572H82.54C67.24 739.572 50.5 737.592 36.1 736.332V737.232L64.72 750.732L136 789.252V816.252H2.8L2.8 791.052H55.9C71.02 791.052 88.66 793.032 102.52 794.472V793.572L73.72 780.252L2.8 741.552ZM138.52 906.436C138.52 925.156 131.32 940.456 122.5 949.636H62.38L62.38 902.296H84.16L84.16 925.876H110.44C113.86 922.096 115.48 915.616 115.48 909.136C115.48 883.036 98.02 869.716 69.04 869.716C40.42 869.716 23.14 885.196 23.14 907.336C23.14 919.576 28 926.956 34.3 933.436L17.38 947.656C8.56 939.016 0.279999 925.696 0.279999 906.436C0.279999 871.156 26.02 842.536 69.94 842.536C114.4 842.536 138.52 869.896 138.52 906.436ZM363.52 60.3C363.52 95.58 337.06 119.88 293.86 119.88C250.66 119.88 225.28 95.58 225.28 60.3C225.28 25.02 250.48 0.72 293.86 0.72C337.06 0.72 363.52 25.02 363.52 60.3ZM340.48 60.3C340.48 40.5 322.12 27.9 293.86 27.9C264.88 27.9 248.14 39.96 248.14 60.3C248.14 80.64 264.88 92.7 293.86 92.7C322.12 92.7 340.48 80.1 340.48 60.3ZM363.52 197.016C363.52 229.596 345.34 248.496 301.06 248.496H227.8V222.936H303.4C331.3 222.936 340.48 212.856 340.48 197.016C340.48 181.176 331.3 171.816 303.4 171.816H227.8L227.8 145.176H301.06C345.34 145.176 363.52 164.616 363.52 197.016ZM249.94 269.564V307.004H361V333.644H249.94V371.444H227.8V269.564H249.94ZM363.52 444.659C363.52 463.379 356.32 478.679 347.5 487.859H287.38V440.519H309.16V464.099H335.44C338.86 460.319 340.48 453.839 340.48 447.359C340.48 421.259 323.02 407.939 294.04 407.939C265.42 407.939 248.14 423.419 248.14 445.559C248.14 457.799 253 465.179 259.3 471.659L242.38 485.879C233.56 477.239 225.28 463.919 225.28 444.659C225.28 409.379 251.02 380.759 294.94 380.759C339.4 380.759 363.52 408.119 363.52 444.659ZM363.52 569.363C363.52 604.643 337.06 628.943 293.86 628.943C250.66 628.943 225.28 604.643 225.28 569.363C225.28 534.083 250.48 509.783 293.86 509.783C337.06 509.783 363.52 534.083 363.52 569.363ZM340.48 569.363C340.48 549.563 322.12 536.963 293.86 536.963C264.88 536.963 248.14 549.023 248.14 569.363C248.14 589.703 264.88 601.762 293.86 601.762C322.12 601.762 340.48 589.163 340.48 569.363ZM227.8 681.598V654.958L361 654.958V681.598L227.8 681.598ZM227.8 741.552V714.372L361 714.372V739.572L307.54 739.572C292.24 739.572 275.5 737.592 261.1 736.332V737.232L289.72 750.732L361 789.252V816.252L227.8 816.252V791.052H280.9C296.02 791.052 313.66 793.032 327.52 794.472V793.572L298.72 780.252L227.8 741.552ZM363.52 906.436C363.52 925.156 356.32 940.456 347.5 949.636L287.38 949.636V902.296H309.16V925.876L335.44 925.876C338.86 922.096 340.48 915.616 340.48 909.136C340.48 883.036 323.02 869.716 294.04 869.716C265.42 869.716 248.14 885.196 248.14 907.336C248.14 919.576 253 926.956 259.3 933.436L242.38 947.656C233.56 939.016 225.28 925.696 225.28 906.436C225.28 871.156 251.02 842.536 294.94 842.536C339.4 842.536 363.52 869.896 363.52 906.436ZM588.52 60.3C588.52 95.58 562.06 119.88 518.86 119.88C475.66 119.88 450.28 95.58 450.28 60.3C450.28 25.02 475.48 0.72 518.86 0.72C562.06 0.72 588.52 25.02 588.52 60.3ZM565.48 60.3C565.48 40.5 547.12 27.9 518.86 27.9C489.88 27.9 473.14 39.96 473.14 60.3C473.14 80.64 489.88 92.7 518.86 92.7C547.12 92.7 565.48 80.1 565.48 60.3ZM588.52 197.016C588.52 229.596 570.34 248.496 526.06 248.496L452.8 248.496V222.936H528.4C556.3 222.936 565.48 212.856 565.48 197.016C565.48 181.176 556.3 171.816 528.4 171.816H452.8L452.8 145.176H526.06C570.34 145.176 588.52 164.616 588.52 197.016ZM474.94 269.564V307.004L586 307.004V333.644L474.94 333.644L474.94 371.444H452.8V269.564H474.94ZM588.52 444.659C588.52 463.379 581.32 478.679 572.5 487.859H512.38V440.519H534.16V464.099H560.44C563.86 460.319 565.48 453.839 565.48 447.359C565.48 421.259 548.02 407.939 519.04 407.939C490.42 407.939 473.14 423.419 473.14 445.559C473.14 457.799 478 465.179 484.3 471.659L467.38 485.879C458.56 477.239 450.28 463.919 450.28 444.659C450.28 409.379 476.02 380.759 519.94 380.759C564.4 380.759 588.52 408.119 588.52 444.659ZM588.52 569.363C588.52 604.643 562.06 628.943 518.86 628.943C475.66 628.943 450.28 604.643 450.28 569.363C450.28 534.083 475.48 509.783 518.86 509.783C562.06 509.783 588.52 534.083 588.52 569.363ZM565.48 569.363C565.48 549.563 547.12 536.963 518.86 536.963C489.88 536.963 473.14 549.023 473.14 569.363C473.14 589.703 489.88 601.762 518.86 601.762C547.12 601.762 565.48 589.163 565.48 569.363ZM452.8 681.598V654.958H586V681.598H452.8ZM452.8 741.552V714.372H586V739.572H532.54C517.24 739.572 500.5 737.592 486.1 736.332V737.232L514.72 750.732L586 789.252V816.252H452.8V791.052H505.9C521.02 791.052 538.66 793.032 552.52 794.472V793.572L523.72 780.252L452.8 741.552ZM588.52 906.436C588.52 925.156 581.32 940.456 572.5 949.636H512.38V902.296H534.16V925.876H560.44C563.86 922.096 565.48 915.616 565.48 909.136C565.48 883.036 548.02 869.716 519.04 869.716C490.42 869.716 473.14 885.196 473.14 907.336C473.14 919.576 478 926.956 484.3 933.436L467.38 947.656C458.56 939.016 450.28 925.696 450.28 906.436C450.28 871.156 476.02 842.536 519.94 842.536C564.4 842.536 588.52 869.896 588.52 906.436Z" fill="#F8F366"/>
</svg>
