<svg width="390" height="1510" viewBox="0 0 390 1510" fill="none" xmlns="http://www.w3.org/2000/svg">
<path d="M250.5 1325.93L250.5 1474.13H10V1426.03H107.5V1340.56H147.8L147.8 1426.03H210.525L210.525 1325.93H250.5ZM250.5 1235.92V1284.02H10L10 1138.42H50.3L50.3 1235.92H250.5ZM250.5 948.896L250.5 1096.45H10V945.32H50.3V1048.35H114.65V963.846H154.95V1048.35H210.525V948.896H250.5ZM250.5 917.294L134.15 853.919L10 921.519V870.494L63.3 844.819C75.975 838.644 88.325 833.444 102.95 827.269V825.969C88.325 818.494 75.975 813.294 63.3 807.119L10 780.144V726.844L131.875 794.444L250.5 731.069L250.5 781.769L201.1 804.519C189.725 809.719 178.35 814.269 163.075 820.444V822.069C178.35 829.544 189.725 834.419 201.1 839.944L250.5 863.994V917.294ZM250.5 644.635V692.735H10V644.635H250.5ZM250.5 505.834V585.459H10V499.659C10 446.684 32.425 406.384 80.85 406.384C113.35 406.384 131.55 425.559 137.725 451.559H139.35C146.175 431.084 169.9 418.734 191.35 418.734C236.525 418.734 250.5 456.434 250.5 505.834ZM152.675 509.409V537.359H213.775V508.759C213.775 479.834 205.325 465.534 184.2 465.534C164.7 465.534 152.675 478.209 152.675 509.409ZM47.05 503.884V537.359H116.925V503.884C116.925 470.084 107.175 453.184 83.775 453.184C58.75 453.184 47.05 471.059 47.05 503.884ZM250.5 316.143V364.243H10V218.643H50.3V316.143H250.5ZM250.5 29.1201V176.67H10L10 25.5451H50.3L50.3 128.57H114.65V44.0701H154.95V128.57H210.525V29.1201H250.5Z" fill="#F8F366"/>
</svg>
