<svg width="380" height="1758" viewBox="0 0 380 1758" fill="none" xmlns="http://www.w3.org/2000/svg">
<path d="M16.45 128.172C16.45 191.872 64.225 235.747 142.225 235.747C220.225 235.747 266.05 191.872 266.05 128.172C266.05 64.4724 220.55 20.5974 142.225 20.5974C64.225 20.5974 16.45 64.4724 16.45 128.172ZM58.05 128.172C58.05 92.4224 91.2 69.6724 142.225 69.6724C194.55 69.6724 224.775 91.4474 224.775 128.172C224.775 164.897 194.55 186.672 142.225 186.672C91.2 186.672 58.05 163.922 58.05 128.172ZM16.45 375.02C16.45 433.845 49.275 467.97 129.225 467.97H261.5V421.82H125C74.625 421.82 58.05 403.62 58.05 375.02C58.05 346.42 74.625 329.52 125 329.52H261.5V281.42H129.225C49.275 281.42 16.45 316.52 16.45 375.02ZM221.525 506.01V573.61H21L21 621.71H221.525V689.96H261.5L261.5 506.01H221.525ZM16.45 822.154C16.45 855.954 29.45 883.579 45.375 900.154H153.925L153.925 814.679H114.6V857.254H67.15C60.975 850.429 58.05 838.729 58.05 827.029C58.05 779.904 89.575 755.854 141.9 755.854C193.575 755.854 224.775 783.804 224.775 823.779C224.775 845.879 216 859.204 204.625 870.904L235.175 896.579C251.1 880.979 266.05 856.929 266.05 822.154C266.05 758.454 219.575 706.779 140.275 706.779C60 706.779 16.45 756.179 16.45 822.154ZM16.45 1047.31C16.45 1111.01 64.225 1154.89 142.225 1154.89C220.225 1154.89 266.05 1111.01 266.05 1047.31C266.05 983.613 220.55 939.738 142.225 939.738C64.225 939.738 16.45 983.613 16.45 1047.31ZM58.05 1047.31C58.05 1011.56 91.2 988.813 142.225 988.813C194.55 988.813 224.775 1010.59 224.775 1047.31C224.775 1084.04 194.55 1105.81 142.225 1105.81C91.2 1105.81 58.05 1083.06 58.05 1047.31ZM261.5 1249.96L261.5 1201.86H21V1249.96H261.5ZM261.5 1358.21V1309.14H21L21 1354.64H117.525C145.15 1354.64 175.375 1351.06 201.375 1348.79V1350.41L149.7 1374.79L21 1444.34V1493.09H261.5V1447.59H165.625C138.325 1447.59 106.475 1451.16 81.45 1453.76V1452.14L133.45 1428.09L261.5 1358.21ZM16.45 1655.92C16.45 1689.72 29.45 1717.34 45.375 1733.92H153.925V1648.44H114.6L114.6 1691.02H67.15C60.975 1684.19 58.05 1672.49 58.05 1660.79C58.05 1613.67 89.575 1589.62 141.9 1589.62C193.575 1589.62 224.775 1617.57 224.775 1657.54C224.775 1679.64 216 1692.97 204.625 1704.67L235.175 1730.34C251.1 1714.74 266.05 1690.69 266.05 1655.92C266.05 1592.22 219.575 1540.54 140.275 1540.54C60 1540.54 16.45 1589.94 16.45 1655.92Z" fill="#F8F366"/>
</svg>
