<svg width="1740" height="380" viewBox="0 0 1740 380" fill="none" xmlns="http://www.w3.org/2000/svg">
<path d="M57.6753 251.5H7.30029L80.7503 11H137.95L211.725 251.5H162.975L131.775 134.5C124.3 107.2 118.775 84.125 111.3 56.825H109.675C101.875 84.125 97.0003 107.2 89.5253 134.5L57.6753 251.5ZM287.504 251.5H239.404L239.404 11H287.504V251.5ZM365.854 251.5H315.479L388.929 11L446.129 11L519.904 251.5H471.154L439.954 134.5C432.479 107.2 426.954 84.125 419.479 56.825H417.854C410.054 84.125 405.179 107.2 397.704 134.5L365.854 251.5ZM576.327 72.75H654.327L671.227 11L721.602 11L644.252 251.5H587.702L510.677 11H559.427L576.327 72.75ZM636.777 136.45L643.927 110.125H586.727L593.877 136.45C601.352 161.475 608.177 188.775 614.352 215.1H615.652C623.127 189.1 629.302 161.475 636.777 136.45ZM847.905 6.45C879.43 6.45 904.78 18.15 924.605 41.875L899.255 71.775C886.255 57.8 870.33 48.05 849.53 48.05C811.505 48.05 786.805 79.575 786.805 131.9C786.805 183.575 814.105 214.775 850.505 214.775C868.705 214.775 882.68 206.325 894.705 194.625L920.055 225.175C904.455 241.75 880.73 256.05 849.53 256.05C788.755 256.05 737.73 209.575 737.73 130.275C737.73 50 786.805 6.45 847.905 6.45ZM1011.45 251.5L963.354 251.5V11L1011.45 11V251.5ZM1166.18 6.45C1229.88 6.45 1273.75 54.225 1273.75 132.225C1273.75 210.225 1229.88 256.05 1166.18 256.05C1102.48 256.05 1058.6 210.55 1058.6 132.225C1058.6 54.225 1102.48 6.45 1166.18 6.45ZM1166.18 48.05C1130.43 48.05 1107.68 81.2 1107.68 132.225C1107.68 184.55 1129.45 214.775 1166.18 214.775C1202.9 214.775 1224.68 184.55 1224.68 132.225C1224.68 81.2 1201.93 48.05 1166.18 48.05ZM1413.03 6.45C1471.85 6.45 1505.98 39.275 1505.98 119.225V251.5H1459.83V115C1459.83 64.625 1441.63 48.05 1413.03 48.05C1384.43 48.05 1367.53 64.625 1367.53 115V251.5H1319.43V119.225C1319.43 39.275 1354.53 6.45 1413.03 6.45ZM1635.67 6.45C1691.24 6.45 1724.07 39.925 1724.07 79.25C1724.07 114.35 1705.54 132.55 1675.64 144.575L1644.12 157.9C1623.64 165.7 1606.42 173.175 1606.42 189.425C1606.42 205.35 1620.07 214.775 1641.19 214.775C1661.02 214.775 1676.94 207.625 1692.22 194.95L1716.59 225.175C1697.09 245 1669.79 256.05 1641.19 256.05C1592.77 256.05 1557.99 225.825 1557.99 186.5C1557.99 151.4 1582.37 132.225 1606.74 121.825L1638.92 108.175C1660.69 98.75 1674.99 93.875 1674.99 75.675C1674.99 58.775 1661.67 48.05 1636.64 48.05C1615.52 48.05 1592.77 58.775 1575.54 74.7L1547.92 41.55C1571.32 19.125 1603.17 6.45 1635.67 6.45Z" fill="#F8F366"/>
</svg>
