<svg width="584" height="803" viewBox="0 0 584 803" fill="none" xmlns="http://www.w3.org/2000/svg">
<path d="M0.799998 720.54L0.799998 802.62H134V775.98H80L80 728.64H57.68L57.68 775.98H22.94L22.94 720.54H0.799998ZM0.799998 670.687V697.327H134V616.687H111.68V670.687H0.799998ZM0.799998 511.72L0.799998 593.44H134L134 509.74H111.68L111.68 566.8H76.04V520H53.72V566.8H22.94L22.94 511.72H0.799998ZM0.799998 494.218L65.24 459.118L134 496.558V468.298L104.48 454.078C97.46 450.658 90.62 447.778 82.52 444.358V443.638C90.62 439.498 97.46 436.618 104.48 433.198L134 418.258V388.738L66.5 426.178L0.799998 391.078L0.799998 419.158L28.16 431.758C34.46 434.638 40.76 437.158 49.22 440.578V441.478C40.76 445.618 34.46 448.318 28.16 451.378L0.799998 464.698L0.799998 494.218ZM0.799998 343.207L0.799998 369.847H134V343.207H0.799998ZM0.799998 266.332L0.799998 310.432H134V262.912C134 233.572 121.58 211.252 94.76 211.252C76.76 211.252 66.68 221.872 63.26 236.272H62.36C58.58 224.932 45.44 218.092 33.56 218.092C8.54 218.092 0.799998 238.972 0.799998 266.332ZM54.98 268.312V283.792H21.14V267.952C21.14 251.932 25.82 244.012 37.52 244.012C48.32 244.012 54.98 251.032 54.98 268.312ZM113.48 265.252V283.792H74.78V265.252C74.78 246.532 80.18 237.172 93.14 237.172C107 237.172 113.48 247.072 113.48 265.252ZM0.799998 161.273L0.799998 187.913H134V107.273H111.68V161.273H0.799998ZM0.799998 2.30625L0.799998 84.0262H134L134 0.32624H111.68L111.68 57.3862H76.04V10.5862H53.72V57.3862H22.94L22.94 2.30625H0.799998ZM225.8 720.54V802.62L359 802.62V775.98L305 775.98V728.64H282.68V775.98H247.94V720.54H225.8ZM225.8 670.687V697.327L359 697.327L359 616.687H336.68L336.68 670.687H225.8ZM225.8 511.72V593.44H359V509.74H336.68V566.8H301.04V520H278.72V566.8H247.94V511.72H225.8ZM225.8 494.218L290.24 459.118L359 496.558V468.298L329.48 454.078C322.46 450.658 315.62 447.778 307.52 444.358V443.638C315.62 439.498 322.46 436.618 329.48 433.198L359 418.258V388.738L291.5 426.178L225.8 391.078V419.158L253.16 431.758C259.46 434.638 265.76 437.158 274.22 440.578V441.478C265.76 445.618 259.46 448.318 253.16 451.378L225.8 464.698V494.218ZM225.8 343.207V369.847H359V343.207H225.8ZM225.8 266.332L225.8 310.432H359L359 262.912C359 233.572 346.58 211.252 319.76 211.252C301.76 211.252 291.68 221.872 288.26 236.272H287.36C283.58 224.932 270.44 218.092 258.56 218.092C233.54 218.092 225.8 238.972 225.8 266.332ZM279.98 268.312V283.792H246.14V267.952C246.14 251.932 250.82 244.012 262.52 244.012C273.32 244.012 279.98 251.032 279.98 268.312ZM338.48 265.252V283.792L299.78 283.792V265.252C299.78 246.532 305.18 237.172 318.14 237.172C332 237.172 338.48 247.072 338.48 265.252ZM225.8 161.273V187.913L359 187.913V107.273H336.68V161.273L225.8 161.273ZM225.8 2.30625V84.0262L359 84.0262V0.32624H336.68V57.3862L301.04 57.3862V10.5862H278.72V57.3862H247.94V2.30625H225.8ZM450.8 720.54V802.62H584V775.98H530V728.64H507.68V775.98H472.94V720.54H450.8ZM450.8 670.687V697.327H584V616.687H561.68V670.687H450.8ZM450.8 511.72V593.44H584V509.74H561.68V566.8H526.04V520H503.72V566.8H472.94V511.72H450.8ZM450.8 494.218L515.24 459.118L584 496.558V468.298L554.48 454.078C547.46 450.658 540.62 447.778 532.52 444.358V443.638C540.62 439.498 547.46 436.618 554.48 433.198L584 418.258V388.738L516.5 426.178L450.8 391.078V419.158L478.16 431.758C484.46 434.638 490.76 437.158 499.22 440.578V441.478C490.76 445.618 484.46 448.318 478.16 451.378L450.8 464.698V494.218ZM450.8 343.207V369.847L584 369.847V343.207L450.8 343.207ZM450.8 266.332L450.8 310.432L584 310.432V262.912C584 233.572 571.58 211.252 544.76 211.252C526.76 211.252 516.68 221.872 513.26 236.272H512.36C508.58 224.932 495.44 218.092 483.56 218.092C458.54 218.092 450.8 238.972 450.8 266.332ZM504.98 268.312V283.792H471.14V267.952C471.14 251.932 475.82 244.012 487.52 244.012C498.32 244.012 504.98 251.032 504.98 268.312ZM563.48 265.252V283.792H524.78V265.252C524.78 246.532 530.18 237.172 543.14 237.172C557 237.172 563.48 247.072 563.48 265.252ZM450.8 161.273V187.913H584V107.273H561.68V161.273H450.8ZM450.8 2.30625V84.0262H584V0.32624H561.68V57.3862H526.04V10.5862H503.72V57.3862H472.94V2.30625H450.8Z" fill="#F8F366"/>
</svg>
